<svg width="34" height="34" viewBox="0 0 34 34" fill="none" xmlns="http://www.w3.org/2000/svg">
<path d="M24.083 18.9833V23.2333C24.083 28.9 21.8163 31.1667 16.1497 31.1667H10.7663C5.09967 31.1667 2.83301 28.9 2.83301 23.2333V17.85C2.83301 12.1833 5.09967 9.91667 10.7663 9.91667H15.0163" stroke="#3F3F3D" stroke-opacity="0.7" stroke-width="1.5" stroke-linecap="round" stroke-linejoin="round"/>
<path d="M24.0833 18.9833H19.5499C16.1499 18.9833 15.0166 17.85 15.0166 14.45V9.91667L24.0833 18.9833Z" stroke="#3F3F3D" stroke-opacity="0.7" stroke-width="1.5" stroke-linecap="round" stroke-linejoin="round"/>
<path d="M16.4336 2.83334H22.1003" stroke="#3F3F3D" stroke-opacity="0.7" stroke-width="1.5" stroke-linecap="round" stroke-linejoin="round"/>
<path d="M9.91699 7.08334C9.91699 4.73167 11.8153 2.83334 14.167 2.83334H17.8787" stroke="#3F3F3D" stroke-opacity="0.7" stroke-width="1.5" stroke-linecap="round" stroke-linejoin="round"/>
<path d="M31.1664 11.3333V20.1025C31.1664 22.2983 29.3814 24.0833 27.1855 24.0833" stroke="#3F3F3D" stroke-opacity="0.7" stroke-width="1.5" stroke-linecap="round" stroke-linejoin="round"/>
<path d="M31.167 11.3333H26.917C23.7295 11.3333 22.667 10.2708 22.667 7.08334V2.83334L31.167 11.3333Z" stroke="#3F3F3D" stroke-opacity="0.7" stroke-width="1.5" stroke-linecap="round" stroke-linejoin="round"/>
</svg>
