<svg width="35" height="34" viewBox="0 0 35 34" fill="none" xmlns="http://www.w3.org/2000/svg">
<path d="M20.084 2.83334H13.0007C5.91732 2.83334 3.08398 5.66667 3.08398 12.75V21.25C3.08398 28.3333 5.91732 31.1667 13.0007 31.1667" stroke="#3F3F3D" stroke-opacity="0.7" stroke-width="1.5" stroke-linecap="round" stroke-linejoin="round"/>
<path d="M31.418 14.1667V18.4167" stroke="#3F3F3D" stroke-opacity="0.7" stroke-width="1.5" stroke-linecap="round" stroke-linejoin="round"/>
<path d="M31.4173 14.1667H25.7507C21.5007 14.1667 20.084 12.75 20.084 8.5V2.83334L31.4173 14.1667Z" stroke="#3F3F3D" stroke-opacity="0.7" stroke-width="1.5" stroke-linecap="round" stroke-linejoin="round"/>
<path d="M19.743 25.8684C16.4138 26.1092 16.4138 30.9258 19.743 31.1667H27.6196C28.5688 31.1667 29.5038 30.8125 30.198 30.175C32.5355 28.135 31.2888 24.055 28.2146 23.6725C27.1096 17.0283 17.5046 19.55 19.7713 25.8825" stroke="#3F3F3D" stroke-opacity="0.7" stroke-width="1.5" stroke-miterlimit="10" stroke-linecap="round" stroke-linejoin="round"/>
</svg>
