<svg width="35" height="34" viewBox="0 0 35 34" fill="none" xmlns="http://www.w3.org/2000/svg">
<path d="M15.9796 3.47075C16.9571 2.63491 18.5579 2.63491 19.5496 3.47075L21.7879 5.39757C22.2129 5.7659 23.0062 6.06336 23.5729 6.06336H25.9812C27.4829 6.06336 28.7154 7.29576 28.7154 8.79743V11.2059C28.7154 11.7584 29.0129 12.5659 29.3812 12.9909L31.3079 15.2291C32.1437 16.2066 32.1437 17.8075 31.3079 18.7992L29.3812 21.0374C29.0129 21.4624 28.7154 22.2558 28.7154 22.8225V25.2309C28.7154 26.7326 27.4829 27.965 25.9812 27.965H23.5729C23.0204 27.965 22.2129 28.2624 21.7879 28.6308L19.5496 30.5574C18.5721 31.3932 16.9712 31.3932 15.9796 30.5574L13.7413 28.6308C13.3163 28.2624 12.5229 27.965 11.9562 27.965H9.50539C8.00372 27.965 6.77123 26.7326 6.77123 25.2309V22.8083C6.77123 22.2558 6.47375 21.4624 6.11958 21.0374L4.20707 18.785C3.3854 17.8075 3.3854 16.2208 4.20707 15.2433L6.11958 12.9909C6.47375 12.5659 6.77123 11.7725 6.77123 11.22V8.79743C6.77123 7.29576 8.00372 6.06336 9.50539 6.06336H11.9562C12.5087 6.06336 13.3163 5.7659 13.7413 5.39757L15.9796 3.47075Z" stroke="#3F3F3D" stroke-opacity="0.7" stroke-width="1.5" stroke-linecap="round" stroke-linejoin="round"/>
<path d="M14.7608 20.995L16.8149 22.5816C17.0841 22.8508 17.6791 22.9783 18.0758 22.9783H20.5833C21.3766 22.9783 22.2408 22.3834 22.4391 21.59L24.0258 16.745C24.3516 15.8241 23.7566 15.0167 22.7649 15.0167H20.1158C19.7191 15.0167 19.3933 14.6909 19.4499 14.2234L19.7758 12.0984C19.9033 11.5034 19.5066 10.8376 18.9116 10.6392C18.3874 10.4409 17.7216 10.71 17.4524 11.1067L14.7324 15.1441" stroke="#3F3F3D" stroke-opacity="0.7" stroke-width="1.5" stroke-miterlimit="10"/>
<path d="M11.375 20.9949V14.5066C11.375 13.5716 11.7717 13.2458 12.7067 13.2458H13.3725C14.2933 13.2458 14.7042 13.5716 14.7042 14.5066V20.9949C14.7042 21.9157 14.3075 22.2558 13.3725 22.2558H12.7067C11.7717 22.2558 11.375 21.9299 11.375 20.9949Z" stroke="#3F3F3D" stroke-opacity="0.7" stroke-width="1.5" stroke-linecap="round" stroke-linejoin="round"/>
</svg>
