<svg width="48" height="48" viewBox="0 0 48 48" fill="none" xmlns="http://www.w3.org/2000/svg">
<circle cx="24" cy="24" r="18" fill="black"/>
<path d="M28.9999 29H32.3052C32.6919 29 33 28.6358 33 28.1958V27.4446C33 25.5478 31.6693 24 30.024 24H26.976M23 21.5C23 22.8807 21.8807 24 20.5 24C19.1193 24 18 22.8807 18 21.5C18 20.1193 19.1193 19 20.5 19C21.8807 19 23 20.1193 23 21.5ZM31 18.5C31 19.8807 29.8807 21 28.5 21C27.1193 21 26 19.8807 26 18.5C26 17.1193 27.1193 16 28.5 16C29.8807 16 31 17.1193 31 18.5ZM22.024 27C23.6693 27 25 28.5478 25 30.4446V31.1958C25 31.6358 24.6919 32 24.3052 32H16.6948C16.3146 32 16 31.6434 16 31.1958V30.4446C16 28.5402 17.3372 27 18.976 27H22.024Z" stroke="#FFDE02" stroke-width="2" stroke-linecap="round" stroke-linejoin="round"/>
</svg>
