<svg width="48" height="48" viewBox="0 0 48 48" fill="none" xmlns="http://www.w3.org/2000/svg">
<path d="M14.109 24.0224L10.0545 28.0816L6 24.0224L10.0545 19.9629L14.109 24.0224ZM24.0001 14.1192L30.9506 21.1228L35.0051 17.0632L28.0547 10.0595L24.0001 6L19.9456 10.0595L12.9505 17.0632L17.005 21.1228L24.0001 14.1192ZM37.946 19.9629L33.8915 24.0224L37.946 28.0816L42 24.0224L37.946 19.9629ZM24.0001 33.8808L17.0496 26.9221L12.9505 30.9812L19.9011 37.9404L23.9555 42L28.0102 37.9404L35.0051 30.9812L30.9506 26.9221L24.0001 33.8808ZM24.0001 28.0816L28.0547 24.0224L24.0001 19.9629L19.9456 24.0224L24.0001 28.0816Z" fill="#F0B90B"/>
</svg>
