<svg width="436" height="175" viewBox="0 0 436 175" fill="none" xmlns="http://www.w3.org/2000/svg">
<path fill-rule="evenodd" clip-rule="evenodd" d="M301.613 175C312.347 148.184 309.1 118.242 295.256 95.2452L150.335 115.295L289.215 86.3746C230.683 13.4416 116.758 61.8172 127.74 153.9L301.613 175Z" fill="#F0F3FA"/>
<path d="M435.539 89H322.359C322.359 89 333.589 58.35 350.859 58.35C368.129 58.35 373.539 79.5 373.539 79.5C373.539 79.5 385.189 68 394.759 68C404.329 68 412.659 83.19 412.659 83.19C412.659 83.19 426.179 75 435.539 89Z" fill="#EBEBEB"/>
<path d="M132.21 17.12H79.3203C79.3203 17.12 91.1403 0 100.45 0C109.76 0 112.51 11.42 112.51 11.42C112.51 11.42 119.08 6.09 125.17 7C131.26 7.91 132.21 17.12 132.21 17.12Z" fill="#EBEBEB"/>
<path d="M417.521 140.41H364.631C364.631 140.41 376.451 123.29 385.761 123.29C395.071 123.29 397.831 134.7 397.831 134.7C397.831 134.7 404.401 129.38 410.491 130.33C416.581 131.28 417.521 140.41 417.521 140.41Z" fill="#EBEBEB"/>
<path d="M103 60H0C0 60 14.1 28.5 29.2 26.53C44.3 24.56 51.46 50 51.46 50C51.46 50 61.19 41 68.85 41C76.51 41 82.41 52.81 82.41 52.81C82.41 52.81 97.72 44.72 103 60Z" fill="#EBEBEB"/>
</svg>
