<svg xmlns="http://www.w3.org/2000/svg" xmlns:xlink="http://www.w3.org/1999/xlink">

    <mask id="mask-big-photo" fill="#fff">
        <rect width="78" height="78" rx="2"></rect>
    </mask>
    <mask id="mask-small-photo" fill="#fff">
        <rect width="64" height="64" rx="2"></rect>
    </mask>
    <mask id="mask-residence" fill="#fff">
        <rect width="100" height="104" rx="2"></rect>
    </mask>

    <symbol id="pid-id" xmlns="http://www.w3.org/2000/svg">
        <g fill="none" fill-rule="evenodd">
            <g transform="translate(1 21)">
                <rect width="221" height="133" x="-.5" y="-.5" fill="#F0E5C9" stroke="#CCBF9D" rx="4"></rect>
                <g transform="translate(10 11)">
                    <rect width="79" height="79" x="-.5" y="-.5" stroke="#CCBF9D" fill="white" rx="2"></rect>
                    <g mask="url(#mask-big-photo)" fill-rule="nonzero">
                        <path fill="#C7CFE2" d="M13.765 74.125a5.7 5.7 0 0 1 1.184 3.46v13.262H7.176v-9.671c0-1.166.537-2.27 1.459-2.998l5.13-4.053z"></path>
                        <path fill="#E6E6E6" d="M66.044 70.868L50.294 65 39 68.857 27.706 65l-15.75 5.868C8.981 71.976 7 74.874 7 78.118V92h64V78.118c0-3.244-1.98-6.142-4.956-7.25z"></path>
                        <path fill="#B3B3B3" d="M69.847 73C71.197 74.388 72 76.236 72 78.218V92H60v-6.4c0-2.032.843-3.98 2.343-5.416L69.847 73z"></path>
                        <path fill="#5A4146" d="M60 26.457V10.75C60 8.679 58.29 7 56.182 7h-22.91C24.839 7 18 13.716 18 22v4.457c0 2.016.33 4.018.98 5.93l.635 1.872c.195.573.294 1.174.294 1.779V37h38.182v-.962c0-.605.1-1.206.294-1.78l.635-1.872c.65-1.911.98-3.913.98-5.929z"></path>
                        <path fill="#694B4B" d="M27 14.617c0 4.207 3.424 7.617 7.647 7.617h1.059L36.217 37h20.9v-.962c0-.605.099-1.205.29-1.78l.627-1.871a18.68 18.68 0 0 0 .966-5.93V10.75A3.757 3.757 0 0 0 55.235 7H34.647C30.424 7 27 10.41 27 14.617z"></path>
                        <path fill="#E6AF78" d="M27 52h22v17H27z"></path>
                        <path fill="#D29B6E" d="M27 61.051C30.293 62.925 34.029 64 38 64s7.707-1.075 11-2.949V52H27v9.051z"></path>
                        <path d="M39 69.158l-5.9 6.067a1.817 1.817 0 0 1-2.782-.195l-6.117-8.289 1.6-3.467c.472-1.023 1.704-1.398 2.642-.804L39 69.158zm0 0l5.9 6.067a1.817 1.817 0 0 0 2.782-.195l6.117-8.289-1.6-3.467c-.472-1.023-1.704-1.398-2.642-.804L39 69.158z" fill="#B3B3B3"></path>
                        <path fill="#F0C087" d="M39 58c-10.494 0-19-8.531-19-19.055v-1.906l3.162-2.114A5.721 5.721 0 0 0 25.7 30.17V23.7s15.2-5.717 26.6 3.811v2.656c0 1.911.952 3.697 2.538 4.757L58 37.04v1.906C58 49.469 49.493 58 39 58z"></path>
                        <path fill="#B3B3B3" d="M9.153 73C7.803 74.388 7 76.236 7 78.218V92h12v-6.4c0-2.032-.843-3.98-2.343-5.416L9.153 73z"></path>
                        <path fill="#E6AF78" d="M34.605 28.308c4.093-.522 11.258-.822 17.395 1.895v-2.668c-11.294-9.568-26.353-3.827-26.353-3.827v6.496c0 1.92-.944 3.711-2.515 4.776L20 37.103v1.914c0 9.784 7.228 17.84 16.549 18.983a19.222 19.222 0 0 1-5.255-13.242V32.109c0-1.94 1.419-3.56 3.311-3.801z"></path>
                        <path fill="#000" d="M66.269 68.814l-10.336-3.722a1.744 1.744 0 0 0-.483-1.345l-3.303-3.436v-5.769c.35-.285.694-.577 1.027-.887 4.167-3.868 6.556-9.328 6.556-14.982v-4.607a20.133 20.133 0 0 0 1.896-8.536V6.756c0-.97-.794-1.756-1.773-1.756h-26.54c-9.34 0-16.939 7.526-16.939 16.776v3.755c0 2.955.638 5.824 1.896 8.535v3.964a21.372 21.372 0 0 0 7.583 16.377v5.904l-3.303 3.437c-.355.37-.52.861-.483 1.344L11.16 69.02a9.33 9.33 0 0 0-2.192 1.138l-2.541 2.668A9.181 9.181 0 0 0 5 77.73v13.515C5 92.214 5.794 93 6.773 93c.98 0 1.773-.787 1.773-1.756V77.729c0-2.41 1.537-4.584 3.824-5.408l11.502-4.142 4.787 7.113a3.661 3.661 0 0 0 3.057 1.618c.969 0 1.897-.377 2.59-1.064l2.921-2.893v18.29c0 .97.794 1.757 1.773 1.757.98 0 1.773-.786 1.773-1.756V72.953l2.92 2.893a3.67 3.67 0 0 0 2.957 1.047 3.661 3.661 0 0 0 2.69-1.6l4.789-7.113 11.5 4.142c2.288.823 3.825 2.997 3.825 5.407v13.515c0 .97.794 1.756 1.773 1.756.98 0 1.773-.786 1.773-1.756V77.73c0-2.441-.98-4.731-2.622-6.424l-4.11-2.491zM21.816 38.03v-4.356c0-.265-.06-.526-.176-.764a16.71 16.71 0 0 1-1.72-7.38v-3.754c0-7.314 6.008-13.264 13.393-13.264H58.08V25.53c0 2.557-.578 5.04-1.72 7.38a1.75 1.75 0 0 0-.176.763v5c0 4.755-1.93 9.165-5.435 12.419-.437.406-.891.787-1.36 1.141-3.315 2.491-7.336 3.691-11.536 3.422-8.993-.577-16.037-8.32-16.037-17.626zm15.807 21.13c.468.03.932.045 1.395.045 3.39 0 6.653-.803 9.583-2.326v3.207l-9.6 6.5-9.602-6.5v-3.278a20.108 20.108 0 0 0 8.224 2.352zM31.8 73.362c-.012.012-.041.041-.099.035a.113.113 0 0 1-.09-.053l-5.514-8.192 1.774-1.847 8.365 5.663-4.436 4.394zm14.591-.018a.113.113 0 0 1-.09.053c-.058.008-.086-.023-.098-.034l-4.437-4.394 8.365-5.663 1.775 1.846-5.515 8.192z"></path>
                    </g>
                </g>
                <path fill="#CCBF9D" d="M11 123h78v1H11z"></path>
                <g fill="#1A4CC2" fill-rule="nonzero">
                    <path d="M62.233 124a2.404 2.404 0 0 1-1.564-.574 2.235 2.235 0 0 1-.678-2.42c.173-.51.267-1.033.3-1.558-1.506 2.197-3.42 3.928-5.665 4.405-1.562.332-3.916.204-6.25-2.292-3.893-4.162-1.238-8.83.7-12.24 2.286-4.02 2.222-4.658.987-5.441-.95-.604-2.575-.223-3.77.203-7.529 2.686-17.807 13.723-18.67 16.586-.364 1.21-1.674 1.905-2.924 1.552s-1.969-1.62-1.604-2.83c1.405-4.663 13.038-16.55 21.567-19.591 3.218-1.149 5.907-1.06 7.989.263 2.313 1.469 3.311 3.573 2.886 6.084-.31 1.825-1.336 3.63-2.328 5.375-2.678 4.71-2.447 5.786-1.335 6.975.988 1.057 1.555.936 1.741.897 1.417-.301 3.686-3.096 5.03-7.25.277-.858 1.05-1.478 1.972-1.584a2.383 2.383 0 0 1 2.301 1.092c.19.304 1.164 1.946 1.72 4.224.695-1.288 1.292-2.745 1.825-4.161.256-.68.829-1.2 1.545-1.406a2.423 2.423 0 0 1 2.086.362c1.078.782 4.615 3.625 4.89 7.366.099 1.349-.203 3.361-2.2 5.294a2.414 2.414 0 0 1-3.336 0 2.23 2.23 0 0 1 0-3.228c.802-.775.858-1.365.83-1.742-.043-.584-.342-1.201-.752-1.782-1.466 3.137-3.365 5.88-6.294 7.206-.32.144-.66.215-.999.215z"></path>
                    <path d="M31.31 127c-.038 0-.075-.001-.112-.003-1.273-.06-2.256-1.12-2.195-2.368.123-2.534 3.91-7.225 4.668-8.14 2.257-2.724 5.6-6.057 8.713-6.468 1.264-.167 2.424.701 2.595 1.94.17 1.239-.715 2.378-1.978 2.545-.899.12-3.008 1.597-5.515 4.56-2.29 2.706-3.703 5.188-3.88 5.87-.104 1.167-1.104 2.064-2.296 2.064z"></path>
                </g>
                <g transform="translate(98 11)">
                    <rect width="113" height="17" x="-.5" y="-.5" fill="#FFF" stroke="#CCBF9D" rx="2"></rect>
                    <text fill="#4D4D4D" font-size="12">
                        <tspan x="4" y="13">JOHN DOE</tspan>
                    </text>
                </g>
                <g transform="translate(98 83)">
                    <rect width="113" height="17" x="-.5" y="-.5" fill="#FFF" stroke="#CCBF9D" rx="2"></rect>
                    <text fill="#4D4D4D" font-size="12">
                        <tspan x="4" y="13">NEW YORK</tspan>
                    </text>
                </g>
                <g transform="translate(98 59)">
                    <rect width="25" height="17" x="-.5" y="-.5" fill="#FFF" stroke="#CCBF9D" rx="2"></rect>
                    <rect width="25" height="17" x="31.5" y="-.5" fill="#FFF" stroke="#CCBF9D" rx="2"></rect>
                    <rect width="49" height="17" x="63.5" y="-.5" fill="#FFF" stroke="#CCBF9D" rx="2"></rect>
                    <text fill="#4D4D4D" font-size="12">
                        <tspan x="4" y="13">01</tspan>
                    </text>
                    <text fill="#4D4D4D" font-size="12">
                        <tspan x="36" y="13">02</tspan>
                    </text>
                    <text fill="#4D4D4D" font-size="12">
                        <tspan x="68" y="13">1973</tspan>
                    </text>
                </g>
                <g transform="translate(98 35)">
                    <rect width="113" height="17" x="-.5" y="-.5" fill="#FFF" stroke="#CCBF9D" rx="2"></rect>
                    <text fill="#B3B3B3" font-size="12">
                        <tspan x="4" y="13">#</tspan>
                    </text>
                    <text fill="#4D4D4D" font-size="12">
                        <tspan x="16" y="13">111 222 333</tspan>
                    </text>
                </g>
            </g>
            <text fill="#32374A" font-size="11" transform="translate(15 -3)">
                <tspan x="27" y="12">Clear photo</tspan>
            </text>
            <path fill="#4D4D4D" fill-rule="nonzero" d="M16 36h-1V17.306L26.28 5H37v1H26.72L16 17.694z"></path>
            <text fill="#32374A" font-size="11" transform="translate(15 141)">
                <tspan x="27" y="33">Your signature</tspan>
            </text>
            <path fill="#4D4D4D" fill-rule="nonzero" d="M16 141h-1v17.694L26.28 171H37v-1H26.72L16 158.306z"></path>
            <text fill="#32374A" font-size="11" transform="translate(204 20)">
                <tspan x="36" y="13">Full name</tspan>
            </text>
            <path fill="#4D4D4D" fill-rule="nonzero" d="M225.22 29l-11 12H204v-1h9.78l11-12H235v1z"></path>
            <text fill="#32374A" font-size="11" transform="translate(204 44)">
                <tspan x="36" y="12">ID number</tspan>
                <tspan x="36" y="24">/series</tspan>
            </text>
            <path fill="#4D4D4D" fill-rule="nonzero" d="M225.22 52l-11 12H204v-1h9.78l11-12H235v1z"></path>
            <text fill="#32374A" font-size="11" transform="translate(204 79)">
                <tspan x="36" y="13">Date of birth</tspan>
            </text>
            <path fill="#4D4D4D" d="M204 88h31v1h-31z"></path>
            <g>
                <text fill="#32374A" font-size="11" transform="translate(204 112)">
                    <tspan x="36" y="18">Place of birth</tspan>
                </text>
                <path fill="#4D4D4D" fill-rule="nonzero" d="M225.22 124l-11-12H204v1h9.78l11 12H235v-1z"></path>
            </g>
        </g>
    </symbol>
    <symbol id="pid-ktp" xmlns="http://www.w3.org/2000/svg">
        <g fill="none" fill-rule="evenodd">
            <path fill="#EBF4FF" stroke="#98B3D4" d="M87 24.5h194a4.5 4.5 0 0 1 4.5 4.5v103a4.5 4.5 0 0 1-4.5 4.5H87a4.5 4.5 0 0 1-4.5-4.5V29a4.5 4.5 0 0 1 4.5-4.5z"></path>
            <g transform="translate(208 36)">
                <rect width="65" height="65" x="-.5" y="-.5" stroke="#98B3D4" fill="white" rx="2"></rect>
                <g mask="url(#mask-small-photo)" fill-rule="nonzero">
                    <path fill="#C7CFE2" d="M11.294 60.82c.614.805.972 1.793.972 2.84v10.88H5.888v-7.934c0-.957.44-1.862 1.197-2.46l4.209-3.325z"></path>
                    <path fill="#E6E6E6" d="M54.19 58.148l-12.923-4.815L32 56.498l-9.267-3.165L9.81 58.148c-2.441.91-4.066 3.287-4.066 5.948v11.391h52.512v-11.39c0-2.662-1.625-5.04-4.066-5.95z"></path>
                    <path fill="#B3B3B3" d="M57.31 59.897c1.109 1.139 1.767 2.655 1.767 4.282v11.308H49.23v-5.252a6.15 6.15 0 0 1 1.922-4.443l6.158-5.895z"></path>
                    <path fill="#5A4146" d="M49.23 21.709V8.82c0-1.699-1.402-3.076-3.132-3.076H27.301c-6.921 0-12.532 5.51-12.532 12.307v3.658c0 1.653.272 3.296.804 4.865l.522 1.536c.16.47.24.963.24 1.46v.789h31.33v-.79c0-.496.08-.989.24-1.46l.522-1.535a15.15 15.15 0 0 0 .804-4.865z"></path>
                    <path fill="#694B4B" d="M22.154 11.994c0 3.451 2.809 6.25 6.274 6.25h.87l.419 12.115h17.149v-.79c0-.496.08-.988.238-1.46l.514-1.535c.525-1.57.792-3.212.792-4.865V8.82a3.082 3.082 0 0 0-3.089-3.076H28.43c-3.466 0-6.275 2.798-6.275 6.25z"></path>
                    <path fill="#E6AF78" d="M22.154 42.667h18.05v13.949h-18.05z"></path>
                    <path fill="#D29B6E" d="M22.154 50.094c2.702 1.537 5.767 2.419 9.025 2.419 3.259 0 6.324-.882 9.026-2.42v-7.426H22.154v7.427z"></path>
                    <path d="M32 56.745l-4.84 4.978a1.491 1.491 0 0 1-2.283-.16l-5.02-6.8 1.313-2.846c.388-.84 1.398-1.147 2.168-.66L32 56.746zm0 0l4.84 4.978a1.492 1.492 0 0 0 2.283-.16l5.02-6.8-1.313-2.846c-.388-.84-1.398-1.147-2.168-.66L32 56.746z" fill="#B3B3B3"></path>
                    <path fill="#F0C087" d="M32 47.59c-8.61 0-15.59-7-15.59-15.635V30.39l2.595-1.734a4.694 4.694 0 0 0 2.082-3.903v-5.307s12.472-4.69 21.826 3.127v2.18c0 1.568.781 3.033 2.083 3.903l2.594 1.734v1.564c0 8.635-6.98 15.635-15.59 15.635z"></path>
                    <path fill="#B3B3B3" d="M7.51 59.897c-1.108 1.139-1.766 2.655-1.766 4.282v11.308h9.846v-5.252a6.15 6.15 0 0 0-1.923-4.443L7.51 59.897z"></path>
                    <path fill="#E6AF78" d="M28.394 23.227c3.358-.428 9.237-.674 14.273 1.555v-2.189c-9.267-7.85-21.623-3.14-21.623-3.14v5.33a4.732 4.732 0 0 1-2.064 3.919l-2.57 1.742v1.57c0 8.028 5.93 14.637 13.579 15.576a15.772 15.772 0 0 1-4.312-10.866V26.346c0-1.591 1.164-2.921 2.717-3.12z"></path>
                    <path fill="#000" d="M54.374 56.463l-8.48-3.054a1.43 1.43 0 0 0-.396-1.103l-2.71-2.82v-4.734c.286-.233.569-.473.842-.727 3.419-3.174 5.38-7.655 5.38-12.293v-3.78a16.52 16.52 0 0 0 1.555-7.004V5.543c0-.795-.651-1.44-1.455-1.44H27.334c-7.664 0-13.899 6.175-13.899 13.764v3.081c0 2.425.524 4.78 1.556 7.004v3.252a17.536 17.536 0 0 0 6.222 13.437v4.845l-2.71 2.82a1.43 1.43 0 0 0-.397 1.103l-8.95 3.223a7.655 7.655 0 0 0-1.799.933l-2.084 2.19a7.533 7.533 0 0 0-1.17 4.022v11.09c0 .795.65 1.44 1.454 1.44.804 0 1.455-.645 1.455-1.44v-11.09c0-1.977 1.261-3.76 3.138-4.437l9.437-3.398 3.928 5.836a3.004 3.004 0 0 0 2.508 1.328c.795 0 1.557-.31 2.126-.873l2.396-2.374v15.008c0 .795.652 1.44 1.455 1.44s1.455-.645 1.455-1.44V59.859l2.396 2.374a3.012 3.012 0 0 0 2.426.858 3.004 3.004 0 0 0 2.208-1.313l3.928-5.836 9.437 3.399c1.877.676 3.138 2.459 3.138 4.437v11.089c0 .796.651 1.44 1.455 1.44.803 0 1.454-.644 1.454-1.44v-11.09a7.578 7.578 0 0 0-2.151-5.27l-3.372-2.044zM17.9 31.204V27.63c0-.217-.05-.431-.144-.627a13.71 13.71 0 0 1-1.411-6.055v-3.08c0-6.002 4.93-10.884 10.989-10.884h20.321v13.964a13.71 13.71 0 0 1-1.41 6.055 1.43 1.43 0 0 0-.145.627v4.102c0 3.902-1.584 7.52-4.46 10.19-.359.334-.731.646-1.116.937-2.72 2.044-6.02 3.028-9.465 2.807C23.68 45.193 17.9 38.841 17.9 31.204zm12.97 17.338c.384.024.765.036 1.145.036a16.98 16.98 0 0 0 7.863-1.908v2.63L32 54.635 24.122 49.3v-2.689a16.499 16.499 0 0 0 6.749 1.93zm-4.779 11.653c-.01.01-.033.033-.08.028a.093.093 0 0 1-.075-.044l-4.524-6.721 1.456-1.515 6.864 4.646-3.64 3.606zm11.973-.015a.093.093 0 0 1-.074.043c-.047.006-.07-.018-.081-.028l-3.64-3.605 6.863-4.647 1.456 1.515-4.524 6.722z"></path>
                </g>
            </g>
            <path fill="#EFE5CC" d="M209 124h63v1h-63z"></path>
            <g fill="#1A4CC2" fill-rule="nonzero">
                <path d="M251.952 126c-.49 0-.973-.165-1.354-.482-.61-.507-.84-1.306-.586-2.033a5 5 0 0 0 .26-1.309c-1.304 1.846-2.96 3.3-4.903 3.7-1.352.28-3.389.172-5.409-1.925-3.369-3.496-1.071-7.418.606-10.281 1.978-3.377 1.922-3.913.854-4.571-.823-.507-2.229-.187-3.263.171-6.515 2.256-15.41 11.527-16.156 13.932-.316 1.016-1.45 1.6-2.53 1.304-1.083-.297-1.704-1.362-1.389-2.378 1.216-3.916 11.283-13.9 18.664-16.456 2.785-.965 5.112-.89 6.913.22 2.002 1.235 2.866 3.002 2.498 5.111-.268 1.533-1.156 3.05-2.014 4.515-2.318 3.957-2.119 4.861-1.156 5.86.855.887 1.346.786 1.507.753 1.226-.253 3.19-2.6 4.353-6.09.24-.72.908-1.242 1.706-1.33.8-.09 1.578.269 1.992.916.163.256 1.007 1.636 1.488 3.549.601-1.082 1.118-2.306 1.58-3.496a1.994 1.994 0 0 1 1.336-1.18 2.15 2.15 0 0 1 1.806.303c.932.657 3.993 3.045 4.23 6.188.086 1.133-.174 2.824-1.903 4.447a2.135 2.135 0 0 1-2.886 0 1.836 1.836 0 0 1 0-2.711c.693-.652.742-1.147.718-1.464-.037-.49-.297-1.009-.651-1.496-1.268 2.635-2.912 4.938-5.447 6.052a2.15 2.15 0 0 1-.864.18z"></path>
                <path d="M225.02 129c-.032 0-.064 0-.097-.002a2.006 2.006 0 0 1-1.92-2.09c.107-2.236 3.421-6.375 4.084-7.182 1.975-2.404 4.9-5.345 7.624-5.708a2.015 2.015 0 0 1 2.27 1.712 2.001 2.001 0 0 1-1.73 2.246c-.787.105-2.632 1.409-4.826 4.023-2.004 2.388-3.24 4.578-3.394 5.18a2.01 2.01 0 0 1-2.01 1.821z"></path>
            </g>
            <g transform="translate(116 36)">
                <rect width="83" height="17" x="-.5" y="-.5" fill="#FFF" stroke="#98B3D4" rx="2"></rect>
                <text fill="#4D4D4D" font-size="12">
                    <tspan x="4" y="13">JOHN DOE</tspan>
                </text>
            </g>
            <g transform="translate(116 108)">
                <rect width="83" height="17" x="-.5" y="-.5" fill="#FFF" stroke="#98B3D4" rx="2"></rect>
                <text fill="#4D4D4D" font-size="12">
                    <tspan x="4" y="13">NEW YORK</tspan>
                </text>
            </g>
            <g transform="translate(95 84)">
                <rect width="25" height="17" x="-.5" y="-.5" fill="#FFF" stroke="#98B3D4" rx="2"></rect>
                <rect width="25" height="17" x="31.5" y="-.5" fill="#FFF" stroke="#98B3D4" rx="2"></rect>
                <rect width="40" height="17" x="63.5" y="-.5" fill="#FFF" stroke="#98B3D4" rx="2"></rect>
                <text fill="#4D4D4D" font-size="12">
                    <tspan x="4" y="13">01</tspan>
                </text>
                <text fill="#4D4D4D" font-size="12">
                    <tspan x="36" y="13">02</tspan>
                </text>
                <text fill="#4D4D4D" font-size="12">
                    <tspan x="68" y="13">1973</tspan>
                </text>
            </g>
            <path fill="#FFF" stroke="#98B3D4" d="M97 59.5h99a2.5 2.5 0 0 1 2.5 2.5v12a2.5 2.5 0 0 1-2.5 2.5H97a2.5 2.5 0 0 1-2.5-2.5V62a2.5 2.5 0 0 1 2.5-2.5z"></path>
            <text fill="#B3B3B3" font-size="12" transform="translate(95 60)">
                <tspan x="4" y="13">#</tspan>
            </text>
            <text fill="#4D4D4D" font-size="12" transform="translate(95 60)">
                <tspan x="16" y="13">111 222 333</tspan>
            </text>
            <text fill="#32374A" font-size="11" transform="translate(219 -2)">
                <tspan x="27" y="12">Clear photo</tspan>
                            </text>
            <path fill="#4D4D4D" fill-rule="nonzero" d="M220 40h-1V21.306L230.28 9H241v1h-10.28L220 21.694z"></path>
            <text fill="#32374A" font-size="11" transform="translate(119)">
                <tspan x="27" y="12">Full name</tspan>
            </text>
            <path fill="#4D4D4D" fill-rule="nonzero" d="M120 40h-1V21.306L130.28 9H141v1h-10.28L120 21.694z"></path>
            <g>
                <text fill="#32374A" font-size="11" transform="translate(219 121)">
                    <tspan x="27" y="32">Your signature</tspan>
                </text>
                <path fill="#4D4D4D" fill-rule="nonzero" d="M220 121h-1v17.694L230.28 151H241v-1h-10.28L220 138.306z"></path>
            </g>
            <g>
                <text fill="#32374A" font-size="11" transform="translate(-1 25)">
                    <tspan x="73" y="12" text-anchor="end">ID number</tspan>
                    <tspan x="70" y="24" text-anchor="end">/series</tspan>
                </text>
                <path fill="#4D4D4D" fill-rule="nonzero" d="M97 64h1V45.306L86.72 33H76v1h10.28L97 45.694z"></path>
            </g>
            <g>
                <text fill="#32374A" font-size="11" transform="translate(24 95)">
                    <tspan x="45" y="33" text-anchor="end">Date of birth</tspan>
                </text>
                <path fill="#4D4D4D" fill-rule="nonzero" d="M97 95h1v18.694L86.72 126H76v-1h10.28L97 113.306z"></path>
            </g>
            <g>
                <text fill="#32374A" font-size="11" transform="translate(119 120)">
                    <tspan x="27" y="33">Place of birth</tspan>
                </text>
                <path fill="#4D4D4D" fill-rule="nonzero" d="M120 120h-1v18.694L130.28 151H141v-1h-10.28L120 138.306z"></path>
            </g>
        </g>
    </symbol>
    <symbol id="pid-passport" xmlns="http://www.w3.org/2000/svg">
        <defs>
            <linearGradient id="pa" x1="50%" x2="50%" y1="24.448%" y2="100%">
                <stop offset="0%" stop-color="#F0E5C9" stop-opacity="0"></stop>
                <stop offset="49.971%" stop-color="#F9F4E6"></stop>
                <stop offset="100%" stop-color="#DDD0B1"></stop>
            </linearGradient>
        </defs>
        <g fill="none" fill-rule="evenodd">
            <g transform="translate(0 -10)">
                <rect width="206" height="124" y="40" fill="#F0E5C9" rx="4"></rect>
                <path fill="url(#pa)" d="M4 0a4 4 0 0 0-4 4v32a4 4 0 0 0 4 4h198a4 4 0 0 0 4-4V4a4 4 0 0 0-4-4H4z"></path>
                <g transform="translate(10 51)">
                    <rect width="65" height="65" x="-.5" y="-.5" stroke="#CCBF9D" fill="white" rx="2"></rect>
                    <g mask="url(#mask-small-photo)" fill-rule="nonzero">
                        <path fill="#C7CFE2" d="M11.294 60.82c.614.805.972 1.793.972 2.84v10.88H5.888v-7.934c0-.957.44-1.862 1.197-2.46l4.209-3.325z"></path>
                        <path fill="#E6E6E6" d="M54.19 58.148l-12.923-4.815L32 56.498l-9.267-3.165L9.81 58.148c-2.441.91-4.066 3.287-4.066 5.948v11.391h52.512v-11.39c0-2.662-1.625-5.04-4.066-5.95z"></path>
                        <path fill="#B3B3B3" d="M57.31 59.897c1.109 1.139 1.767 2.655 1.767 4.282v11.308H49.23v-5.252a6.15 6.15 0 0 1 1.922-4.443l6.158-5.895z"></path>
                        <path fill="#5A4146" d="M49.23 21.709V8.82c0-1.699-1.402-3.076-3.132-3.076H27.301c-6.921 0-12.532 5.51-12.532 12.307v3.658c0 1.653.272 3.296.804 4.865l.522 1.536c.16.47.24.963.24 1.46v.789h31.33v-.79c0-.496.08-.989.24-1.46l.522-1.535a15.15 15.15 0 0 0 .804-4.865z"></path>
                        <path fill="#694B4B" d="M22.154 11.994c0 3.451 2.809 6.25 6.274 6.25h.87l.419 12.115h17.149v-.79c0-.496.08-.988.238-1.46l.514-1.535c.525-1.57.792-3.212.792-4.865V8.82a3.082 3.082 0 0 0-3.089-3.076H28.43c-3.466 0-6.275 2.798-6.275 6.25z"></path>
                        <path fill="#E6AF78" d="M22.154 42.667h18.05v13.949h-18.05z"></path>
                        <path fill="#D29B6E" d="M22.154 50.094c2.702 1.537 5.767 2.419 9.025 2.419 3.259 0 6.324-.882 9.026-2.42v-7.426H22.154v7.427z"></path>
                        <path d="M32 56.745l-4.84 4.978a1.491 1.491 0 0 1-2.283-.16l-5.02-6.8 1.313-2.846c.388-.84 1.398-1.147 2.168-.66L32 56.746zm0 0l4.84 4.978a1.492 1.492 0 0 0 2.283-.16l5.02-6.8-1.313-2.846c-.388-.84-1.398-1.147-2.168-.66L32 56.746z" fill="#B3B3B3"></path>
                        <path fill="#F0C087" d="M32 47.59c-8.61 0-15.59-7-15.59-15.635V30.39l2.595-1.734a4.694 4.694 0 0 0 2.082-3.903v-5.307s12.472-4.69 21.826 3.127v2.18c0 1.568.781 3.033 2.083 3.903l2.594 1.734v1.564c0 8.635-6.98 15.635-15.59 15.635z"></path>
                        <path fill="#B3B3B3" d="M7.51 59.897c-1.108 1.139-1.766 2.655-1.766 4.282v11.308h9.846v-5.252a6.15 6.15 0 0 0-1.923-4.443L7.51 59.897z"></path>
                        <path fill="#E6AF78" d="M28.394 23.227c3.358-.428 9.237-.674 14.273 1.555v-2.189c-9.267-7.85-21.623-3.14-21.623-3.14v5.33a4.732 4.732 0 0 1-2.064 3.919l-2.57 1.742v1.57c0 8.028 5.93 14.637 13.579 15.576a15.772 15.772 0 0 1-4.312-10.866V26.346c0-1.591 1.164-2.921 2.717-3.12z"></path>
                        <path fill="#000" d="M54.374 56.463l-8.48-3.054a1.43 1.43 0 0 0-.396-1.103l-2.71-2.82v-4.734c.286-.233.569-.473.842-.727 3.419-3.174 5.38-7.655 5.38-12.293v-3.78a16.52 16.52 0 0 0 1.555-7.004V5.543c0-.795-.651-1.44-1.455-1.44H27.334c-7.664 0-13.899 6.175-13.899 13.764v3.081c0 2.425.524 4.78 1.556 7.004v3.252a17.536 17.536 0 0 0 6.222 13.437v4.845l-2.71 2.82a1.43 1.43 0 0 0-.397 1.103l-8.95 3.223a7.655 7.655 0 0 0-1.799.933l-2.084 2.19a7.533 7.533 0 0 0-1.17 4.022v11.09c0 .795.65 1.44 1.454 1.44.804 0 1.455-.645 1.455-1.44v-11.09c0-1.977 1.261-3.76 3.138-4.437l9.437-3.398 3.928 5.836a3.004 3.004 0 0 0 2.508 1.328c.795 0 1.557-.31 2.126-.873l2.396-2.374v15.008c0 .795.652 1.44 1.455 1.44s1.455-.645 1.455-1.44V59.859l2.396 2.374a3.012 3.012 0 0 0 2.426.858 3.004 3.004 0 0 0 2.208-1.313l3.928-5.836 9.437 3.399c1.877.676 3.138 2.459 3.138 4.437v11.089c0 .796.651 1.44 1.455 1.44.803 0 1.454-.644 1.454-1.44v-11.09a7.578 7.578 0 0 0-2.151-5.27l-3.372-2.044zM17.9 31.204V27.63c0-.217-.05-.431-.144-.627a13.71 13.71 0 0 1-1.411-6.055v-3.08c0-6.002 4.93-10.884 10.989-10.884h20.321v13.964a13.71 13.71 0 0 1-1.41 6.055 1.43 1.43 0 0 0-.145.627v4.102c0 3.902-1.584 7.52-4.46 10.19-.359.334-.731.646-1.116.937-2.72 2.044-6.02 3.028-9.465 2.807C23.68 45.193 17.9 38.841 17.9 31.204zm12.97 17.338c.384.024.765.036 1.145.036a16.98 16.98 0 0 0 7.863-1.908v2.63L32 54.635 24.122 49.3v-2.689a16.499 16.499 0 0 0 6.749 1.93zm-4.779 11.653c-.01.01-.033.033-.08.028a.093.093 0 0 1-.075-.044l-4.524-6.721 1.456-1.515 6.864 4.646-3.64 3.606zm11.973-.015a.093.093 0 0 1-.074.043c-.047.006-.07-.018-.081-.028l-3.64-3.605 6.863-4.647 1.456 1.515-4.524 6.722z"></path>
                    </g>
                </g>
                <path fill="#CCBF9D" d="M11 155h78v1H11z"></path>
                <g fill="#1A4CC2" fill-rule="nonzero">
                    <path d="M62.233 156a2.404 2.404 0 0 1-1.564-.574 2.235 2.235 0 0 1-.678-2.42c.173-.51.267-1.033.3-1.558-1.506 2.197-3.42 3.928-5.665 4.405-1.562.332-3.916.204-6.25-2.292-3.893-4.162-1.238-8.83.7-12.24 2.286-4.02 2.222-4.658.987-5.441-.95-.604-2.575-.223-3.77.203-7.529 2.686-17.807 13.723-18.67 16.586-.364 1.21-1.674 1.905-2.924 1.552s-1.969-1.62-1.604-2.83c1.405-4.663 13.038-16.55 21.567-19.591 3.218-1.149 5.907-1.06 7.989.263 2.313 1.469 3.311 3.573 2.886 6.084-.31 1.825-1.336 3.63-2.328 5.375-2.678 4.71-2.447 5.786-1.335 6.975.988 1.057 1.555.936 1.741.897 1.417-.301 3.686-3.096 5.03-7.25.277-.858 1.05-1.478 1.972-1.584a2.383 2.383 0 0 1 2.301 1.092c.19.304 1.164 1.946 1.72 4.224.695-1.288 1.292-2.745 1.825-4.161.256-.68.829-1.2 1.545-1.406a2.423 2.423 0 0 1 2.086.362c1.078.782 4.615 3.625 4.89 7.366.099 1.349-.203 3.361-2.2 5.294a2.414 2.414 0 0 1-3.336 0 2.23 2.23 0 0 1 0-3.228c.802-.775.858-1.365.83-1.742-.043-.584-.342-1.201-.752-1.782-1.466 3.137-3.365 5.88-6.294 7.206-.32.144-.66.215-.999.215z"></path>
                    <path d="M31.31 159c-.038 0-.075-.001-.112-.003-1.273-.06-2.256-1.12-2.195-2.368.123-2.534 3.91-7.225 4.668-8.14 2.257-2.724 5.6-6.057 8.713-6.468 1.264-.167 2.424.701 2.595 1.94.17 1.239-.715 2.378-1.978 2.545-.899.12-3.008 1.597-5.515 4.56-2.29 2.706-3.703 5.188-3.88 5.87-.104 1.167-1.104 2.064-2.296 2.064z"></path>
                </g>
                <g transform="translate(84 51)">
                    <rect width="113" height="17" x="-.5" y="-.5" fill="#FFF" stroke="#CCBF9D" rx="2"></rect>
                    <text fill="#4D4D4D" font-size="12">
                        <tspan x="4" y="13">JOHN DOE</tspan>
                    </text>
                </g>
                <g transform="translate(84 123)">
                    <rect width="113" height="17" x="-.5" y="-.5" fill="#FFF" stroke="#CCBF9D" rx="2"></rect>
                    <text fill="#4D4D4D" font-size="12">
                        <tspan x="4" y="13">NEW YORK</tspan>
                    </text>
                </g>
                <g transform="translate(84 99)">
                    <rect width="25" height="17" x="-.5" y="-.5" fill="#FFF" stroke="#CCBF9D" rx="2"></rect>
                    <rect width="25" height="17" x="31.5" y="-.5" fill="#FFF" stroke="#CCBF9D" rx="2"></rect>
                    <rect width="49" height="17" x="63.5" y="-.5" fill="#FFF" stroke="#CCBF9D" rx="2"></rect>
                    <text fill="#4D4D4D" font-size="12">
                        <tspan x="4" y="13">01</tspan>
                    </text>
                    <text fill="#4D4D4D" font-size="12">
                        <tspan x="36" y="13">02</tspan>
                    </text>
                    <text fill="#4D4D4D" font-size="12">
                        <tspan x="68" y="13">1973</tspan>
                    </text>
                </g>
                <g transform="translate(84 75)">
                    <rect width="113" height="17" x="-.5" y="-.5" fill="#FFF" stroke="#CCBF9D" rx="2"></rect>
                    <text fill="#B3B3B3" font-size="12">
                        <tspan x="4" y="13">#</tspan>
                    </text>
                    <text fill="#4D4D4D" font-size="12">
                        <tspan x="16" y="13">111 222 333</tspan>
                    </text>
                </g>
            </g>
            <text fill="#32374A" font-size="11" transform="translate(14 6)">
                <tspan x="27" y="12">Clear photo</tspan>
            </text>
            <path fill="#4D4D4D" fill-rule="nonzero" d="M15 45h-1V26.306L25.28 14H36v1H25.72L15 26.694z"></path>
            <text fill="#32374A" font-size="11" transform="translate(14 142)">
                <tspan x="27" y="33">Your signature</tspan>
            </text>
            <path fill="#4D4D4D" fill-rule="nonzero" d="M15 142h-1v17.694L25.28 172H36v-1H25.72L15 159.306z"></path>
            <text fill="#32374A" font-size="11" transform="translate(192 29)">
                <tspan x="36" y="13">Full name</tspan>
            </text>
            <path fill="#4D4D4D" fill-rule="nonzero" d="M213.22 38l-11 12H192v-1h9.78l11-12H223v1z"></path>
            <text fill="#32374A" font-size="11" transform="translate(192 53)">
                <tspan x="36" y="12">ID number</tspan>
                <tspan x="36" y="24">/series</tspan>
            </text>
            <path fill="#4D4D4D" fill-rule="nonzero" d="M213.22 61l-11 12H192v-1h9.78l11-12H223v1z"></path>
            <text fill="#32374A" font-size="11" transform="translate(192 88)">
                <tspan x="36" y="13">Date of birth</tspan>
            </text>
            <path fill="#4D4D4D" d="M192 97h31v1h-31z"></path>
            <g>
                <text fill="#32374A" font-size="11" transform="translate(192 121)">
                    <tspan x="36" y="18">Place of birth</tspan>
                </text>
                <path fill="#4D4D4D" fill-rule="nonzero" d="M213.22 133l-11-12H192v1h9.78l11 12H223v-1z"></path>
            </g>
        </g>
    </symbol>
    <symbol id="pid-sim" xmlns="http://www.w3.org/2000/svg">
        <g fill="none" fill-rule="evenodd">
            <g transform="translate(1 21)">
                <rect width="245" height="112" x="-.5" y="-.5" fill="#FFFCF5" stroke="#EFE5CC" rx="4"></rect>
                <g fill="#CEC2A5" fill-rule="nonzero">
                    <path d="M207.541 68.994c-1.209-2.168-1.848-4.826-1.848-7.704 0-4.836 4.187-8.773 9.323-8.773 5.145 0 9.322 3.937 9.322 8.773 0 .55.45 1 1 1s.999-.45.999-1c0-5.945-5.076-10.771-11.321-10.771s-11.322 4.836-11.322 10.771c0 3.218.73 6.225 2.109 8.683 1.349 2.409 2.288 3.518 4.017 5.266.2.2.45.3.709.3.25 0 .51-.09.69-.3.4-.38.4-1.019.01-1.409-1.54-1.548-2.399-2.538-3.688-4.836zm-3.637-28.178c3.428-1.868 7.165-2.818 11.132-2.818 3.976 0 7.304.85 11.13 2.828.15.07.3.11.46.11.36 0 .71-.2.89-.54.25-.49.06-1.099-.43-1.348-4.077-2.109-7.794-3.048-12.05-3.048-4.297 0-8.364 1.03-12.091 3.058a1.002 1.002 0 0 0 .96 1.759z"></path>
                    <path d="M214.946 45.652c-6.445 0-12.34 3.608-15.009 9.183-.909 1.889-1.369 4.067-1.369 6.465 0 2.698.48 5.276 1.46 7.904.2.52.769.78 1.288.59.52-.2.78-.77.59-1.29-1.19-3.187-1.33-5.645-1.33-7.204 0-2.098.39-3.987 1.17-5.605 2.338-4.897 7.524-8.054 13.21-8.054 7.983 0 14.478 6.125 14.478 13.66 0 2.148-1.868 3.886-4.157 3.886-2.288 0-4.156-1.748-4.156-3.887 0-3.247-2.758-5.885-6.155-5.885-3.398 0-6.156 2.638-6.156 5.885a14.63 14.63 0 0 0 4.327 10.432c2.158 2.148 4.237 3.327 7.424 4.197.08.03.17.04.26.04.44 0 .84-.29.96-.73a1.003 1.003 0 0 0-.7-1.229c-2.818-.77-4.657-1.808-6.545-3.687a12.643 12.643 0 0 1-3.737-9.013c0-2.148 1.868-3.887 4.156-3.887 2.289 0 4.157 1.749 4.157 3.887 0 3.248 2.768 5.886 6.155 5.886 3.388 0 6.156-2.638 6.156-5.886 0-8.633-7.395-15.658-16.477-15.658z"></path>
                    <path d="M232.822 49.79c-1.989-2.779-4.507-4.957-7.495-6.496-6.295-3.237-14.328-3.227-20.613.02a20.813 20.813 0 0 0-7.505 6.545.995.995 0 0 0 .24 1.39c.18.12.38.179.58.179.31 0 .62-.14.82-.41a18.765 18.765 0 0 1 6.784-5.925c5.725-2.958 13.05-2.968 18.785-.02 2.698 1.379 4.976 3.357 6.775 5.875.32.45.95.55 1.399.23.45-.32.55-.94.23-1.389zm-5.886 19.864c-.8.14-1.609.19-2.088.19-1.999 0-3.657-.47-5.066-1.43-2.428-1.648-3.877-4.306-3.877-7.114 0-.55-.45-.999-1-.999-.549 0-.999.45-.999 1 0 3.477 1.779 6.754 4.747 8.772 1.728 1.17 3.817 1.769 6.195 1.769.28 0 1.269-.01 2.438-.22.54-.1.91-.62.81-1.159-.1-.54-.62-.91-1.16-.81z"></path>
                </g>
                <g transform="translate(10 11)">
                    <rect width="65" height="65" x="-.5" y="-.5" stroke="#EFE5CC" fill="white" rx="2"></rect>
                    <g mask="url(#mask-small-photo)" fill-rule="nonzero">
                        <path fill="#C7CFE2" d="M11.294 60.82c.614.805.972 1.793.972 2.84v10.88H5.888v-7.934c0-.957.44-1.862 1.197-2.46l4.209-3.325z"></path>
                        <path fill="#E6E6E6" d="M54.19 58.148l-12.923-4.815L32 56.498l-9.267-3.165L9.81 58.148c-2.441.91-4.066 3.287-4.066 5.948v11.391h52.512v-11.39c0-2.662-1.625-5.04-4.066-5.95z"></path>
                        <path fill="#B3B3B3" d="M57.31 59.897c1.109 1.139 1.767 2.655 1.767 4.282v11.308H49.23v-5.252a6.15 6.15 0 0 1 1.922-4.443l6.158-5.895z"></path>
                        <path fill="#5A4146" d="M49.23 21.709V8.82c0-1.699-1.402-3.076-3.132-3.076H27.301c-6.921 0-12.532 5.51-12.532 12.307v3.658c0 1.653.272 3.296.804 4.865l.522 1.536c.16.47.24.963.24 1.46v.789h31.33v-.79c0-.496.08-.989.24-1.46l.522-1.535a15.15 15.15 0 0 0 .804-4.865z"></path>
                        <path fill="#694B4B" d="M22.154 11.994c0 3.451 2.809 6.25 6.274 6.25h.87l.419 12.115h17.149v-.79c0-.496.08-.988.238-1.46l.514-1.535c.525-1.57.792-3.212.792-4.865V8.82a3.082 3.082 0 0 0-3.089-3.076H28.43c-3.466 0-6.275 2.798-6.275 6.25z"></path>
                        <path fill="#E6AF78" d="M22.154 42.667h18.05v13.949h-18.05z"></path>
                        <path fill="#D29B6E" d="M22.154 50.094c2.702 1.537 5.767 2.419 9.025 2.419 3.259 0 6.324-.882 9.026-2.42v-7.426H22.154v7.427z"></path>
                        <path d="M32 56.745l-4.84 4.978a1.491 1.491 0 0 1-2.283-.16l-5.02-6.8 1.313-2.846c.388-.84 1.398-1.147 2.168-.66L32 56.746zm0 0l4.84 4.978a1.492 1.492 0 0 0 2.283-.16l5.02-6.8-1.313-2.846c-.388-.84-1.398-1.147-2.168-.66L32 56.746z" fill="#B3B3B3"></path>
                        <path fill="#F0C087" d="M32 47.59c-8.61 0-15.59-7-15.59-15.635V30.39l2.595-1.734a4.694 4.694 0 0 0 2.082-3.903v-5.307s12.472-4.69 21.826 3.127v2.18c0 1.568.781 3.033 2.083 3.903l2.594 1.734v1.564c0 8.635-6.98 15.635-15.59 15.635z"></path>
                        <path fill="#B3B3B3" d="M7.51 59.897c-1.108 1.139-1.766 2.655-1.766 4.282v11.308h9.846v-5.252a6.15 6.15 0 0 0-1.923-4.443L7.51 59.897z"></path>
                        <path fill="#E6AF78" d="M28.394 23.227c3.358-.428 9.237-.674 14.273 1.555v-2.189c-9.267-7.85-21.623-3.14-21.623-3.14v5.33a4.732 4.732 0 0 1-2.064 3.919l-2.57 1.742v1.57c0 8.028 5.93 14.637 13.579 15.576a15.772 15.772 0 0 1-4.312-10.866V26.346c0-1.591 1.164-2.921 2.717-3.12z"></path>
                        <path fill="#000" d="M54.374 56.463l-8.48-3.054a1.43 1.43 0 0 0-.396-1.103l-2.71-2.82v-4.734c.286-.233.569-.473.842-.727 3.419-3.174 5.38-7.655 5.38-12.293v-3.78a16.52 16.52 0 0 0 1.555-7.004V5.543c0-.795-.651-1.44-1.455-1.44H27.334c-7.664 0-13.899 6.175-13.899 13.764v3.081c0 2.425.524 4.78 1.556 7.004v3.252a17.536 17.536 0 0 0 6.222 13.437v4.845l-2.71 2.82a1.43 1.43 0 0 0-.397 1.103l-8.95 3.223a7.655 7.655 0 0 0-1.799.933l-2.084 2.19a7.533 7.533 0 0 0-1.17 4.022v11.09c0 .795.65 1.44 1.454 1.44.804 0 1.455-.645 1.455-1.44v-11.09c0-1.977 1.261-3.76 3.138-4.437l9.437-3.398 3.928 5.836a3.004 3.004 0 0 0 2.508 1.328c.795 0 1.557-.31 2.126-.873l2.396-2.374v15.008c0 .795.652 1.44 1.455 1.44s1.455-.645 1.455-1.44V59.859l2.396 2.374a3.012 3.012 0 0 0 2.426.858 3.004 3.004 0 0 0 2.208-1.313l3.928-5.836 9.437 3.399c1.877.676 3.138 2.459 3.138 4.437v11.089c0 .796.651 1.44 1.455 1.44.803 0 1.454-.644 1.454-1.44v-11.09a7.578 7.578 0 0 0-2.151-5.27l-3.372-2.044zM17.9 31.204V27.63c0-.217-.05-.431-.144-.627a13.71 13.71 0 0 1-1.411-6.055v-3.08c0-6.002 4.93-10.884 10.989-10.884h20.321v13.964a13.71 13.71 0 0 1-1.41 6.055 1.43 1.43 0 0 0-.145.627v4.102c0 3.902-1.584 7.52-4.46 10.19-.359.334-.731.646-1.116.937-2.72 2.044-6.02 3.028-9.465 2.807C23.68 45.193 17.9 38.841 17.9 31.204zm12.97 17.338c.384.024.765.036 1.145.036a16.98 16.98 0 0 0 7.863-1.908v2.63L32 54.635 24.122 49.3v-2.689a16.499 16.499 0 0 0 6.749 1.93zm-4.779 11.653c-.01.01-.033.033-.08.028a.093.093 0 0 1-.075-.044l-4.524-6.721 1.456-1.515 6.864 4.646-3.64 3.606zm11.973-.015a.093.093 0 0 1-.074.043c-.047.006-.07-.018-.081-.028l-3.64-3.605 6.863-4.647 1.456 1.515-4.524 6.722z"></path>
                    </g>
                </g>
                <path fill="#EFE5CC" d="M11 99h63v1H11z"></path>
                <g fill="#CEC2A5" fill-rule="nonzero">
                    <path d="M53.952 101c-.49 0-.973-.165-1.354-.482-.61-.507-.84-1.306-.586-2.033a5 5 0 0 0 .26-1.309c-1.304 1.846-2.96 3.3-4.903 3.7-1.352.28-3.389.172-5.409-1.925-3.369-3.496-1.071-7.418.606-10.281 1.978-3.377 1.922-3.913.854-4.571-.823-.507-2.229-.187-3.263.171-6.515 2.256-15.41 11.527-16.156 13.932-.316 1.016-1.45 1.6-2.53 1.304-1.083-.297-1.704-1.362-1.389-2.378 1.216-3.916 11.283-13.9 18.664-16.456 2.785-.965 5.112-.89 6.913.22 2.002 1.235 2.866 3.002 2.498 5.111-.268 1.533-1.156 3.05-2.014 4.515-2.318 3.957-2.119 4.861-1.156 5.86.855.887 1.346.786 1.507.753 1.226-.253 3.19-2.6 4.353-6.09.24-.72.908-1.242 1.706-1.33.8-.09 1.578.269 1.992.916.163.256 1.007 1.636 1.488 3.549.601-1.082 1.118-2.306 1.58-3.496a1.994 1.994 0 0 1 1.336-1.18 2.15 2.15 0 0 1 1.806.303c.932.657 3.993 3.045 4.23 6.188.086 1.133-.174 2.824-1.903 4.447a2.135 2.135 0 0 1-2.886 0 1.836 1.836 0 0 1 0-2.711c.693-.652.742-1.147.718-1.464-.037-.49-.297-1.009-.651-1.496-1.268 2.635-2.912 4.938-5.447 6.052a2.15 2.15 0 0 1-.864.18z"></path>
                    <path d="M27.02 104c-.032 0-.064 0-.097-.002a2.006 2.006 0 0 1-1.92-2.09c.107-2.236 3.421-6.375 4.084-7.182 1.975-2.404 4.9-5.345 7.624-5.708a2.015 2.015 0 0 1 2.27 1.712 2.001 2.001 0 0 1-1.73 2.246c-.787.105-2.632 1.409-4.826 4.023-2.004 2.388-3.24 4.578-3.394 5.18A2.01 2.01 0 0 1 27.02 104z"></path>
                </g>
                <g transform="translate(84 11)">
                    <rect width="83" height="17" x="-.5" y="-.5" fill="#FFF" stroke="#EFE5CC" rx="2"></rect>
                    <text fill="#4D4D4D" font-size="12">
                        <tspan x="4" y="13">JOHN DOE</tspan>
                    </text>
                </g>
                <g transform="translate(84 83)">
                    <rect width="83" height="17" x="-.5" y="-.5" fill="#FFF" stroke="#EFE5CC" rx="2"></rect>
                    <text fill="#4D4D4D" font-size="12">
                        <tspan x="4" y="13">NEW YORK</tspan>
                    </text>
                </g>
                <g transform="translate(84 59)">
                    <rect width="25" height="17" x="-.5" y="-.5" fill="#FFF" stroke="#EFE5CC" rx="2"></rect>
                    <rect width="25" height="17" x="31.5" y="-.5" fill="#FFF" stroke="#EFE5CC" rx="2"></rect>
                    <rect width="40" height="17" x="63.5" y="-.5" fill="#FFF" stroke="#EFE5CC" rx="2"></rect>
                    <text fill="#4D4D4D" font-size="12">
                        <tspan x="4" y="13">01</tspan>
                    </text>
                    <text fill="#4D4D4D" font-size="12">
                        <tspan x="36" y="13">02</tspan>
                    </text>
                    <text fill="#4D4D4D" font-size="12">
                        <tspan x="68" y="13">1973</tspan>
                    </text>
                </g>
                <path fill="#FFF" stroke="#EFE5CC" d="M86 34.5h99a2.5 2.5 0 0 1 2.5 2.5v12a2.5 2.5 0 0 1-2.5 2.5H86a2.5 2.5 0 0 1-2.5-2.5V37a2.5 2.5 0 0 1 2.5-2.5z"></path>
                <text fill="#B3B3B3" font-size="12" transform="translate(84 35)">
                    <tspan x="4" y="13">#</tspan>
                </text>
                <text fill="#4D4D4D" font-size="12" transform="translate(84 35)">
                    <tspan x="16" y="13">111 222 333</tspan>
                </text>
            </g>
            <text fill="#32374A" font-size="11" transform="translate(15 -3)">
                <tspan x="27" y="12">Clear photo</tspan>
            </text>
            <path fill="#4D4D4D" fill-rule="nonzero" d="M16 36h-1V17.306L26.28 5H37v1H26.72L16 17.694z"></path>
            <text fill="#32374A" font-size="11" transform="translate(157 -3)">
                <tspan x="27" y="12">Full name</tspan>
            </text>
            <path fill="#4D4D4D" fill-rule="nonzero" d="M158 36h-1V17.306L168.28 5H179v1h-10.28L158 17.694z"></path>
            <text fill="#32374A" font-size="11" transform="translate(15 117)">
                <tspan x="27" y="33">Your signature</tspan>
            </text>
            <path fill="#4D4D4D" fill-rule="nonzero" d="M16 117h-1v17.694L26.28 147H37v-1H26.72L16 134.306z"></path>
            <text fill="#32374A" font-size="11" transform="translate(228 62)">
                <tspan x="36" y="12">Your</tspan>
                <tspan x="36" y="24">fingerprint</tspan>
            </text>
            <path fill="#4D4D4D" fill-rule="nonzero" d="M249.22 68l-11 12H228v-1h9.78l11-12H259v1z"></path>
            <text fill="#32374A" font-size="11" transform="translate(182 23)">
                <tspan x="27" y="12">ID number</tspan>
                <tspan x="27" y="24">/series</tspan>
            </text>
            <path fill="#4D4D4D" fill-rule="nonzero" d="M183 60h-1V41.306L193.28 29H204v1h-10.28L183 41.694z"></path>
            <text fill="#32374A" font-size="11" transform="translate(182 88)">
                <tspan x="27" y="34">Date of birth</tspan>
            </text>
            <path fill="#4D4D4D" fill-rule="nonzero" d="M183 88h-1v18.694L193.28 119H204v-1h-10.28L183 106.306z"></path>
            <g>
                <text fill="#32374A" font-size="11" transform="translate(157 116)">
                    <tspan x="27" y="34">Place of birth</tspan>
                </text>
                <path fill="#4D4D4D" fill-rule="nonzero" d="M158 116h-1v18.694L168.28 147H179v-1h-10.28L158 134.306z"></path>
            </g>
        </g>
    </symbol>
    <symbol id="pid-driver_license">
        <g fill="none" fill-rule="evenodd">
            <g transform="translate(1 21)">
                <rect width="221" height="133" x="-.5" y="-.5" fill="#F0E5C9" stroke="#CCBF9D" rx="4"></rect>
                <g transform="translate(10 11)">
                    <rect width="79" height="79" x="-.5" y="-.5" stroke="#CCBF9D" fill="white" rx="2"></rect>
                    <g mask="url(#mask-big-photo)">
                        <path fill="#C7CFE2" fill-rule="nonzero" d="M13.765 74.125a5.7 5.7 0 0 1 1.184 3.46v13.262H7.176v-9.671c0-1.166.537-2.27 1.459-2.998l5.13-4.053z"></path>
                        <path fill="#E6E6E6" fill-rule="nonzero" d="M66.044 70.868L50.294 65 39 68.857 27.706 65l-15.75 5.868C8.981 71.976 7 74.874 7 78.118V92h64V78.118c0-3.244-1.98-6.142-4.956-7.25z"></path>
                        <path fill="#B3B3B3" fill-rule="nonzero" d="M69.847 73C71.197 74.388 72 76.236 72 78.218V92H60v-6.4c0-2.032.843-3.98 2.343-5.416L69.847 73z"></path>
                        <path fill="#5A4146" fill-rule="nonzero" d="M60 26.457V10.75C60 8.679 58.29 7 56.182 7h-22.91C24.839 7 18 13.716 18 22v4.457c0 2.016.33 4.018.98 5.93l.635 1.872c.195.573.294 1.174.294 1.779V37h38.182v-.962c0-.605.1-1.206.294-1.78l.635-1.872c.65-1.911.98-3.913.98-5.929z"></path>
                        <path fill="#694B4B" fill-rule="nonzero" d="M27 14.617c0 4.207 3.424 7.617 7.647 7.617h1.059L36.217 37h20.9v-.962c0-.605.099-1.205.29-1.78l.627-1.871a18.68 18.68 0 0 0 .966-5.93V10.75A3.757 3.757 0 0 0 55.235 7H34.647C30.424 7 27 10.41 27 14.617z"></path>
                        <path fill="#E6AF78" fill-rule="nonzero" d="M27 52h22v17H27z"></path>
                        <path fill="#D29B6E" fill-rule="nonzero" d="M27 61.051C30.293 62.925 34.029 64 38 64s7.707-1.075 11-2.949V52H27v9.051z"></path>
                        <g fill="#B3B3B3" fill-rule="nonzero">
                            <path d="M39 69.158l-5.9 6.067a1.817 1.817 0 0 1-2.782-.195l-6.117-8.289 1.6-3.467c.472-1.023 1.704-1.398 2.642-.804L39 69.158zM39 69.158l5.9 6.067a1.817 1.817 0 0 0 2.782-.195l6.117-8.289-1.6-3.467c-.472-1.023-1.704-1.398-2.642-.804L39 69.158z"></path>
                        </g>
                        <path fill="#F0C087" fill-rule="nonzero" d="M39 58c-10.494 0-19-8.531-19-19.055v-1.906l3.162-2.114A5.721 5.721 0 0 0 25.7 30.17V23.7s15.2-5.717 26.6 3.811v2.656c0 1.911.952 3.697 2.538 4.757L58 37.04v1.906C58 49.469 49.493 58 39 58z"></path>
                        <path fill="#B3B3B3" fill-rule="nonzero" d="M9.153 73C7.803 74.388 7 76.236 7 78.218V92h12v-6.4c0-2.032-.843-3.98-2.343-5.416L9.153 73z"></path>
                        <path fill="#E6AF78" fill-rule="nonzero" d="M34.605 28.308c4.093-.522 11.258-.822 17.395 1.895v-2.668c-11.294-9.568-26.353-3.827-26.353-3.827v6.496c0 1.92-.944 3.711-2.515 4.776L20 37.103v1.914c0 9.784 7.228 17.84 16.549 18.983a19.222 19.222 0 0 1-5.255-13.242V32.109c0-1.94 1.419-3.56 3.311-3.801z"></path>
                        <path fill="#000" fill-rule="nonzero" d="M66.269 68.814l-10.336-3.722a1.744 1.744 0 0 0-.483-1.345l-3.303-3.436v-5.769c.35-.285.694-.577 1.027-.887 4.167-3.868 6.556-9.328 6.556-14.982v-4.607a20.133 20.133 0 0 0 1.896-8.536V6.756c0-.97-.794-1.756-1.773-1.756h-26.54c-9.34 0-16.939 7.526-16.939 16.776v3.755c0 2.955.638 5.824 1.896 8.535v3.964a21.372 21.372 0 0 0 7.583 16.377v5.904l-3.303 3.437c-.355.37-.52.861-.483 1.344L11.16 69.02a9.33 9.33 0 0 0-2.192 1.138l-2.541 2.668A9.181 9.181 0 0 0 5 77.73v13.515C5 92.214 5.794 93 6.773 93c.98 0 1.773-.787 1.773-1.756V77.729c0-2.41 1.537-4.584 3.824-5.408l11.502-4.142 4.787 7.113a3.661 3.661 0 0 0 3.057 1.618c.969 0 1.897-.377 2.59-1.064l2.921-2.893v18.29c0 .97.794 1.757 1.773 1.757.98 0 1.773-.786 1.773-1.756V72.953l2.92 2.893a3.67 3.67 0 0 0 2.957 1.047 3.661 3.661 0 0 0 2.69-1.6l4.789-7.113 11.5 4.142c2.288.823 3.825 2.997 3.825 5.407v13.515c0 .97.794 1.756 1.773 1.756.98 0 1.773-.786 1.773-1.756V77.73c0-2.441-.98-4.731-2.622-6.424l-4.11-2.491zM21.816 38.03v-4.356c0-.265-.06-.526-.176-.764a16.71 16.71 0 0 1-1.72-7.38v-3.754c0-7.314 6.008-13.264 13.393-13.264H58.08V25.53c0 2.557-.578 5.04-1.72 7.38-.115.237-.176.498-.176.763v5c0 4.755-1.93 9.165-5.435 12.419-.437.406-.891.787-1.36 1.141-3.315 2.491-7.336 3.691-11.536 3.422-8.993-.577-16.037-8.32-16.037-17.626zm15.807 21.13c.468.03.932.045 1.395.045 3.39 0 6.653-.803 9.583-2.326v3.207l-9.6 6.5-9.602-6.5v-3.278a20.108 20.108 0 0 0 8.224 2.352zM31.8 73.362c-.012.012-.041.041-.099.035a.113.113 0 0 1-.09-.053l-5.514-8.192 1.774-1.847 8.365 5.663-4.436 4.394zm14.591-.018a.113.113 0 0 1-.09.053c-.058.008-.086-.023-.098-.034l-4.437-4.394 8.365-5.663 1.775 1.846-5.515 8.192z"></path>
                    </g>
                </g>
                <path fill="#CCBF9D" d="M11 123h78v1H11z"></path>
                <g fill="#1A4CC2" fill-rule="nonzero">
                    <path d="M62.233 124a2.404 2.404 0 0 1-1.564-.574 2.235 2.235 0 0 1-.678-2.42c.173-.51.267-1.033.3-1.558-1.506 2.197-3.42 3.928-5.665 4.405-1.562.332-3.916.204-6.25-2.292-3.893-4.162-1.238-8.83.7-12.24 2.286-4.02 2.222-4.658.987-5.441-.95-.604-2.575-.223-3.77.203-7.529 2.686-17.807 13.723-18.67 16.586-.364 1.21-1.674 1.905-2.924 1.552s-1.969-1.62-1.604-2.83c1.405-4.663 13.038-16.55 21.567-19.591 3.218-1.149 5.907-1.06 7.989.263 2.313 1.469 3.311 3.573 2.886 6.084-.31 1.825-1.336 3.63-2.328 5.375-2.678 4.71-2.447 5.786-1.335 6.975.988 1.057 1.555.936 1.741.897 1.417-.301 3.686-3.096 5.03-7.25.277-.858 1.05-1.478 1.972-1.584a2.383 2.383 0 0 1 2.301 1.092c.19.304 1.164 1.946 1.72 4.224.695-1.288 1.292-2.745 1.825-4.161.256-.68.829-1.2 1.545-1.406a2.423 2.423 0 0 1 2.086.362c1.078.782 4.615 3.625 4.89 7.366.099 1.349-.203 3.361-2.2 5.294a2.414 2.414 0 0 1-3.336 0 2.23 2.23 0 0 1 0-3.228c.802-.775.858-1.365.83-1.742-.043-.584-.342-1.201-.752-1.782-1.466 3.137-3.365 5.88-6.294 7.206-.32.144-.66.215-.999.215z"></path>
                    <path d="M31.31 127c-.038 0-.075-.001-.112-.003-1.273-.06-2.256-1.12-2.195-2.368.123-2.534 3.91-7.225 4.668-8.14 2.257-2.724 5.6-6.057 8.713-6.468 1.264-.167 2.424.701 2.595 1.94.17 1.239-.715 2.378-1.978 2.545-.899.12-3.008 1.597-5.515 4.56-2.29 2.706-3.703 5.188-3.88 5.87-.104 1.167-1.104 2.064-2.296 2.064z"></path>
                </g>
                <g transform="translate(98 11)">
                    <rect width="113" height="17" x="-.5" y="-.5" fill="#FFF" stroke="#CCBF9D" rx="2"></rect>
                    <text fill="#4D4D4D" font-size="12">
                        <tspan x="4" y="13">JOHN DOE</tspan>
                    </text>
                </g>
                <g transform="translate(98 83)">
                    <rect width="113" height="17" x="-.5" y="-.5" fill="#FFF" stroke="#CCBF9D" rx="2"></rect>
                    <text fill="#4D4D4D" font-size="12">
                        <tspan x="4" y="13">NEW YORK</tspan>
                    </text>
                </g>
                <g transform="translate(98 59)">
                    <rect width="25" height="17" x="-.5" y="-.5" fill="#FFF" stroke="#CCBF9D" rx="2"></rect>
                    <rect width="25" height="17" x="31.5" y="-.5" fill="#FFF" stroke="#CCBF9D" rx="2"></rect>
                    <rect width="49" height="17" x="63.5" y="-.5" fill="#FFF" stroke="#CCBF9D" rx="2"></rect>
                    <text fill="#4D4D4D" font-size="12">
                        <tspan x="4" y="13">01</tspan>
                    </text>
                    <text fill="#4D4D4D" font-size="12">
                        <tspan x="36" y="13">02</tspan>
                    </text>
                    <text fill="#4D4D4D" font-size="12">
                        <tspan x="68" y="13">1973</tspan>
                    </text>
                </g>
                <g transform="translate(98 35)">
                    <rect width="113" height="17" x="-.5" y="-.5" fill="#FFF" stroke="#CCBF9D" rx="2"></rect>
                    <text fill="#B3B3B3" font-size="12">
                        <tspan x="4" y="13">#</tspan>
                    </text>
                    <text fill="#4D4D4D" font-size="12">
                        <tspan x="16" y="13">111 222 333</tspan>
                    </text>
                </g>
            </g>
            <text fill="#32374A" font-size="11" transform="translate(15 -3)">
                <tspan x="27" y="12">Clear photo</tspan>
            </text>
            <path fill="#4D4D4D" fill-rule="nonzero" d="M16 36h-1V17.306L26.28 5H37v1H26.72L16 17.694z"></path>
            <text fill="#32374A" font-size="11" transform="translate(15 141)">
                <tspan x="27" y="33">Your signature</tspan>
            </text>
            <path fill="#4D4D4D" fill-rule="nonzero" d="M16 141h-1v17.694L26.28 171H37v-1H26.72L16 158.306z"></path>
            <text fill="#32374A" font-size="11" transform="translate(204 20)">
                <tspan x="36" y="13">Full name</tspan>
            </text>
            <path fill="#4D4D4D" fill-rule="nonzero" d="M225.22 29l-11 12H204v-1h9.78l11-12H235v1z"></path>
            <g>
                <text fill="#32374A" font-size="11" transform="translate(204 44)">
                    <tspan x="36" y="12">ID number</tspan>
                    <tspan x="36" y="24">/series</tspan>
                </text>
                <path fill="#4D4D4D" fill-rule="nonzero" d="M225.22 52l-11 12H204v-1h9.78l11-12H235v1z"></path>
            </g>
            <g>
                <text fill="#32374A" font-size="11" transform="translate(204 79)">
                    <tspan x="36" y="13">Date of birth</tspan>
                </text>
                <path fill="#4D4D4D" d="M204 88h31v1h-31z"></path>
            </g>
            <g>
                <text fill="#32374A" font-size="11" transform="translate(204 112)">
                    <tspan x="36" y="18">Place of birth</tspan>
                </text>
                <path fill="#4D4D4D" fill-rule="nonzero" d="M225.22 124l-11-12H204v1h9.78l11 12H235v-1z"></path>
            </g>
        </g>
    </symbol>
    <symbol id="pid-residence_permit">
        <g id="Group 36">
            <path id="Rectangle 18" d="M3 30.5046C1.62185 30.5046 0.504644 31.6219 0.504644 33V139C0.504644 140.378 1.62185 141.495 3 141.495H199C200.378 141.495 201.495 140.378 201.495 139V33C201.495 31.6219 200.378 30.5046 199 30.5046H3Z" fill="#F0E5C9" stroke="#CCBF9D" stroke-width="0.990712"></path>
            <g id="Group 48">
                <rect id="Rectangle 20" x="11.5046" y="41.6072" width="64.3963" height="64.6731" rx="2.49536" fill="white" stroke="#98B3D4" stroke-width="0.990712"></rect>
                <g mask="url(#mask-residence)">
                    <g id="team">
                        <path id="Shape" d="M21.5891 103.891C22.4672 103.194 23.8025 103.364 24.0443 104.459C24.115 104.779 24.1521 105.109 24.1521 105.446V114.273C24.1521 115.378 23.2567 116.273 22.1521 116.273H19.8333C18.7287 116.273 17.8333 115.378 17.8333 114.273V108.378C17.8333 107.426 18.2696 106.525 19.019 105.93L21.5891 103.891Z" fill="#C7CFE2"></path>
                        <path id="Shape_2" d="M65.6863 99.9615L53.5552 95.4222C53.1211 95.2597 52.6439 95.2531 52.2054 95.4035L44.3516 98.0974C43.9311 98.2417 43.4744 98.2417 43.0538 98.0974L35.2 95.4035C34.7615 95.2531 34.2844 95.2597 33.8502 95.4222L21.7192 99.9615C19.3003 100.867 17.6902 103.232 17.6902 105.881V115.215C17.6902 116.319 18.5856 117.215 19.6902 117.215H67.7153C68.8198 117.215 69.7153 116.319 69.7153 115.215V105.881C69.7153 103.232 68.1052 100.867 65.6863 99.9615Z" fill="#E6E6E6"></path>
                        <path id="Shape_3" d="M67.3421 103.083C68.1362 102.32 69.4368 102.336 69.9186 103.326C70.3118 104.135 70.5281 105.031 70.5281 105.963V115.215C70.5281 116.32 69.6327 117.215 68.5281 117.215H62.7734C61.6689 117.215 60.7734 116.32 60.7734 115.215V111.989C60.7734 110.331 61.4585 108.74 62.6781 107.568L67.3421 103.083Z" fill="#B3B3B3"></path>
                        <path id="Shape_4" d="M60.7736 63.7031V50.879C60.7736 49.1882 59.3839 47.8174 57.6698 47.8174H39.0471C32.1906 47.8174 26.6321 53.3005 26.6321 60.064V63.7031C26.6321 65.3485 26.901 66.983 27.4285 68.5439L27.945 70.0726C28.1032 70.5409 28.1839 71.0313 28.1839 71.525C28.1839 71.9589 28.5357 72.3106 28.9696 72.3106H58.4361C58.87 72.3106 59.2217 71.9589 59.2217 71.525C59.2217 71.0313 59.3024 70.5409 59.4606 70.0726L59.9771 68.5439C60.5047 66.9832 60.7736 65.3485 60.7736 63.7031Z" fill="#5A4146"></path>
                        <path id="Shape_5" d="M33.948 54.0364C33.948 57.471 36.7311 60.2554 40.1643 60.2554C40.6444 60.2554 41.0381 60.6358 41.0546 61.1156L41.374 70.3795C41.4111 71.4566 42.295 72.3106 43.3728 72.3106H57.6448C58.0787 72.3106 58.4305 71.9589 58.4305 71.525C58.4305 71.0313 58.5101 70.5411 58.666 70.0727L59.1753 68.544C59.6954 66.983 59.9606 65.3485 59.9606 63.7032V50.879C59.9606 49.188 58.5904 47.8174 56.9003 47.8174H40.1645C36.7311 47.8174 33.948 50.6017 33.948 54.0364Z" fill="#694B4B"></path>
                        <path id="Rectangle-path" d="M33.948 86.5571C33.948 85.4526 34.8434 84.5571 35.948 84.5571H49.8316C50.9362 84.5571 51.8316 85.4526 51.8316 86.5571V96.4366C51.8316 97.5412 50.9362 98.4366 49.8316 98.4366H35.948C34.8434 98.4366 33.948 97.5412 33.948 96.4366V86.5571Z" fill="#E6AF78"></path>
                        <path id="Shape_6" d="M41.6335 97.2495C42.7019 97.9293 42.8776 99.4184 41.9967 100.328L38.9069 103.519C38.2623 104.185 37.1968 104.11 36.6457 103.36L32.3703 97.5421C31.9399 96.9563 31.8611 96.1832 32.1646 95.5227L32.9736 93.7621C33.3574 92.9268 34.3586 92.6207 35.1209 93.1058L41.6335 97.2495Z" fill="#B3B3B3"></path>
                        <path id="Shape_7" d="M45.7722 97.2495C44.7038 97.9293 44.5281 99.4184 45.409 100.328L48.4988 103.519C49.1434 104.185 50.2089 104.11 50.7601 103.36L55.0354 97.5421C55.4659 96.9563 55.5446 96.1832 55.2411 95.5227L54.4322 93.7621C54.0483 92.9268 53.0472 92.6207 52.2848 93.1058L45.7722 97.2495Z" fill="#B3B3B3"></path>
                        <path id="Shape_8" d="M43.7027 89.4559L43.7027 89.4559C35.1726 89.4559 28.2578 82.4907 28.2578 73.8985V73.4089C28.2578 72.7425 28.5897 72.12 29.1429 71.7485L30.8281 70.6169C32.1171 69.7513 32.8914 68.294 32.8914 66.7334V62.835C32.8914 62.0031 33.4032 61.2628 34.2053 61.0418C37.5166 60.1296 46.4623 58.4286 53.7839 63.9812C54.2549 64.3383 54.5143 64.9053 54.5143 65.4963C54.5143 65.8582 54.5143 66.2915 54.5143 66.7326C54.5143 68.2932 55.2885 69.7511 56.5776 70.6169L58.2627 71.7485C58.8159 72.12 59.1477 72.7425 59.1477 73.4088V73.8985C59.1475 82.4905 52.2327 89.4559 43.7027 89.4559Z" fill="#F0C087"></path>
                        <path id="Shape_9" d="M20.8762 103.083C20.0821 102.32 18.7815 102.336 18.2998 103.326C17.9065 104.135 17.6902 105.031 17.6902 105.963V115.215C17.6902 116.32 18.5856 117.215 19.6902 117.215H25.4449C26.5495 117.215 27.4449 116.32 27.4449 115.215V111.989C27.4449 110.331 26.7598 108.74 25.5403 107.568L20.8762 103.083Z" fill="#B3B3B3"></path>
                        <path id="Shape_10" d="M40.1302 65.2138C43.1158 64.8316 48.1117 64.5954 52.7103 66.153C53.4562 66.4057 54.2704 65.5886 54.2704 64.801C54.2704 64.482 54.1284 64.4602 53.8799 64.2601C46.5697 58.3714 37.4885 60.1143 34.1541 61.0448C33.3559 61.2676 32.8482 62.0057 32.8482 62.8343V66.7618C32.8482 68.329 32.0812 69.7923 30.804 70.6617L29.1324 71.7997C28.5853 72.1721 28.2578 72.7911 28.2578 73.453V73.9573C28.2578 81.9456 34.133 88.5219 41.7102 89.4559C41.7103 89.4559 41.7104 89.4557 41.7103 89.4556C39.07 86.6483 37.4388 82.8439 37.4388 78.6445V68.3175C37.4386 66.7341 38.5917 65.4109 40.1302 65.2138Z" fill="#E6AF78"></path>
                        <path id="Shape_11" fill-rule="evenodd" clip-rule="evenodd" d="M66.0407 98.3891C65.9268 98.3198 65.8063 98.262 65.6809 98.2167L58.597 95.6544C57.9296 95.413 57.5656 94.6611 57.075 94.1484L54.9452 91.9227C54.589 91.5505 54.3902 91.0552 54.3902 90.54V87.5795C54.3902 86.9802 54.6651 86.4193 55.1083 86.016C55.1474 85.9804 55.1863 85.9446 55.225 85.9085C58.6119 82.7507 60.5543 78.2924 60.5543 73.6767V70.3549C60.5543 70.0652 60.6189 69.7797 60.7336 69.5138C61.6376 67.419 62.0953 65.2137 62.0953 62.9465V47.6182C62.0953 46.8265 61.45 46.1846 60.6541 46.1846H39.0799C31.4874 46.1846 25.3107 52.3289 25.3107 59.881V62.9469C25.3107 65.214 25.7684 67.4194 26.6723 69.5142C26.7871 69.7801 26.8516 70.0656 26.8516 70.3553V73.152C26.8516 78.1748 28.956 82.7312 32.3229 85.9038C32.7515 86.3077 33.0157 86.8619 33.0157 87.4508V90.5402C33.0157 91.0553 32.8169 91.5507 32.4607 91.9229L30.331 94.1486C29.8404 94.6613 29.4763 95.4132 28.809 95.6546L21.0707 98.4535C20.4926 98.6626 19.9513 98.9384 19.4538 99.2693C19.3432 99.3429 19.243 99.4306 19.1516 99.527L17.3601 101.417C17.2693 101.512 17.1875 101.616 17.1202 101.73C16.4452 102.869 16.0645 104.186 16.0645 105.563V116.597C16.0645 117.389 16.7097 118.031 17.5057 118.031C18.3016 118.031 18.9469 117.389 18.9469 116.597V105.563C18.9469 103.595 20.1962 101.821 22.0558 101.148L29.9341 98.2987C30.7983 97.9861 31.7642 98.3027 32.2758 99.066L35.2969 103.574C35.7944 104.316 36.5917 104.793 37.4843 104.881C37.5839 104.89 37.6828 104.895 37.7816 104.895C38.5691 104.895 39.3233 104.587 39.8872 104.026C40.7654 103.152 42.2616 103.775 42.2616 105.013V116.598C42.2616 117.389 42.9068 118.031 43.7028 118.031C44.4987 118.031 45.144 117.389 45.144 116.598V105.013C45.144 103.775 46.6402 103.152 47.5184 104.026C48.082 104.587 48.8363 104.895 49.624 104.895C49.7226 104.895 49.8217 104.89 49.9211 104.881C50.8139 104.793 51.6112 104.317 52.1087 103.574L55.13 99.0663C55.6416 98.303 56.6075 97.9865 57.4716 98.2991L65.3498 101.149C67.2092 101.821 68.4586 103.596 68.4586 105.564V116.598C68.4586 117.39 69.1039 118.031 69.8999 118.031C70.6958 118.031 71.3411 117.39 71.3411 116.598V105.564C71.3411 103.659 70.6145 101.868 69.385 100.506C69.2706 100.38 69.1356 100.273 68.9897 100.185L66.0407 98.3891ZM29.7341 73.1518V69.5949C29.7341 69.3791 29.6851 69.1659 29.5907 68.9715C28.6633 67.0612 28.1931 65.0342 28.1931 62.9469V59.881C28.1931 53.9097 33.077 49.0518 39.0798 49.0518H57.2128C58.3173 49.0518 59.2128 49.9473 59.2128 51.0518V62.9469C59.2128 65.0342 58.7425 67.0612 57.8152 68.9715C57.7208 69.1659 57.6718 69.3791 57.6718 69.5949V73.6769C57.6718 77.5593 56.1028 81.1604 53.2537 83.8168C52.898 84.1482 52.5289 84.4591 52.1472 84.7486C49.4535 86.7823 46.1844 87.7619 42.7704 87.5419C35.4602 87.0711 29.7341 80.7502 29.7341 73.1518ZM43.7178 90.4396C43.3413 90.4396 42.9637 90.4275 42.5838 90.4031C40.8873 90.2938 39.2622 89.9237 37.7431 89.3339C36.8864 89.0012 35.8982 89.597 35.8982 90.5161C35.8982 90.9184 36.0973 91.2947 36.4301 91.5209L42.5784 95.7014C43.2571 96.1628 44.1488 96.1628 44.8275 95.7014L50.9818 91.5168C51.3108 91.2932 51.5078 90.9211 51.5078 90.5233C51.5078 89.6209 50.5436 89.032 49.6998 89.3519C47.8122 90.0675 45.7944 90.4396 43.7178 90.4396ZM37.849 101.998L37.8488 101.999C37.8387 102.009 37.8154 102.032 37.7687 102.027C37.7218 102.022 37.7034 101.995 37.6955 101.983L33.779 96.1393C33.4486 95.6463 33.5054 94.9898 33.9158 94.5609C34.3428 94.1145 35.0299 94.042 35.5407 94.3893L39.4513 97.0482C40.4906 97.7549 40.6282 99.2337 39.7372 100.12L37.849 101.998ZM49.6372 102.027C49.6841 102.022 49.7025 101.995 49.7104 101.983L53.627 96.1396C53.9575 95.6465 53.9006 94.9899 53.4902 94.561C53.0631 94.1147 52.3761 94.0422 51.8652 94.3895L47.9546 97.0486C46.9153 97.7552 46.7777 99.2341 47.6687 100.12L49.5569 101.999L49.5583 102C49.5691 102.01 49.5922 102.033 49.6372 102.027Z" fill="black"></path>
                    </g>
                </g>
            </g>
            <g id="Group 50">
                <rect id="Rectangle 21" x="12" y="129.906" width="62.4149" height="0.995026" rx="0.497513" fill="#EFE5CC"></rect>
                <g id="Group 49">
                    <path id="Shape_12" d="M54.5528 131.896C54.0679 131.896 53.5889 131.731 53.2114 131.416C52.6077 130.911 52.3794 130.117 52.6306 129.393C52.7545 129.037 52.3179 128.856 52.071 129.142C50.9283 130.465 49.5707 131.454 48.0311 131.773C46.6913 132.051 44.6736 131.944 42.6726 129.858C39.3352 126.379 41.6112 122.476 43.2727 119.627C45.2324 116.266 45.1772 115.734 44.1185 115.078C43.3037 114.574 41.9107 114.893 40.8862 115.249C34.4317 117.493 25.6198 126.719 24.8804 129.112C24.5676 130.123 23.4446 130.704 22.3729 130.409C21.3007 130.114 20.6851 129.054 20.9978 128.043C22.2026 124.146 32.1763 114.211 39.4879 111.669C42.2475 110.709 44.5523 110.783 46.3374 111.888C48.3207 113.116 49.1763 114.875 48.8116 116.973C48.5465 118.499 47.6669 120.007 46.8162 121.466C44.52 125.404 44.7177 126.303 45.6712 127.297C46.5181 128.179 47.0045 128.079 47.164 128.046C48.3789 127.794 50.3242 125.459 51.4766 121.986C51.7143 121.269 52.3763 120.751 53.1671 120.662C53.9589 120.573 54.7305 120.931 55.1403 121.575C55.8732 122.726 57.6874 122.9 58.1796 121.627C58.3991 121.06 58.8898 120.624 59.5034 120.452C60.1171 120.28 60.781 120.392 61.2926 120.755C62.2163 121.409 65.2488 123.785 65.4843 126.912C65.5692 128.039 65.3108 129.721 63.5985 131.337C62.8088 132.082 61.5283 132.082 60.7388 131.337C59.9492 130.592 59.949 129.384 60.7388 128.639C61.4258 127.991 61.4737 127.498 61.4501 127.183C61.3947 126.444 60.4131 126.506 60.0438 127.149C58.8968 129.145 57.4421 130.819 55.4088 131.716C55.1354 131.837 54.8431 131.896 54.5528 131.896Z" fill="#1A4CC2"></path>
                    <path id="Shape_13" d="M27.872 134.881C27.8397 134.881 27.8075 134.88 27.775 134.879C26.6717 134.826 25.8195 133.896 25.8722 132.799C25.9791 130.574 29.262 126.456 29.9188 125.653C31.8755 123.262 34.7741 120.335 37.4718 119.974C38.5678 119.827 39.5738 120.59 39.7217 121.677C39.8695 122.765 39.1015 123.765 38.0066 123.912C37.2278 124.016 35.3996 125.314 33.226 127.915C31.3838 130.119 30.1972 132.155 29.9129 132.915C29.875 133.016 29.8605 133.124 29.8421 133.23C29.6798 134.176 28.8509 134.881 27.872 134.881Z" fill="#1A4CC2"></path>
                </g>
            </g>
            <g id="Group 7">
                <rect id="Rectangle 20 Copy" x="90.5046" y="41.5046" width="102.991" height="16.9907" rx="2.49536" fill="white" stroke="#CCBF9D" stroke-width="0.990712"></rect>
                <text id="JOHN DOE" fill="#4D4D4D" xml:space="preserve" style="white-space: pre" font-size="11" letter-spacing="0px">
                <tspan x="94.9629" y="53.9483">JOHN DOE</tspan>
            </text>
            </g>
            <g id="Group 24">
                <rect id="Rectangle 20 Copy 3" x="90.5046" y="68.5735" width="24.7678" height="16.9113" rx="2.49536" fill="white" stroke="#CCBF9D" stroke-width="0.990712"></rect>
                <rect id="Rectangle 20 Copy 4" x="122.207" y="68.5735" width="24.7678" height="16.9113" rx="2.49536" fill="white" stroke="#CCBF9D" stroke-width="0.990712"></rect>
                <rect id="Rectangle 20 Copy 5" x="153.91" y="68.5735" width="39.6285" height="16.9113" rx="2.49536" fill="white" stroke="#CCBF9D" stroke-width="0.990712"></rect>
                <text id="01" fill="#4D4D4D" xml:space="preserve" style="white-space: pre" font-size="11" letter-spacing="0px">
                <tspan x="94.9629" y="81.707">01</tspan>
            </text>
                <text id="02" fill="#4D4D4D" xml:space="preserve" style="white-space: pre" font-size="11" letter-spacing="0px">
                <tspan x="126.666" y="81.707">02</tspan>
            </text>
                <text id="1973" fill="#4D4D4D" xml:space="preserve" style="white-space: pre" font-size="11" letter-spacing="0px">
                <tspan x="158.368" y="81.707">1973</tspan>
            </text>
            </g>
            <g id="Group 51">
                <rect id="Rectangle 20 Copy 3_2" x="90.5046" y="90.5735" width="24.7678" height="16.9113" rx="2.49536" fill="white" stroke="#CCBF9D" stroke-width="0.990712"></rect>
                <rect id="Rectangle 20 Copy 4_2" x="122.207" y="90.5735" width="24.7678" height="16.9113" rx="2.49536" fill="white" stroke="#CCBF9D" stroke-width="0.990712"></rect>
                <rect id="Rectangle 20 Copy 5_2" x="153.91" y="90.5735" width="39.6285" height="16.9113" rx="2.49536" fill="white" stroke="#CCBF9D" stroke-width="0.990712"></rect>
                <path id="Vector 3 (Stroke)" fill-rule="evenodd" clip-rule="evenodd" d="M157.5 106H158.5V149.793L170.854 162.146L170.146 162.854L157.5 150.207V106Z" fill="#4D4D4D"></path>
                <text id="01_2" fill="#4D4D4D" xml:space="preserve" style="white-space: pre" font-size="11" letter-spacing="0px">
                <tspan x="94.9629" y="103.707">01</tspan>
            </text>
                <text id="02_2" fill="#4D4D4D" xml:space="preserve" style="white-space: pre" font-size="11" letter-spacing="0px">
                <tspan x="126.666" y="103.707">02</tspan>
            </text>
                <text id="1973_2" fill="#4D4D4D" xml:space="preserve" style="white-space: pre" font-size="11" letter-spacing="0px">
                <tspan x="158.368" y="103.707">2025</tspan>
            </text>
            </g>
            <text id="Full name" fill="#32374A" xml:space="preserve" style="white-space: pre" font-size="11" letter-spacing="0px">
            <tspan x="211.749" y="24.4427">Full name</tspan>
        </text>
            <path id="Path 3_2" d="M185.991 50.6247C185.991 50.8983 185.769 51.1201 185.495 51.1201C185.222 51.1201 185 50.8983 185 50.6247V33.2938C185 32.795 185.186 32.3141 185.523 31.9456L195.58 20.9257C195.959 20.5105 196.496 20.2739 197.058 20.2739H206.298C206.573 20.2739 206.796 20.4967 206.796 20.7714C206.796 21.0462 206.573 21.269 206.298 21.269H197.494C196.931 21.269 196.395 21.5055 196.016 21.9207L186.513 32.3327C186.177 32.7011 185.991 33.182 185.991 33.6809V50.6247Z" fill="#4D4D4D"></path>
        </g>
        <g id="Group 43 Copy">
            <text id="Your signature" fill="#32374A" xml:space="preserve" style="white-space: pre" font-size="11" letter-spacing="0px">
            <tspan x="51.7957" y="164.414">Your signature</tspan>
        </text>
            <path id="Path 3" d="M25.9907 132.495C25.9907 132.221 25.7689 131.999 25.4954 131.999C25.2218 131.999 25 132.221 25 132.495V148.831C25 149.33 25.1865 149.81 25.5228 150.179L35.5804 161.199C35.9594 161.614 36.4955 161.851 37.0577 161.851H46.2981C46.5729 161.851 46.7957 161.628 46.7957 161.353C46.7957 161.078 46.5729 160.856 46.2981 160.856H37.4935C36.9314 160.856 36.3952 160.619 36.0162 160.204L26.5135 149.792C26.1772 149.423 25.9907 148.942 25.9907 148.444V132.495Z" fill="#4D4D4D"></path>
        </g>
        <g id="Group 43 Copy 5">
            <text id="Birthdate" fill="#32374A" xml:space="preserve" style="white-space: pre" font-size="11" letter-spacing="0px">
            <tspan x="173" y="164.443">Document expiration date</tspan>
        </text>
        </g>
        <g id="Group 43 Copy 4">
            <text id="Birthdate_2" fill="#32374A" xml:space="preserve" style="white-space: pre" font-size="11" letter-spacing="0px">
            <tspan x="224.791" y="93.4427">Date of birth</tspan>
        </text>
            <path id="Path 3 Copy_2" d="M192.495 73.9907C192.222 73.9907 192 73.7689 192 73.4954C192 73.2218 192.222 73 192.495 73L209.826 73C210.325 73 210.806 73.1865 211.175 73.5228L222.744 84.0823C222.812 84.144 222.871 84.2148 222.919 84.2926L223.431 85.1232C223.612 85.4169 223.401 85.7957 223.056 85.7957C222.926 85.7957 222.803 85.7384 222.719 85.6392L221.851 84.6111L210.787 74.5135C210.419 74.1772 209.938 73.9907 209.439 73.9907L192.495 73.9907Z" fill="#4D4D4D"></path>
        </g>
        <g id="Group 170">
            <text id="Distinct visible pho" fill="#32374A" xml:space="preserve" style="white-space: pre" font-size="11" letter-spacing="0px">
            <tspan x="41" y="11.4427">Clear photo</tspan>
        </text>
            <path id="Path 3_3" d="M14.9907 35.3508C14.9907 35.6244 14.7689 35.8462 14.4954 35.8462C14.2218 35.8462 14 35.6244 14 35.3508V18.0199C14 17.521 14.1865 17.0402 14.5228 16.6717L24.5804 5.65175C24.9594 5.23656 25.4955 5 26.0577 5H35.2981C35.5729 5 35.7957 5.22275 35.7957 5.49752C35.7957 5.77229 35.5729 5.99504 35.2981 5.99504H26.4935C25.9314 5.99504 25.3952 6.2316 25.0162 6.64679L15.5135 17.0587C15.1772 17.4272 14.9907 17.9081 14.9907 18.407V35.3508Z" fill="#4D4D4D"></path>
        </g>
    </symbol>

</svg>