<svg width="437" height="220" viewBox="0 0 437 220" fill="none" xmlns="http://www.w3.org/2000/svg">
<path d="M436.52 89H323.34C323.34 89 334.57 58.35 351.84 58.35C369.11 58.35 374.52 79.5 374.52 79.5C374.52 79.5 386.17 68 395.74 68C405.31 68 413.64 83.19 413.64 83.19C413.64 83.19 427.16 75 436.52 89Z" fill="#EBEBEB"/>
<path d="M133.191 17.12H80.3008C80.3008 17.12 92.1208 0 101.431 0C110.741 0 113.491 11.42 113.491 11.42C113.491 11.42 120.061 6.09 126.151 7C132.241 7.91 133.191 17.12 133.191 17.12Z" fill="#EBEBEB"/>
<path d="M418.501 140.41H365.611C365.611 140.41 377.431 123.29 386.741 123.29C396.051 123.29 398.811 134.7 398.811 134.7C398.811 134.7 405.381 129.38 411.471 130.33C417.561 131.28 418.501 140.41 418.501 140.41Z" fill="#EBEBEB"/>
<path d="M103.98 60H0.980469C0.980469 60 15.0805 28.5 30.1805 26.53C45.2805 24.56 52.4405 50 52.4405 50C52.4405 50 62.1705 41 69.8305 41C77.4905 41 83.3905 52.81 83.3905 52.81C83.3905 52.81 98.7005 44.72 103.98 60Z" fill="#EBEBEB"/>
<path d="M218.891 103.61C218.758 103.61 218.631 103.557 218.537 103.464C218.443 103.37 218.391 103.243 218.391 103.11V89C218.391 88.8674 218.443 88.7402 218.537 88.6464C218.631 88.5527 218.758 88.5 218.891 88.5C219.022 88.5026 219.148 88.5561 219.241 88.6493C219.335 88.7425 219.388 88.8682 219.391 89V103.07C219.396 103.139 219.387 103.208 219.365 103.274C219.342 103.339 219.306 103.399 219.259 103.45C219.212 103.5 219.155 103.541 219.092 103.568C219.028 103.596 218.96 103.61 218.891 103.61Z" fill="#263238"/>
<path d="M193.42 110.35C193.333 110.349 193.247 110.326 193.172 110.282C193.096 110.238 193.034 110.176 192.99 110.1L185.99 97.91C185.928 97.7941 185.913 97.6586 185.949 97.5318C185.984 97.4051 186.067 97.297 186.18 97.23C186.294 97.1644 186.43 97.1465 186.557 97.1802C186.685 97.2139 186.793 97.2965 186.86 97.41L193.86 109.6C193.894 109.656 193.916 109.719 193.925 109.784C193.935 109.849 193.931 109.915 193.914 109.978C193.897 110.042 193.868 110.101 193.828 110.153C193.788 110.205 193.737 110.248 193.68 110.28C193.603 110.329 193.512 110.354 193.42 110.35Z" fill="#263238"/>
<path d="M186.111 210.67C186.024 210.67 185.938 210.65 185.861 210.61C185.747 210.541 185.663 210.431 185.628 210.303C185.593 210.174 185.608 210.037 185.671 209.92L192.671 197.74C192.703 197.683 192.746 197.633 192.798 197.592C192.85 197.552 192.909 197.523 192.973 197.506C193.036 197.489 193.102 197.485 193.167 197.495C193.232 197.504 193.294 197.526 193.351 197.56C193.466 197.625 193.551 197.733 193.586 197.861C193.622 197.988 193.605 198.125 193.541 198.24L186.541 210.42C186.497 210.496 186.434 210.558 186.359 210.602C186.283 210.646 186.198 210.669 186.111 210.67Z" fill="#263238"/>
<path d="M218.561 219.46C218.429 219.457 218.303 219.404 218.21 219.311C218.117 219.218 218.063 219.092 218.061 218.96V204.89C218.061 204.757 218.113 204.63 218.207 204.536C218.301 204.443 218.428 204.39 218.561 204.39C218.693 204.39 218.82 204.443 218.914 204.536C219.008 204.63 219.061 204.757 219.061 204.89V219C219.05 219.126 218.993 219.243 218.901 219.328C218.808 219.413 218.687 219.46 218.561 219.46Z" fill="#263238"/>
<path d="M251.06 210.83C250.973 210.829 250.887 210.806 250.812 210.762C250.737 210.718 250.674 210.656 250.63 210.58L243.63 198.4C243.579 198.287 243.572 198.16 243.61 198.042C243.647 197.924 243.728 197.824 243.835 197.762C243.942 197.7 244.068 197.679 244.189 197.705C244.31 197.73 244.418 197.8 244.49 197.9L251.49 210.08C251.553 210.197 251.568 210.335 251.533 210.463C251.498 210.591 251.414 210.701 251.3 210.77C251.226 210.808 251.144 210.829 251.06 210.83Z" fill="#263238"/>
<path d="M244.311 110.51C244.222 110.512 244.135 110.487 244.061 110.44C244.004 110.408 243.953 110.365 243.913 110.313C243.873 110.261 243.844 110.201 243.827 110.138C243.81 110.075 243.806 110.009 243.815 109.944C243.825 109.879 243.847 109.816 243.881 109.76L250.881 97.58C250.948 97.4667 251.056 97.3837 251.183 97.3483C251.309 97.3129 251.445 97.3278 251.561 97.39C251.675 97.4588 251.758 97.5687 251.793 97.6971C251.829 97.8255 251.813 97.9625 251.751 98.08L244.751 110.26C244.706 110.337 244.642 110.401 244.565 110.445C244.487 110.489 244.4 110.511 244.311 110.51Z" fill="#263238"/>
</svg>
