<svg width="48" height="48" viewBox="0 0 48 48" fill="none" xmlns="http://www.w3.org/2000/svg">
<path fill-rule="evenodd" clip-rule="evenodd" d="M42 24C42 33.9411 33.9411 42 24 42C14.0589 42 6 33.9411 6 24C6 14.0589 14.0589 6 24 6C33.9411 6 42 14.0589 42 24ZM10.1352 24.2341C10.1349 24.2341 10.1348 24.234 10.1348 24.234L10.1348 24.234C10.1348 24.234 10.1349 24.234 10.1352 24.2341ZM10.1352 24.2341C10.1823 24.2513 13.9365 25.6163 17.9104 24.7306C23.0518 23.5847 21.4894 17.8335 18.2792 17.4582C17.6407 17.3836 11.8587 17.4066 11.8587 17.4066V18.0326H13.3849V23.9562H15.1083V17.8336H16.7168C16.7168 17.8336 20.3782 18.5888 19.2741 22.2401C18.1527 25.9487 10.2012 24.2483 10.1352 24.2341ZM13.3752 29.2283V25.5531L13.3751 25.553L13.385 25.5192H15.0872V29.3075C15.0872 29.8845 15.6547 29.9489 15.6547 29.9489H16.7549V30.6238H11.7813V30.0104H12.6596C13.3651 30.0104 13.3752 29.2283 13.3752 29.2283ZM19.7337 30.6543H19.7319L19.7319 30.6542L19.7337 30.7052V30.6543ZM24.7413 30.6543H19.7337V29.9318H21.1276C22.001 29.9318 21.9606 29.1361 21.9606 29.1361C21.9606 29.1361 22.0807 18.8857 22.0807 18.4204C22.0807 17.955 21.7744 17.9888 21.7744 17.9888H20.8914V17.355H23.6726L28.758 27.8854L33.8752 17.2801H36.9835V18.0276H35.9683C35.5369 18.0276 35.5297 18.2701 35.5297 18.2701V29.3679C35.5297 29.9032 36.0172 29.8554 36.0172 29.8554H37.1865V30.5548H32.1769L32.1862 29.9664C32.1862 29.9664 32.3501 29.943 33.1229 29.943C33.8957 29.943 33.7587 29.1873 33.7587 29.1873L33.8787 20.0438L28.4169 30.6427L22.8335 19.8368V29.087C22.8335 29.622 23.3013 29.8862 23.3013 29.8862H24.7413V30.6543Z" fill="#E33E23"/>
</svg>
