<svg width="391" height="155" viewBox="0 0 391 155" fill="none" xmlns="http://www.w3.org/2000/svg">
<path fill-rule="evenodd" clip-rule="evenodd" d="M307.113 155C317.847 128.184 314.6 98.2418 300.756 75.2452L155.835 95.2955L294.715 66.3746C236.183 -6.55841 122.258 41.8172 133.24 133.9L307.113 155Z" fill="#F0F3FA"/>
<rect x="313.777" y="34" width="4.23397" height="4.23397" transform="rotate(41 313.777 34)" fill="#27B357"/>
<rect x="127.879" y="31" width="8.96252" height="8.96252" transform="rotate(41 127.879 31)" fill="#0158FF"/>
<rect x="41.3516" y="82" width="4" height="4" transform="rotate(41 41.3516 82)" fill="#FF4D25"/>
<rect x="354.625" y="48" width="4" height="4" transform="rotate(41 354.625 48)" fill="#FF4D25"/>
<rect x="182.625" y="9" width="4" height="4" transform="rotate(41 182.625 9)" fill="#FF4D25"/>
<rect x="362.312" y="82" width="2" height="2" transform="rotate(41 362.312 82)" fill="#D57BFF"/>
<rect x="385.625" y="120" width="4" height="4" transform="rotate(41 385.625 120)" fill="#D57BFF"/>
<rect x="72.2383" y="103" width="7.98507" height="7.98507" transform="rotate(41 72.2383 103)" fill="#D57BFF"/>
<rect x="102.969" y="97" width="3" height="3" transform="rotate(41 102.969 97)" fill="#27B357"/>
<path d="M322.876 110.316C329.205 109.519 342.691 111.22 346.001 124.401" stroke="#D57BFF" stroke-width="2"/>
<path d="M22.6758 80.6825C18.6252 83.7347 8.65043 87.8932 1.15613 80.1101" stroke="#D57BFF" stroke-width="2"/>
<path d="M72 66.0527C76.7059 64.3986 87.2941 63.4723 92 73" stroke="#62E1FF" stroke-width="2"/>
<path d="M368.636 93.1343C372.341 89.7944 381.754 84.8591 389.769 91.8372" stroke="#FF4D25" stroke-width="2"/>
<path d="M288 2.05274C292.706 0.398626 303.294 -0.527676 308 9" stroke="#27B357" stroke-width="2"/>
</svg>
