<svg version="1.1" id="Layer_1" xmlns="http://www.w3.org/2000/svg" x="0" y="0" width="317" height="745" style="enable-background:new 0 0 317 745" xml:space="preserve"><style>.st0,.st1{fill:none;stroke:#b8c8cc;stroke-miterlimit:10}.st1{fill:#f7f7f7;stroke-dasharray:10,6,1}.st2,.st3,.st4{fill:#fff;stroke-miterlimit:10}.st2{stroke:#b8c8cc;stroke-dasharray:10,6,1}.st3,.st4{stroke:#636a76;stroke-linecap:round;stroke-linejoin:round}.st4{fill:none}.st5{fill:#e2e2e2}.st6{fill:#f7f7f7}.st7{fill:#f1f1f1}.st8{fill:#c1e8f9}.st9{fill:#eefbff}.st10{fill:#a7d9ea}.st11{fill:#636a76}.st13{fill:#fff}.st14{fill:none;stroke:#636a76;stroke-miterlimit:10}</style><circle class="st0" cx="127.4" cy="111" r="96.5"/><circle class="st1" cx="127.4" cy="111" r="68.5"/><circle class="st2" cx="127.4" cy="111" r="40.5"/><path class="st3" d="m25.8 100-1.9 2.9h-9.4v36.4h18.7l1.9-2.8h9.4V100z"/><path class="st3" d="M28.4 120.6H17.9l1.2-5.1c.2-.9 1-1.5 1.8-1.5h4.5c.9 0 1.6.6 1.8 1.5l1.2 5.1z"/><circle class="st3" cx="23.1" cy="110.1" r="2.8"/><path class="st4" d="M39.7 120.6v-8.4M36 120.6v-12.1M32.2 120.6V116M18.6 132.3h21.8M18.6 128.6h21.8M18.6 124.8h21.8"/><ellipse class="st3" cx="221.2" cy="136.2" rx="13" ry="7.1"/><ellipse class="st3" cx="221.2" cy="131.4" rx="13" ry="7.1"/><ellipse class="st3" cx="221.2" cy="126.7" rx="13" ry="7.1"/><ellipse class="st3" cx="221.2" cy="122" rx="13" ry="7.1"/><circle class="st3" cx="230.7" cy="139" r="5.6"/><path class="st4" d="M230.7 137.1v4M228.9 138.6l1.8-1.8 1.9 1.8M171.8 81.4l3.3-10.9M175.1 87.6l10.8 3.4M175.1 83.6l10-5.3"/><path class="st3" d="m156 99.7-1.8 1c-.3.2-.8.1-.9-.3l-4.3-8.1c-.2-.3-.1-.8.3-.9l1.8-1c.3-.2.8-.1.9.3l4.3 8.1c.2.3.1.7-.3.9zM176.7 99.1l-17.7-.4c-.6 0-1.2-.4-1.5-.9l-4-7.5c-.3-.6-.3-1.3.1-1.8l9.6-14.8c.7-1.1 2.3-1 3 .2l12 22.7c.6 1.2-.2 2.6-1.5 2.5z"/><path class="st5" d="M180.9 136.2H74.2c-2.7 0-4.9 2.2-4.9 4.8v62.8c0 2.7 2.2 4.8 4.9 4.8h41.1l-9.2 9.1c-.1.1 0 .4.2.4h42.5c.2 0 .3-.3.2-.4l-9.2-9.1H181c2.7 0 4.9-2.2 4.9-4.8V141c-.1-2.7-2.3-4.8-5-4.8z"/><path class="st6" d="M145.9 213.7h-43.7l9.7-9.6h24.3z"/><path class="st7" d="m141.6 209.5-5.4-5.4h-24.3l-5.4 5.4z"/><path class="st4" d="M145.9 213.7h-43.7l9.7-9.6h24.3z"/><path class="st8" d="M177.4 204.2H70.7c-2.7 0-4.9-2.2-4.9-4.8v-62.8c0-2.7 2.2-4.8 4.9-4.8h106.7c2.7 0 4.9 2.2 4.9 4.8v62.8c0 2.7-2.2 4.8-4.9 4.8z"/><path class="st4" d="M177.4 204.2H70.7c-2.7 0-4.9-2.2-4.9-4.8v-62.8c0-2.7 2.2-4.8 4.9-4.8h106.7c2.7 0 4.9 2.2 4.9 4.8v62.8c0 2.7-2.2 4.8-4.9 4.8z"/><path class="st9" d="M171.7 142.2H76.3c-.5 0-1-.4-1-1v-1c0-.5.4-1 1-1h95.4c.5 0 1 .4 1 1v1c0 .6-.4 1-1 1zM102.7 173.3h70v23h-70z"/><circle class="st10" cx="115.4" cy="184.8" r="7"/><path class="st11" d="M115.4 178.3c3.6 0 6.5 2.9 6.5 6.5s-2.9 6.5-6.5 6.5-6.5-2.9-6.5-6.5 2.9-6.5 6.5-6.5m0-1c-4.1 0-7.5 3.4-7.5 7.5s3.4 7.5 7.5 7.5 7.5-3.4 7.5-7.5-3.3-7.5-7.5-7.5z"/><path class="st4" d="M129.4 182.8h38.3M129.4 186.8h4.3M136.2 186.8h16.9"/><path class="st9" d="M102.7 146.3h70v23h-70z"/><circle class="st10" cx="115.4" cy="157.8" r="7"/><path class="st11" d="M115.4 151.3c3.6 0 6.5 2.9 6.5 6.5s-2.9 6.5-6.5 6.5-6.5-2.9-6.5-6.5 2.9-6.5 6.5-6.5m0-1c-4.1 0-7.5 3.4-7.5 7.5s3.4 7.5 7.5 7.5 7.5-3.4 7.5-7.5-3.3-7.5-7.5-7.5z"/><path class="st4" d="M129.4 155.8h38.3M129.4 159.8h4.3M136.2 159.8h16.9"/><path class="st9" d="M75.3 146.3h21v50h-21z"/><path class="st4" d="M79.2 151.1h13.2M79.2 159.1h13.2M79.2 167.1h13.2M79.2 175.1h13.2M79.2 183.1h13.2M79.2 191.1h13.2M89.9 35.7l12.1 4.7-15 11.2 18.2 6.4"/><circle class="st3" cx="89.9" cy="35.7" r="3.8"/><circle class="st3" cx="102" cy="40.4" r="4.7"/><circle class="st3" cx="87" cy="51.6" r="6.5"/><circle class="st3" cx="105.2" cy="58" r="5.3"/><path class="st4" d="m40.4 139.4 21.6 12M90.5 60.6l10.9 64.2M153.4 103.5l-6.6 21.3M207.1 140.4l-22 20.7"/><path class="st11" d="m97.2 97.5-7.3-5.2 12.5-2.1zM145.4 108.6l12 4.4-8.2 3.8M192.6 145.5l8.5 9.4-9-.4M46.1 149.1l6.8-10.7 2 8.8"/><path d="M209.8 330.1h-3.6c-1.8-10-5.3-19.5-10.1-28.1l2.7-2.3c1.4-1.1 1.5-3.2.4-4.5l-17.4-20.8c-1.1-1.4-3.2-1.5-4.5-.4l-2.5 2.1c-11.7-9.8-25.8-16.8-41.4-19.8v-2.7c0-1.8-1.4-3.2-3.2-3.2h-27.1c-1.8 0-3.2 1.4-3.2 3.2v2.3c-10.4 1.8-20.2 5.3-29.1 10.2l-1.3-1.5c-1.1-1.4-3.2-1.5-4.5-.4l-20.8 17.4c-1.4 1.1-1.5 3.2-.4 4.5l1.1 1.3c-10.1 12-17.2 26.6-20.1 42.6h-1.4c-1.8 0-3.2 1.4-3.2 3.2v27.1c0 1.8 1.4 3.2 3.2 3.2h1.4c1.9 10.5 5.6 20.4 10.8 29.3l-1.2 1c-1.4 1.1-1.5 3.2-.4 4.5l17.4 20.8c1.1 1.4 3.2 1.5 4.5.4l1.4-1.2c12 9.8 26.6 16.6 42.5 19.3v2.3c0 1.8 1.4 3.2 3.2 3.2h27.1c1.8 0 3.2-1.4 3.2-3.2v-2.7c10.1-2 19.7-5.7 28.3-10.7l2 2.4c1.1 1.4 3.2 1.5 4.5.4l20.8-17.4c1.4-1.1 1.5-3.2.4-4.5l-2.2-2.6c9.5-11.7 16.2-25.8 19-41.3h3.6c1.8 0 3.2-1.4 3.2-3.2v-27.1c.1-1.6-1.3-3.1-3.1-3.1z" style="fill:#fff;stroke:#b8c8cc;stroke-linecap:round;stroke-linejoin:round;stroke-miterlimit:10"/><circle class="st1" cx="116.5" cy="346.9" r="68.5"/><circle class="st2" cx="116.5" cy="346.9" r="40.5"/><path class="st5" d="M170 373.1H63.3c-2.7 0-4.9 2.2-4.9 4.8v62.8c0 2.7 2.2 4.8 4.9 4.8h41.1l-9.2 9.1c-.1.1 0 .4.2.4h42.5c.2 0 .3-.3.2-.4l-9.2-9.1H170c2.7 0 4.9-2.2 4.9-4.8v-62.8c0-2.6-2.2-4.8-4.9-4.8z"/><path class="st6" d="M134.9 450.7H91.3l9.7-9.7h24.2z"/><path class="st7" d="m130.7 446.4-5.5-5.4H101l-5.5 5.4z"/><path class="st4" d="M134.9 450.7H91.3l9.7-9.7h24.2z"/><path class="st8" d="M166.5 441.1H59.7c-2.7 0-4.9-2.2-4.9-4.8v-62.8c0-2.7 2.2-4.8 4.9-4.8h106.7c2.7 0 4.9 2.2 4.9 4.8v62.8c0 2.7-2.2 4.8-4.8 4.8z"/><path class="st4" d="M166.5 441.1H59.7c-2.7 0-4.9-2.2-4.9-4.8v-62.8c0-2.7 2.2-4.8 4.9-4.8h106.7c2.7 0 4.9 2.2 4.9 4.8v62.8c0 2.7-2.2 4.8-4.8 4.8z"/><path class="st9" d="M159.5 430.3H66.6c-.9 0-1.6-.7-1.6-1.5v-43.3c0-.9.7-1.5 1.6-1.5h92.9c.9 0 1.6.7 1.6 1.5v43.3c-.1.8-.8 1.5-1.6 1.5zM160.8 381.2H65.4c-.5 0-1-.4-1-1v-1c0-.5.4-1 1-1h95.4c.5 0 1 .4 1 1v1c0 .5-.5 1-1 1z"/><path class="st10" d="M105.4 396.8h47.1v3.9h-47.1z"/><path class="st11" d="M152 397.3v2.9h-46.1v-2.9H152m1-1h-48.1v4.9H153v-4.9z"/><path class="st10" d="M105.4 406.1h11.5v3.9h-11.5z"/><path class="st11" d="M116.4 406.6v2.9h-10.5v-2.9h10.5m1-1h-12.5v4.9h12.5v-4.9z"/><path class="st10" d="M121.7 406.1h21.2v3.9h-21.2z"/><path class="st11" d="M142.3 406.6v2.9h-20.2v-2.9h20.2m1-1h-22.2v4.9h22.2v-4.9z"/><circle class="st10" cx="85.2" cy="396.7" r="6.3"/><path class="st11" d="M85.2 390.9c3.2 0 5.8 2.6 5.8 5.8 0 3.2-2.6 5.8-5.8 5.8s-5.8-2.6-5.8-5.8c0-3.2 2.6-5.8 5.8-5.8m0-1c-3.8 0-6.8 3-6.8 6.8s3.1 6.8 6.8 6.8 6.8-3.1 6.8-6.8-3-6.8-6.8-6.8z"/><path class="st10" d="M85.2 422.8c-4 0-8-.7-11.6-2.1-.1-.7-.2-1.5-.2-2.2 0-6.5 5.3-11.8 11.8-11.8S97 412 97 418.5c0 .7-.1 1.5-.2 2.2-3.5 1.4-7.5 2.1-11.6 2.1z"/><path class="st11" d="M85.2 407.3c6.2 0 11.3 5.1 11.3 11.3 0 .6-.1 1.2-.2 1.8-3.4 1.3-7.2 1.9-11.1 1.9s-7.7-.7-11.1-1.9c-.1-.6-.2-1.2-.2-1.8.1-6.3 5.1-11.3 11.3-11.3m0-1c-6.8 0-12.3 5.5-12.3 12.3 0 .9.1 1.7.3 2.6 3.5 1.4 7.6 2.2 12 2.2s8.4-.8 12-2.2c.2-.8.3-1.7.3-2.6 0-6.8-5.5-12.3-12.3-12.3z"/><path class="st10" d="M105.4 414.1h11.5v3.9h-11.5z"/><path class="st11" d="M116.4 414.6v2.9h-10.5v-2.9h10.5m1-1h-12.5v4.9h12.5v-4.9z"/><path class="st10" d="M121.7 414.1h21.2v3.9h-21.2z"/><path class="st11" d="M142.3 414.6v2.9h-20.2v-2.9h20.2m1-1h-22.2v4.9h22.2v-4.9z"/><path class="st3" d="M57.3 343.4s-3 3.7-.2 6.5 10.7-1.7 7.7-5.3-10.5 3-7.3 8.2c.5.8 1.2 1.4 1.8 1.8M53.4 338.4c-3.8 1.9-4.7.3-6.7-3.4-2-3.7-2.9-5.3.7-7.5l-2.5-4.6c-6.2 3.6-6.3 8.4-2.8 14.7 3.4 6.3 7.6 8.8 13.9 5.5l-2.6-4.7z"/><path class="st3" d="m50.7 327.7-2.7 1c-.5.2-1 0-1.3-.4l-2.8-5.2c-.2-.4-.1-1 .3-1.3l2.3-1.7c.5-.4 1.3-.3 1.5.3l3.2 5.8c.4.6.1 1.3-.5 1.5zM58.8 343.2l-2.7 1c-.5.2-1 0-1.3-.4l-2.8-5.2c-.2-.4-.1-1 .3-1.3l2.3-1.7c.5-.4 1.3-.3 1.5.3l3.2 5.8c.4.6.1 1.3-.5 1.5z"/><path class="st13" d="M160.6 274.9h3.4v7.6h-3.4z"/><path class="st11" d="M163.5 275.4v6.6h-2.3v-6.6h2.3m1-1h-4.3v8.6h4.3v-8.6z"/><path class="st13" d="M168.2 264.2h3.4v18.4h-3.4z"/><path class="st11" d="M171.1 264.7V282h-2.3v-17.4h2.3m1-.9h-4.3V283h4.3v-19.3z"/><path class="st13" d="M175.8 268.5h3.3v14.1h-3.3z"/><path class="st11" d="M178.7 269v13h-2.3v-13h2.3m1-1h-4.3v15h4.3v-15z"/><path class="st13" d="M187.4 293.2c-5.7 0-10.4-4.6-10.4-10.2 0-5.5 4.4-10 9.9-10.2V283c0 .3.2.5.5.5h10.4c-.4 5.4-4.9 9.7-10.4 9.7z"/><path class="st11" d="M186.4 273.2v9.7c0 .6.4 1 1 1h9.8c-.5 4.9-4.7 8.8-9.8 8.8-5.4 0-9.9-4.4-9.9-9.8 0-5 3.9-9.2 8.9-9.7m1-1c-6 0-10.9 4.8-10.9 10.8 0 5.9 4.9 10.8 10.9 10.8s10.9-4.8 10.9-10.8h-10.9v-10.8z"/><path class="st13" d="M189 281.3v-9.7c5.3.2 9.6 4.5 9.9 9.7H189z"/><path class="st11" d="M189.5 272.1c4.6.5 8.3 4.1 8.8 8.7h-8.8v-8.7m-1-1.1v10.8h10.9c0-5.9-4.9-10.8-10.9-10.8z"/><path class="st13" d="M168.5 362.7c-.3 0-.6-.2-.6-.6v-22.4c0-.3.2-.5.6-.5h32.9c.3 0 .6.2.6.5v22.4c0 .3-.2.6-.6.6h-32.9z"/><path class="st11" d="M201.4 339.7c.1 0 .1 0 0 0l.1 22.4s0 .1-.1.1h-32.9s-.1 0-.1-.1v-22.4h33m0-1h-32.9c-.6 0-1.1.5-1.1 1v22.4c0 .6.5 1.1 1.1 1.1h32.9c.6 0 1.1-.5 1.1-1.1v-22.4c0-.6-.5-1-1.1-1z"/><path class="st13" d="M168.5 362.7c-.3 0-.6-.2-.6-.6V361l17-17 17 17v1.1c0 .3-.2.6-.6.6h-32.8z"/><path class="st11" d="m185 344.7 16.5 16.5v.9s0 .1-.1.1h-32.9s-.1 0-.1-.1v-.9l16.6-16.5m0-1.4-17.5 17.5v1.4c0 .6.5 1.1 1.1 1.1h32.9c.6 0 1.1-.5 1.1-1.1v-1.4L185 343.3z"/><path class="st13" d="M168 340.1v-.4c0-.3.2-.5.6-.5h32.9c.3 0 .6.2.6.5v.4l-17 15.4-17.1-15.4z"/><path class="st11" d="M201.4 339.7c.1 0 .1 0 0 0l.1.2-16.5 14.9-16.5-14.9v-.2h32.9m0-1h-32.9c-.6 0-1.1.5-1.1 1v.6l17.5 15.8 17.5-15.8v-.6c.1-.6-.4-1-1-1z"/><path class="st3" d="M59 278.9v-2.3l-8.4-8.5H37.8v30H59v-6.3"/><path class="st3" d="M59 276.6h-8.4v-8.5zM58.4 290.5v-3.4c-8.6-.2-10.3 3.3-10.3 3.3 4.6-7.6 10.3-6.7 10.3-6.7v-3.4l5 5.2-5 5z"/><path class="st13" d="m111 312.5 13.1-19.1c.2-.3.6-.5 1-.5.2 0 .5.1.7.2l4.2 2.9c.3.2.4.5.5.8.1.3 0 .6-.2.9l-13.1 19.1-6.2-4.3z"/><path class="st11" d="M125.1 293.4c.1 0 .3 0 .4.1l4.2 2.9c.2.1.3.3.3.4 0 .2 0 .4-.1.5L117 316l-5.3-3.6 12.8-18.7c.1-.2.4-.3.6-.3m0-1c-.5 0-1.1.3-1.4.7l-13.4 19.5 7 4.8 13.4-19.5c.5-.8.3-1.8-.4-2.3l-4.2-2.9c-.3-.2-.7-.3-1-.3z"/><path class="st13" d="m110.6 313.5 5.8 3.9-8 5.6z"/><path class="st11" d="m111 314.3 4.6 3.1-6.4 4.4 1.8-7.5m-.7-1.7-2.6 10.8c0 .2.1.3.2.3h.1l9.2-6.3-6.9-4.8z"/><path class="st13" d="m109 320.5 1.5 1-2.1 1.5z"/><path class="st11" d="m109.3 321.3.3.2-.4.3.1-.5m-.7-1.6-.9 3.8c0 .2.1.3.2.3h.1l3.2-2.2-2.6-1.9z"/><path class="st4" d="M107.4 324.4h27.1M122.1 320.8h14.8"/><circle class="st1" cx="116.5" cy="584.1" r="66.4"/><circle class="st2" cx="116.5" cy="584.1" r="39.3"/><circle class="st0" cx="116.5" cy="584.1" r="93.6"/><path class="st3" d="M25.8 620.9v-9c0-3.7 3-6.6 6.6-6.6 3.7 0 6.6 3 6.6 6.6v9"/><path class="st3" d="M39.9 635.7H25c-1.9 0-3.5-1.6-3.5-3.5v-9.1c0-1.9 1.6-3.5 3.5-3.5h14.9c1.9 0 3.5 1.6 3.5 3.5v9.1c0 1.9-1.5 3.5-3.5 3.5z"/><path class="st4" d="M21.5 623.8h21.9"/><path class="st3" d="M33.9 629c0-1.1-.9-2-2-2s-2 .9-2 2c0 .9.6 1.6 1.4 1.9v1.9c0 .3.3.6.6.6s.6-.3.6-.6v-1.9c.8-.3 1.4-1.1 1.4-1.9zM55.3 558.6l6.5-4.5-12.6-18.3c-.5-.7-1.5-.9-2.2-.4l-3.9 2.7c-.7.5-.9 1.5-.4 2.2l12.6 18.3z"/><path class="st3" d="m55.3 558.6 8.6 6c.2.1.4 0 .4-.3l-2.5-10.2-6.5 4.5z"/><path class="st3" d="m60.9 562.5 2.5-1.7.9 3.6c.1.2-.2.4-.4.3l-3-2.2z"/><path class="st4" d="M64.7 565.2H39.2M50.8 561.8H36.9"/><path class="st3" d="M154.2 561.5V552l-6.9-6.9H131v32.7h12.8"/><path class="st3" d="m154.2 552-6.9.1v-7z"/><circle class="st3" cx="154.2" cy="573.2" r="7.7"/><path class="st4" d="M154.2 576.6v-7.4M157.5 573.7l-3.3 3.4-3.4-3.4"/><path class="st3" d="M135.2 549.2h7.2v7.2h-7.2z"/><path class="st4" d="M135.2 559.6h13M135.2 562.9h5.5M135.2 566.3h5.5M135.2 572.5h5.5"/><path class="st3" d="M143.9 566.9v-4.3h3.3"/><path class="st4" d="M135.2 569.6h5.5"/><path class="st3" d="M144.7 497.3h19.6v21.1h-19.6zM150.6 492.3v-3c0-.5.4-1 .8-1h6.3c.4 0 .8.4.8 1v3M165.4 497.3h-21.8c-.5 0-.9-.4-.9-.9v-3.2c0-.5.4-.9.9-.9h21.8c.5 0 .9.4.9.9v3.2c0 .5-.4.9-.9.9z"/><path class="st4" d="M149.7 500.1v18.6M158 500.2v15M196.4 612.3l-5-5M207.7 612.3l4.9-5M202 611.1v-7M207.7 632.7l4.9 4.9M196.4 632.7l-5 4.9M202 633.8v7"/><path class="st3" d="M202 613.8c-8.2 0-15.1 3.7-17.4 8.7 2.3 5.1 9.2 8.7 17.4 8.7s15.1-3.7 17.4-8.7c-2.2-5.1-9.2-8.7-17.4-8.7z"/><circle class="st3" cx="202" cy="622.5" r="8.7"/><circle class="st3" cx="202" cy="622.5" r="3.5"/><path class="st5" d="M138.1 628.5c0 10.4-12.3 24.1-18.8 23.7-7.1 0-18.8-13.4-18.8-23.7s8.4-18.8 18.8-18.8 18.8 8.4 18.8 18.8zM146.5 664.8c-1.3-5.7-6.4-9.8-12.2-9.8h-5l-6.7 18.2H116l-6.7-18.2h-5c-5.9 0-11 4.1-12.2 9.8l-7.8 27h70.2l-8-27z"/><path class="st5" d="M120 660.7h-1.4L115 655h8.5zM118.6 660.7h1.4l3.5 26.8-4.2 5.7-4.3-5.7z"/><path class="st10" d="M134.5 623.9c0 10.4-12.3 24.1-18.8 23.7-7.1 0-18.8-13.4-18.8-23.7s8.4-18.8 18.8-18.8 18.8 8.5 18.8 18.8z"/><path class="st8" d="M143 660.2c-1.3-5.7-6.4-9.8-12.2-9.8h-5l-6.7 18.2h-6.6l-6.7-18.2h-5c-5.9 0-11 4.1-12.2 9.8l-7.8 27H151l-8-27zM134.5 625c0 9.9-12.3 23.1-18.8 22.7-7.1 0-18.8-12.8-18.8-22.7 12.1 2.4 13.1-7.7 23-4.8 8.6 2.4 14.6-7.8 14.6 4.8z"/><path class="st4" d="M134.5 623.9c0 10.4-12.3 24.1-18.8 23.7-7.1 0-18.8-13.4-18.8-23.7s8.4-18.8 18.8-18.8 18.8 8.5 18.8 18.8z"/><path class="st14" d="M134.5 625c0 9.9-12.3 23.1-18.8 22.7-7.1 0-18.8-12.8-18.8-22.7 12.1 2.4 13.1-7.7 23-4.8 8.6 2.4 14.6-7.8 14.6 4.8z"/><path class="st4" d="M133.1 673.1v14.1M98.3 673.1v14.1"/><path class="st14" d="M143 660.2c-1.3-5.7-6.4-9.8-12.2-9.8h-5l-6.7 18.2h-6.6l-6.7-18.2h-5c-5.9 0-11 4.1-12.2 9.8l-7.8 27H151l-8-27z"/><path class="st9" d="m114.7 656.6-4.1-6.6h10.3l-4.2 6.6z"/><path class="st11" d="m120 650.5-3.5 5.7H115l-3.5-5.7h8.5m1.8-1H109.7l1 1.5 3.5 5.7.3.5h2.6l.3-.5 3.5-5.7.9-1.5z"/><path class="st9" d="m111 683.1 3.6-27.5h2.3l3.6 27.5-4.8 6.4z"/><path class="st11" d="M116.4 656.1 120 683l-4.2 5.7-4.2-5.7 3.5-26.9h1.3m.9-1H114.1l-.1.9-3.5 26.9-.1.4.2.3 4.2 5.7.8 1.1.8-1.1 4.2-5.7.2-.3-.1-.4-3.5-26.9.1-.9z"/></svg>