<svg width="542" height="310" fill="none" xmlns="http://www.w3.org/2000/svg"><path d="M387.798 149.328c-1.953-17.277 26.269-23.854 39.761-30.218 13.493-6.364 25.661-10.551 44.625 1.288s63.044-16.774 61.276 35.172c-.414 12.159-13.751 46.035-26.819 30.781-13.068-15.254-61.249.77-82.637-4.071-21.389-4.841-34.253-15.676-36.206-32.952ZM83.832 182.942c-2.963-26.213 39.858-36.193 60.329-45.849 20.472-9.655 38.934-16.009 67.707 1.955 28.774 17.963 95.655-25.451 92.973 53.365-.628 18.449-20.864 69.847-40.691 46.703-19.828-23.145-92.931 1.168-125.383-6.177s-51.972-23.784-54.935-49.997ZM.798 37.328C-1.155 20.05 27.067 13.474 40.559 7.11 54.052.746 66.22-3.44 85.184 8.398c18.964 11.84 63.044-16.774 61.276 35.172-.414 12.16-13.751 46.035-26.819 30.78-13.068-15.253-61.249.77-82.637-4.07C15.616 65.44 2.75 54.604.798 37.328ZM344.798 234.328c-1.953-17.277 26.269-23.854 39.761-30.218 13.493-6.364 25.661-10.551 44.625 1.288s63.044-16.774 61.276 35.172c-.414 12.159-13.751 46.035-26.819 30.781-13.068-15.254-61.249.77-82.637-4.071-21.389-4.841-34.253-15.676-36.206-32.952ZM233.724 64.453c-1.301-11.512 17.505-15.895 26.495-20.136 8.991-4.24 17.099-7.03 29.736.858 12.637 7.89 42.01-11.177 40.832 23.438-.276 8.102-9.163 30.675-17.871 20.51-8.708-10.164-40.814.514-55.066-2.712-14.252-3.226-22.825-10.446-24.126-21.958ZM435.319 52.133c-1.301-11.512 17.505-15.895 26.496-20.135 8.99-4.24 17.098-7.031 29.735.858 12.637 7.889 42.01-11.178 40.832 23.437-.276 8.102-9.163 30.675-17.871 20.51-8.708-10.164-40.813.514-55.066-2.712-14.252-3.225-22.825-10.445-24.126-21.958Z" fill="#EFFAFF"/><path d="M349.74 178.67c-3.94 2.67-9.09 3.46-13.66 2.11-.51-.15-1.07-.37-1.3-.85-.35-.72.21-1.54.31-2.33.29-2.29-2.97-3.28-4-5.33-.41-.81-.44-1.76-.51-2.66-.63-8.05-4.83-15.3-8.36-22.56-.25-.53-.52-1.1-.41-1.68.11-.58.77-1.08 1.28-.79-.38 1.37.46 2.96 1.8 3.42.61-2.34.95-5.42-1.15-6.62-.71-.41-1.57-.48-2.39-.52-3.24-.16-6.5.02-9.7.54-.54.09-1.12.17-1.59-.1-.41-.24-.62-.71-.91-1.1-.79-1.05-2.88-1.62-3.99-.71-1.23 1.02-.29 3.23-2.66 3.54-1.34.17-2.63-.52-3.8-1.18-1.26-.71-2.54-1.45-3.46-2.57-.32-.4-.61-.85-1.05-1.12-.84-.53-1.91-.24-2.9-.25-.99 0-2.19-.73-1.93-1.68.08-.3.3-.53.47-.79 1.24-1.9-.4-4.62-2.57-5.31-2.17-.69-4.51 0-6.68.68-3.25 1.03-6.5 2.05-9.76 3.08-1.23.39-2.52.78-3.78.55-1.09-.2-2.23-.84-3.22-.36-1.35.65-1.13 2.66-1.94 3.92-.78 1.2-2.44 1.59-3.24 2.78-.93 1.38-.38 3.21-.47 4.87-.19 3.19-2.82 5.62-5.13 7.84-2.31 2.22-4.65 5.1-4.06 8.25.18.97.64 1.88.71 2.86.05.81-.16 1.61-.38 2.4-.68 2.48-1.35 4.95-2.03 7.43 2.27 4.02 4.79 7.9 7.52 11.61 1.35 1.83 2.78 3.65 4.65 4.95 1.87 1.3 4.25 2.02 6.45 1.44.98-.26 1.9-.78 2.92-.88 1.41-.15 2.8.52 4.22.46 1.66-.07 3.09-1.1 4.42-2.09 1.33-.99 2.78-2.01 4.43-2.06 1.66-.05 3.44 1.39 3.09 3.01-.08.35-.25.71-.2 1.06.11.77 1.11 1.04 1.87.93.77-.1 1.59-.39 2.29-.05.95.47 1.06 1.81.74 2.82-.43 1.37-1.34 2.53-1.95 3.83-.61 1.3-.86 2.95 0 4.09.45.59 1.13.96 1.68 1.45.93.82 1.48 1.97 1.93 3.12 1.93 4.93 2.35 10.42 1.28 15.59-.47 2.29-1.93 4.15-2.39 6.26-.52 2.38 1.38 5.04 2.5 6.98 1.7 2.95 2.7 6.3 2.92 9.7.08 1.35.06 2.77.68 3.98.47.9 1.25 1.6 1.9 2.38 2.47 3.02 2.78 7.2 2.99 11.1.52.69 1.6.69 2.38.32.79-.37 1.42-1.01 2.18-1.42 1.92-1.03 4.26-.49 6.42-.74 3.72-.42 6.99-3.5 7.63-7.19.18-1.02.18-2.1.62-3.04.66-1.42 2.26-2.38 2.47-3.93.08-.61-.07-1.25.06-1.86.42-1.91 3.35-2.51 3.6-4.46.12-.93-.45-1.79-.81-2.66-1.08-2.58-.17-5.84 2.08-7.49.84-.62 1.83-1.02 2.69-1.62 4.14-2.87 4.05-9.1 2.3-13.82-.68-1.84-1.56-3.7-1.43-5.67.08-1.29.6-2.52 1.2-3.66a24.61 24.61 0 0 1 6.13-7.51c1.64-1.34 3.53-2.55 4.46-4.45.57-1.16.74-2.48 1.18-3.7.82-2.22 2.52-3.96 3.85-5.91 1.33-1.95 2.31-4.44 1.45-6.64l.06.01Zm-24.12 47.97c-.11.81-1.02 1.57-1.72 1.15-.03-2.16-.49-4.3-.95-6.41-.22-1.01-.45-2.03-.67-3.04-.1-.47-.25-1-.67-1.23-.3-.16-.69-.14-.97-.34-.42-.3-.39-.95-.73-1.34-.45-.5-1.3-.32-1.87-.68-.57-.35-.7-1.11-.78-1.77l-.86-7.33c-.03-.28-.06-.59.09-.83.17-.27.5-.38.8-.49a5.53 5.53 0 0 0 2.96-2.71c.25-.53.42-1.09.77-1.56 1.25-1.69 2.92-1.19 3.06.47.2 2.3-.72 2.01-2.01 2.82-.99.62-2.69 1.66-3.37 2.7-1.03 1.56-.12 2 .59 3.51.65 1.41.03 3.3 1.06 4.46.67.75 1.78.89 2.63 1.43 1.33.84 1.82 2.55 1.91 4.11.09 1.57-.12 3.17.28 4.69.2.79.57 1.58.46 2.39h-.01Z" fill="url(#a)"/><path d="M338.5 229.98c-.84 1.54.88 3.33.74 5.09-.14 1.8-2.15 2.92-2.57 4.68-.17.72-.05 1.48.12 2.2.32 1.38.8 2.73 1.43 4.01.2.41.43.82.76 1.13 1.03.96 2.81.64 3.81-.35s1.39-2.45 1.6-3.84c.21-1.4.29-2.84.85-4.13.81-1.89 2.6-3.48 2.5-5.53-.05-1.02-.59-1.96-.82-2.95-.24-1-.04-2.27.9-2.69l.3 1.96c2.66-.83-.6-9.61-3.49-5.17-1.17 1.81-.01 3.03-2.34 3.96-1.26.5-3.04.25-3.8 1.64l.01-.01Z" fill="url(#b)"/><path d="M540.57 73.48c-.07-.3-.31-.53-.54-.74a25.18 25.18 0 0 0-5.3-3.75c1.21-.11 2.46-.22 3.53-.8 1.08-.57 1.94-1.72 1.78-2.93-.27-2.06-3.19-3.26-2.9-5.32.14-.93.94-1.86.51-2.69-.31-.57-1.04-.72-1.69-.8-3.38-.45-6.75-.91-10.14-1.36.15 1.29-.21 2.72-1.25 3.5-1.05.77-2.82.52-3.32-.68-.17-.42-.18-.91-.47-1.27-.6-.77-1.82-.32-2.75.03-1.99.77-4.26.77-6.24 0-.38-.16-.8-.37-.96-.75-.24-.57.16-1.19.19-1.8.05-1.05-1.03-1.86-2.08-1.96-1.04-.09-2.06.33-3.06.66-2.91.94-6.37 1.07-8.76-.84-.71-.56-1.29-1.28-2.06-1.76-1.08-.68-2.4-.82-3.66-.95-3.26-.33-6.52-.66-9.78-1-.31-.03-.67-.05-.94.13-.42.31-.35.94-.49 1.44-.26.97-1.36 1.48-2.36 1.55-1.01.07-2.02-.17-3.02-.05-.74.08-1.47.36-2.21.31-.75-.04-1.57-.57-1.55-1.31-.94.59-1.56 1.65-1.59 2.76-1.9.21-4.29-1.15-3.87-3.02.11-.48.39-.91.44-1.4.25-3.04-7.27-3.72-8.97-2.41-.46.36-.82.84-1.26 1.22-1.85 1.61-5.15.97-6.27-1.22-2.66-.33-5.36-.31-8.03.03-1.08-1.84-3.9-.97-5.7.17-1.8 1.14-4.43 2.27-5.8.64 4.55-1.03 8.86-3.1 12.52-5.98.37-.29.77-.68.68-1.15-.05-.32-.33-.55-.6-.74a9.887 9.887 0 0 0-5.82-1.74c-1.5.03-3.29.31-4.24-.85-.59-.71-.66-1.8-1.38-2.39-.69-.56-1.68-.43-2.55-.28-1.93.35-3.87.7-5.81 1.05-.3.05-.63.12-.84.34-.27.3-.25.75-.28 1.16-.17 2.55-3.38 4.36-5.65 3.17-.71-.38-1.31-.97-2.08-1.21-.97-.29-2.01.04-2.97.38l-12.03 4.17c1.08.73 2.48.97 3.74.64.38.67-.6 1.27-1.36 1.43-3.06.64-6.11 1.28-9.17 1.91 1.75 1.33 3.45 2.74 5.07 4.22.79-.55 1.53.88 1.23 1.8-.29.92-.84 2.06-.14 2.71a3.883 3.883 0 0 1-2.2-1.9c.49-.36.96-.73 1.45-1.09-1.07.22-2.24-.48-2.56-1.52a12.79 12.79 0 0 1-5.38-2.44c-.31.73.11 1.7.87 1.97-.72.1-1.44.18-2.16.27.24 1.12 1.24 2.03 2.38 2.16-1.43.37-3.03.03-4.21-.88 1.07-1.61-.5-4.16-2.42-3.94 1.1.15 1.29 1.73.8 2.73-.49 1.01-1.35 1.91-1.33 3.02.02 1.36 1.29 3 .23 3.87 1.29 1.08 3.68-.88 4.76.39.33.4.37.95.51 1.45.42 1.5 2.06 2.54 3.59 2.27-.88 1.4-2.98.02-3.94-1.33-.95-1.35-3.11-2.69-3.94-1.26-.27.47-.22 1.04-.22 1.57-.05 3.89-4.62 6.98-8.25 5.57 1.38-1.71 4.63-1.03 5.69-2.95.43-.79.31-1.75.18-2.63-.43-2.89-.85-5.77-1.28-8.66.25-1.33.35-2.69.29-4.04-1.52.53-3.97.46-3.92-1.15-1.29 2.14-2.59 4.28-3.88 6.42-.79 1.29-1.38 3.31-.03 3.99.9-.37 1.95.39 2.2 1.34.26.94-.07 1.93-.5 2.81-1.94-5.37-11.76-2.9-14.32-8-1.17.45-.1 2.26 1.08 2.69 1.19.43 2.82 1.19 2.38 2.37-.33.93-1.61.93-2.59.86-2.83-.2-5.73.45-8.21 1.85-.22-1-.45-1.99-.66-2.97-2.06 1.46-4.14 2.92-6.2 4.39-1.01.71-2.07 1.44-3.3 1.57-1.22.12-2.63-.61-2.79-1.83-.16-1.22 1.62-2.29 2.41-1.35.34-2.24-2.72-4.11-4.56-2.78 1.22 2.06 1.25 4.78.07 6.87-.44.78-1.11 1.51-1.99 1.65-.88.13-1.9-.63-1.71-1.5a5.04 5.04 0 0 0-1.67 3.99c-1.82.59-3.99-.11-5.12-1.67.14.87.28 1.72.42 2.59-1.31 1.41-4.18.39-4.31-1.53-.03-.57.11-1.13.11-1.7 0-1.94-1.71-3.38-3.27-4.55 2.33.88 4.67 1.77 7 2.65 1.31.5 2.71 1.01 4.08.74 2.01-.38 3.31-3.09 1.52-4.49-3.21-2.51-6.91-4.4-10.83-5.53-1.13-.32-2.34-.59-3.45-.23-.91.29-2.13.87-2.62.05.91.13 1.89-.22 2.51-.91-1.9-.42-3.82-.69-5.76-.79-2.24 1.99-3.76 4.8-3.11 7.64 1 4.36 6.66 8.02 4.59 11.98 1.95-.44 3.99-.87 5.92-.38 1.04.25 2.05.87 2.73 1.69v-.13c.58-.19 1.2-.39 1.79-.23.59.16 1.07.85.77 1.39-.2.38-.73.69-.54 1.08.12.24.45.28.7.36.72.22 1.12 1.15.79 1.82-1.03-.06-2.06-.11-3.1-.16-.35.75-.82 1.47-1.15 2.22-1.39 3.14-.38 6.74-.26 10.17.05 1.76-.35 3.72-1.22 5.24.21-.04.42-.09.63-.12 3.89-.66 8.34.32 10.72 3.47 2.38 3.15 1.58 8.56-2.07 10.04-1.39.56-3.01.54-4.28 1.34-.52.31-.9.87-1.08 1.46 2.36-1.34 4.79-2.62 7.46-3.12a4.702 4.702 0 0 1-3.09 2.55c.45.29.3 1.04-.15 1.33-.45.29-1.03.24-1.55.13-.52-.11-1.07-.24-1.58-.11-.45.11-.81.46-.99.89-.09.19-.13.4-.13.61 0 .15.03.28.07.42 1.36-1.14 3.52-1.17 4.91-.06.53.43.95.99 1.52 1.37.63.42 1.45.61 1.93 1.21.47.6.14 1.81-.6 1.65-.03.38.37.65.73.72.37.07.77.04 1.1.21.77.4.63 1.64-.04 2.19-.67.54-1.61.59-2.48.59-2.27.03-4.63.05-6.71-.87-.98-.43-1.86-1.07-2.88-1.43-1.01-.36-2.23-.39-3.05.3-.38.32-.64.78-1.01 1.13-.88.85-2.38.96-3.38.25-.82-.59-1.22-1.7-1.03-2.69-.94.95-1.75 2.06-2.33 3.25.5 1.42 1 2.85 1.5 4.27.17.46.32.92.49 1.37.48 1.39 1.27 3.02 2.73 3.11 1.85.12 3.71-2.4 5.18-.12.28.44.37.96.37 1.49 0 1.03 1.41 2.33 2.17 1.52-.09-.74-.17-1.54.17-2.21.34-.66 1.28-1.08 1.87-.61.4.31.48.88.51 1.38.03.74 0 1.5-.1 2.23-.23 1.76-.93 3.59-2.41 4.53-1.16.73-2.83 1.26-1.88 2.82.22.34 1.1-.05 1.35.28.55.77.17 1.58.24 2.49.15 1.93 2.34 2.9 3.54 4.43 1.66 2.1 1.31 5.11 2.13 7.66 1.67 5.22 8.25 8.57 7.88 14.04-.15 2.13-1.19 4.79.56 6.02 1.17.81 2.77.24 4.07-.37 2.42-1.12 4.85-2.25 7.29-3.38.99-.45 2.04-.97 2.55-1.94.26-.51.35-1.1.72-1.54.54-.64 1.48-.73 2.27-.99 1.79-.6 2.99-2.29 3.89-3.96.97-1.81 1.73-3.73 2.27-5.72.14-.52.27-1.08.14-1.61-.47-1.93-3.86-2.12-4.03-4.1-.07-.83.51-1.57.78-2.35.27-.79-.03-1.95-.86-1.94-.5 1.47-1.04 3-2.15 4.08-1.12 1.08-3.01 1.54-4.23.59-.91-.7-1.21-1.92-1.83-2.88-.94-1.49-2.66-2.39-3.48-3.94-.82-1.56.38-4.18 2.01-3.51.8 2.95 2.82 5.54 5.49 7.02a22.5 22.5 0 0 0 4.73-2.24c.74-.59 1.72.52 1.8 1.46.08.95-.07 2.11.7 2.66.39.29.92.31 1.41.31 4.01 0 8-.46 11.9-1.38-.8 2.33 1.35 5.13 3.8 4.95-.3.95-1.25 1.66-2.25 1.67.48.94.99 1.92 1.85 2.55.86.62 2.16.76 2.91.02.71-.69.8-1.98 1.72-2.36 1.07-.45 2.13.89 2.04 2.05-.09 1.15-.81 2.14-1.2 3.24-.78 2.23-.05 4.68.66 6.93 1.39 4.34 2.83 8.79 5.68 12.36 1.02-.96 2.05-1.92 3.07-2.88 1.38.24 1.43 2.22.99 3.54-.45 1.34-.86 3.13.34 3.86 1.08.65 2.52-.39 2.76-1.62.24-1.23-.32-2.45-.87-3.58-.71-1.44-1.41-2.9-2.11-4.35-.25-.5-.5-1.03-.45-1.59.03-.48.27-.91.47-1.35.63-1.41.83-3.02.55-4.54 3.75-1.91 6.89-5 8.83-8.75.3-.56.58-1.15 1.09-1.53 1.54-1.12 4.13.45 5.49-.88 1.9.71 3.5 2.16 4.4 3.98.66 1.33 1.27 3.1 2.75 3.21-2.27.93-3.8 3.39-3.63 5.83 2.28.58 4.8-1.58 4.57-3.92.89-.51 2.07.11 2.55 1.02.47.91.42 1.99.36 3.01-.17 3.09-.36 6.17-.53 9.24-.05.92-.09 1.91.42 2.67.48.72 1.39 1.12 1.72 1.92.5 1.18-.5 2.67.15 3.78.35.59 1.04.85 1.57 1.26 1.14.87 1.52 2.41 2.34 3.59.82 1.18 2.72 1.95 3.61.82a8.596 8.596 0 0 1-3.24-6.23c-.03-.55 0-1.13-.24-1.63-.28-.63-.88-1.04-1.39-1.5-2.97-2.72-2.61-7.42-2-11.41a9.283 9.283 0 0 0 6.01 3.87c-.78 1.6-.1 3.74 1.44 4.62.1-1.57 1.28-3 2.79-3.41.66-.18 1.36-.19 1.98-.46 1.86-.8 2.06-3.32 1.97-5.34-.03-.8-.08-1.63-.51-2.29-.72-1.09-2.17-1.35-3.31-1.99-2.04-1.15-3.03-3.87-2.21-6.08.81-2.2 3.34-3.61 5.64-3.15.76.33.42 1.54-.24 2.04-.66.5-1.57.8-1.88 1.57-.44 1.07.86 2.26 1.99 2.01 1.13-.24 1.85-1.43 1.93-2.59.07-1.15-.35-2.27-.77-3.36 2.43.53 5.11-.32 6.78-2.16.47-.52.89-1.12 1.5-1.47 1.18-.69 2.87-.31 3.84-1.29.74-.74.69-1.93.92-2.96.43-1.91 1.9-3.37 2.77-5.11.86-1.74 1.71-4.42 1.25-6.34-.33-1.4-1.06-2.67-1.56-4.01-.36-.95-.6-1.94-.73-2.96-.05-.41-.09-.87.11-1.23.34-.66 1.18-.81 1.81-1.2.94-.58 1.43-1.79 1.15-2.85-2.6.87-5.64.21-7.64-1.66.58-1.12 1.86-1.64 2.97-2.24 1.12-.59 2.28-1.55 2.23-2.82h2.11c.05 1.15-.49 2.32-1.4 3.03.96.83 2.41.04 3.54-.55 1.13-.59 3.02-.59 3.16.67.13 1.22-1.71 2.04-1.46 3.24 1.29-.44 2.68 1.29 1.98 2.46-.19.31-.5.62-.45.99.06.45.59.62.98.84 1.09.58 1.57 2.08 1.01 3.18.76-.59 1.52-1.18 2.28-1.78.18.7.96 1.17 1.67 1.01.7-.17 1.19-.95 1.03-1.65-.15-.69-.79-1.17-1-1.84-.31-1.01.4-2.13.05-3.12-.27-.78-1.1-1.19-1.78-1.68-.67-.49-1.28-1.37-.87-2.1.24-.45.77-.63 1.2-.89 2.14-1.33 2.6-5.12 5.12-5.2.51-.02 1.01.14 1.5.07 1.43-.2 1.93-1.94 2.61-3.23 1.49-2.86 4.95-4.25 6.52-7.08 1.2-2.17 1.06-4.82 1.77-7.21.52-1.73 1.5-3.53.89-5.24-.75-2.13-4.19-2.55-5.43-.66.2-1.07.4-2.13.61-3.21-.75 2.42-5.75.24-1.4-2.13 2.9-1.57 5.5-3.73 7.59-6.29.71-.87 1.38-1.8 2.31-2.43 3.42-2.31 8.13.55 12.13-.45.14.39.27.79.41 1.18-1.08.45-2.14.9-3.21 1.35 2.26 1.06 4.69-1.45 7.18-1.35.73.03 1.78.03 1.82-.68-.67-.1-1.54-.47-1.42-1.14.04-.24.22-.44.39-.61.65-.69 1.3-1.37 1.96-2.06 1.09-1.15 2.86-2.38 4.11-1.38.94.76.51 2.59-.68 2.84.78.78 2.1.07 2.88-.72.78-.78 1.78-1.72 2.82-1.32.29-.58.29-1.29.02-1.86.83-.46 1.85-.57 2.76-.29-.55.46-.93 1.14-1.04 1.85-.08.46-.04.94-.18 1.38-.5 1.66-2.72 1.85-4.29 2.62-2.76 1.34-3.73 4.88-6.21 6.67-.61.45-1.3.78-1.81 1.34-1.09 1.21-.95 3.09-.45 4.64.52 1.55 1.36 3.03 1.45 4.66.02.31 0 .61-.02.91-.11 1.08 1.22 1.69 1.98.92.18-.19.37-.38.55-.56.88-.91 1.8-1.85 2.25-3.04.31-.84.45-1.86 1.22-2.3.57-.32 1.28-.18 1.92-.3.65-.1 1.34-.76 1.01-1.34-1.06-.75-.87-2.65.3-3.2.49.23.98.46 1.47.7 1.16-.53-.59-2.44.04-3.55.24-.43.83-.69.81-1.18-.02-.61-.88-.72-1.49-.62-.4-1.99.97-4.16 2.93-4.65-.03.41-.07.83-.1 1.24.97-.61 1.94-1.22 2.91-1.85.17.47.34.94.51 1.43 1.16.6 2.07-2.05 3.28-1.56.26.11.44.35.66.52.87.71 2.42.17 2.66-.93.9-4.15 5.94-4.34 10.16-4.69.98-.08 2.34-.51 2.11-1.47l.06.01ZM354.06 124.1c-.71.64-1.73.81-2.68.66-.23.19-.06.59.19.74.25.16.57.2.79.41.39.38.24 1.02.3 1.56.11.87.86 1.54 1.06 2.39.36 1.53-1.29 2.94-2.87 2.95-3.29.03-5.6-2.64-6.45-5.51-.49-1.64-1.43-6.09 1.09-6.34-.76-1 .03-2.1-.44-3.17-.26-.58-.91-.86-1.35-1.32-.87-.93-.74-2.49 0-3.53.74-1.04 1.93-1.65 3.12-2.12 1.16-.45 2.48-.8 3.62-.33 1.15.47 1.85 2.11.99 3.01-.93.97-2.83.41-3.67 1.46-.53.65-.35 1.67.18 2.32.54.65 1.35 1.01 2.13 1.31.44.17.91.38 1.08.8.27.64-.28 1.29-.63 1.88-.34.6-.27 1.65.42 1.65.67 0 .78-.96 1.15-1.52.52-.79 1.88-.66 2.41.13.52.79.24 1.93-.45 2.56l.01.01Zm82.1-30.59c-.15.29-.33.58-.43.89-.1.35-.1.73-.19 1.08-.26 1.05-1.23 1.73-2.11 2.37-.61.44-1.22.93-1.58 1.58-.15.27-.25.57-.42.84-.87 1.46-3.46 1.76-1.83-.28 1.01-1.27 2.51-3.13 3.76-4.23.43-.38.95-.69 1.24-1.18.47-.8.21-1.81.24-2.74.03-.93.73-2.04 1.63-1.78.33 1.13.22 2.39-.31 3.45ZM324.32 77.36v.3c-.03.36-.1.7-.22 1.03h.38c.21-.45.08-.88-.16-1.33Zm-6.83 22.19c1.66-.12 2.9-1.17 3.73-2.62-1.57.38-3.12 1.15-3.73 2.62Z" fill="url(#c)"/><path d="M330.5 110.33c-1.39.56-3.01.54-4.28 1.34-.52.31-.9.87-1.08 1.46-.21.11-.42.24-.63.35-3.69 2.1-2.31-2.52-5.76-2.49-3.37.03-2.4 5.67-3.9 5.17-.38.86.24 1.88-.03 2.78-.1.31-.29.59-.43.88-.09.18-.15.38-.18.58-.94.95-1.75 2.06-2.33 3.25-.04-.13-.09-.25-.13-.38-.82-.81-2.33.05-2.59 1.17-.26 1.12.23 2.27.56 3.37.33 1.1.45 2.45-.38 3.26-.43.43-1.13.73-.51 1.71.22.36.66.5 1.08.44.89-.13 1.65 1.52.78 1.57-1.61.19-2.79-1.5-3.3-3.04-.5-1.54-.85-3.33-2.2-4.22-.66-.44-1.57-.65-1.89-1.37-.54-1.22 1.03-2.64.45-3.84-.57-1.17-2.48-.74-3.46-1.61-.83-.74-.72-2.17-1.52-2.93-.41-.39-.98-.54-1.5-.74a6.754 6.754 0 0 1-3.73-3.6c-.95.17-.81 1.59-.36 2.45 1.75 3.27 4.53 5.98 7.85 7.65-1.08.54-1.61 1.77-2.05 2.9-.67 1.68-1.34 3.37-2 5.06-1.01-.12-2.07-.27-2.89-.88-.81-.61-1.25-1.86-.65-2.68 1.11 1.08 3.26.69 3.93-.7.66-1.41-.38-3.31-1.92-3.49.65-1.84-1.42-3.45-3.24-4.14-1.82-.69-4.05-1.57-4.27-3.5-.83-.74-2.17-.37-3.07.28-.9.66-1.65 1.56-2.71 1.92-1.05.36-2.55-.24-2.48-1.36-.54.47-1.08.94-1.63 1.41 1.23.35.53 2.33-.6 2.91-1.14.58-2.69.94-2.97 2.2-.11.5.03 1.02.03 1.55 0 .79-.38 1.53-.73 2.24-.89 1.74-2.04 3.68-3.96 4.04-1.13.21-2.85.33-2.69 1.46a7.513 7.513 0 0 0-6.03-1.73c.13-1 .26-1.99.38-2.98-.73-.11-1.48-.22-2.21-.32a6.841 6.841 0 0 0 1.09-5.55c-.25-1.06-.56-2.55.46-2.92-.55-.49-.95-1.15-1.15-1.86 1.53-.67 3.31-.74 4.91-.21.69.23 1.35.57 2.05.78 1.98.59 4.36-.07 5.49-1.78 1.14-1.72.66-4.4-1.15-5.39-.95-.52-2.11-.56-3.04-1.12-.92-.56-1.4-2.1-.47-2.65.76 1.16 2.51 1.52 3.66.76-.54-.93-.78-2.02-.67-3.09.85-.35 1.94.45 1.84 1.37 1.5.03 2.97-1 3.45-2.42.17-.49.24-1.03.59-1.43.45-.53 1.24-.61 1.9-.86 1.63-.61 2.59-2.6 2.06-4.24 2.1-.97 4.44-1.41 6.74-1.28-.81-1.5-1.65-3.11-1.57-4.82.08-1.71 1.47-3.47 3.17-3.31.26 1 .24 2.06-.03 3.06l1.49.33c-1.08.89-2.17 2.62-1.05 3.45.89.66 2.17-.19 3.26.03.5.1.93.44 1.42.55 2.21.55 4.36-3.09 6.23-1.78.63.44.88 1.33 1.96 1.2.59-.08 1.11-.45 1.4-.98.62-1.08.42-2.32.54-3.51.1-1.03.6-2.18 1.61-2.45 1.1-.3 2.16.61 3.3.73 1.92.22 3.42-2.41 2.26-3.95a7.516 7.516 0 0 1-5.14 1.51c-.54-.94.59-1.97 1.57-2.41 3.4-1.51 7.26-1.98 10.92-1.31.66-.61-.29-1.57-1.09-1.96-.8-.38-1.7-1.41-1.01-1.97-2.41-.97-4.53 2.41-7.14 2.54-2.67.13-4.22-3.44-3.23-5.92 1-2.48 3.47-3.99 5.79-5.32-1.53-2.41-5.54-2.6-7.29-.35.22 1.84-.52 3.76-1.92 4.97-1.44 1.24-3.8 2.38-3.31 4.22.43 1.62 3.01 2.4 2.66 4.04-.31 1.51-2.79 1.53-3.38 2.96-.42 1.04.39 2.32-.1 3.32-.51 1.01-1.95 1.05-2.86 1.73-.62.46-.97 1.2-1.54 1.72-.58.52-1.62.72-2.04.06-.41-.65.13-1.44.43-2.15.91-2.09-.4-4.42-1.67-6.31-2.57-.21-3.9 4.65-6.29 3.66-.67-.28-1.07-.96-1.41-1.61-.94-1.75-1.9-3.53-2.26-5.49-.35-1.96 0-4.15 1.36-5.58 1.83-1.91 4.9-2.02 6.93-3.7 2.27-1.88 2.83-5.37 5.27-7.02 1.46-.99 3.7-1.52 3.87-3.28l-4.83.39c.73-1.35 2.48-2.05 3.93-1.58-.6-1.29.89-2.69 2.32-2.89 1.43-.19 2.92.22 4.29-.19 1.12-.34 2.01-1.17 3.09-1.64.93-.4 1.96-.5 2.97-.55 1.14-.05 2.28-.05 3.42 0-2.24 1.99-3.76 4.8-3.11 7.64 1 4.36 6.66 8.02 4.59 11.98 1.95-.44 3.99-.87 5.92-.38 1.04.25 2.05.87 2.73 1.69-.1.76.52 1.48.88 2.19v.3c-.03.36-.1.7-.22 1.03-1.68-.06-5.62-.87-3.73 1.88.84-1 1.23-.36 2.2-.46.4-.04.78-.46.63-.84.22 0 .44.02.66.03-.35.75-.82 1.47-1.15 2.22-1.39 3.14-.38 6.74-.26 10.17.05 1.76-.35 3.72-1.22 5.24.21-.04.42-.09.63-.12 3.89-.66 8.34.32 10.72 3.47 2.38 3.15 1.58 8.56-2.07 10.04l-.03-.03Z" fill="url(#d)"/><path d="M257.81 95.3c0 .97.93 1.84.67 2.78-.26.92-1.56 1.34-1.62 2.3-.06 1.07 1.42 1.45 2.47 1.24a7.71 7.71 0 0 0 4.81-3.21c.54-.8.75-2.18-.16-2.5l3.75-1.32c.98.84 2.04 2.25 1.23 3.25-.52.65-1.75 1.1-1.38 1.84.15.3.55.46.62.79.07.35-.26.64-.53.87a5.246 5.246 0 0 0-1.84 4.09c1.78-1.64 4.22-2.54 6.64-2.43.57.02 1.2.08 1.63-.28.43-.37.24-1.31-.32-1.22l2.03-1.46c.15-.11.31-.23.39-.4.17-.4-.22-.85-.64-.99-.42-.14-.88-.12-1.28-.31-.88-.41-1.03-1.57-1.34-2.5-.31-.93-1.39-1.86-2.14-1.24.19-.89.37-1.85.02-2.68-.35-.84-1.47-1.41-2.2-.87-.42-.63.56-1.21 1.07-1.76.56-.6.55-1.65-.03-2.24-.58-.59-1.65-.58-2.22.01.08-1.71.44-3.82 2.08-4.35.45-.14.94-.13 1.38-.29.45-.15.87-.56.8-1.03.08.55.96.57 1.29.13.33-.44.26-1.05.17-1.6-1.27-.36-1.82 1.78-3.08 2.18-.58.19-1.24-.03-1.8.2-1.33.56-.97 3.03-2.36 3.42-.33.09-.69.03-1.01.16-.63.27-.7 1.15-.55 1.82.15.67.43 1.4.13 2.02-.16.34-.49.68-.36 1.04.17.47.86.34 1.33.51 1.19.42.54 1.82-.08 2.37-.77.69-2.07.51-2.98.38-1.36-.19-4.6-1.38-4.61 1.26l.02.02Z" fill="url(#e)"/><path d="M287.55 123.12c-.16-.13-.32-.27-.48-.4.5-.12.84-.64.87-1.16.03-.52-.19-1.02-.48-1.44-.35-.51-.95-1-1.53-.79-.75.26-.76 1.31-.51 2.06s.6 1.62.15 2.26c.28-.07.59.02.79.23-1.08.7-1.34 2.91.26 3.04 1.6.13 1.91-1.92.3-2.3.03-.1.66-1.48.64-1.5h-.01Z" fill="#D4DEEF"/><path d="M468.86 140.44c.09-.86.18-1.87.91-2.34.23.6.67 1.11 1.22 1.44.5-.29.77-.84 1.06-1.33.29-.5.69-1.01 1.25-1.1.56-.09 1.21.54.91 1.03 1.48.58 2.47-1.57 3.84-2.38.73-.42 1.6-.46 2.42-.66.81-.21 1.67-.73 1.79-1.56.07-.49-.14-.97-.16-1.46-.03-1.05.77-1.9 1.28-2.82.9-1.59.94-3.64.11-5.26-.45-.88-1.15-1.66-1.37-2.62-.22-.97.34-2.23 1.33-2.21.27.84.64 1.79 1.47 2.1.83.32 1.94-.74 1.34-1.39.93-.26 1.91-.34 2.87-.25.41-.6.31-1.48-.22-1.98 3.04-1.06 5.65-3.15 7.66-5.67l-8.31 5.16c-.33.2-.72.41-1.08.28-.33-.13-.49-.49-.65-.8-.75-1.4-2.31-2.32-3.9-2.29l.39 3.97c-.94-.17-1.8.72-2.02 1.65-.22.93 0 1.91.08 2.86.28 3.36-1.31 6.81-4.04 8.79l-.03-1.63c-1.44.21-.78 2.9-2.08 3.57-.37.19-.8.15-1.21.19-2.04.21-2 2.31-4.2 1.47-.22 2.67-3.61 2.2-3.37 4.89.21 2.27 2.35 4.01 2.72.34l-.01.01Z" fill="url(#f)"/><path d="M486.71 98.16c.04.19.07.39.04.59-.06.37-.35.67-.45 1.03-.18.63.22 1.28.7 1.74.47.45 1.05.84 1.35 1.42.51.97.15 2.31.87 3.13-.23.56-1.08.39-1.57.04-.49-.35-1.1-.81-1.63-.52-.63.9-.28 2.14.22 3.12.49.98 1.13 1.98 1.04 3.07-.05.51-.44 1.11-.94.99-.19-.05-.35-.19-.49-.33-.68-.65-1.39-1.38-1.52-2.31-.09-.68.15-1.35.32-2.01.35-1.36.42-2.8.2-4.19-.09-.6-.24-1.19-.22-1.8.04-1.12.63-2.37-.02-3.28-.2-.28-.53-.6-.38-.92.28-.57 1.52-1.65 1.96-2.1.28.73.38 1.54.53 2.32l-.01.01Z" fill="#B1C7EF"/><path d="M416.05 192.86c.91.67 2.05 1.16 2.59 2.16.41.77.41 1.78 1.05 2.39.34.32.82.47 1.16.79.81.75.63 2.05 1.02 3.08.55 1.46 2.25 2.32 2.57 3.85.11.52.05 1.08.27 1.57.43.92 1.67 1.11 2.36 1.86.34.37.53.85.82 1.25.83 1.15 2.55 1.54 3.79.86-.44-.68-.69-1.48-.71-2.28-.01-.48.06-.96-.04-1.43-.22-1.13-1.3-1.92-1.6-3.04.51-.37 1.17.17 1.55.67.38.5 1.01 1.07 1.54.73-.96-1.26-2.06-2.41-3.27-3.43.1.46-.52.79-.96.63-.44-.16-.7-.6-.93-1-.17-.31-.35-.64-.32-.99.03-.29.2-.55.25-.84.11-.61-.33-1.18-.82-1.54-.5-.36-1.08-.61-1.51-1.05-.86-.87-1.01-2.39-2.09-2.97-.52-.28-1.14-.28-1.67-.54-1.62-.83-1.94-3.23-3.79-3.97-2.63-1.05-3.19 1.83-1.28 3.24h.02Z" fill="url(#g)"/><path d="m432.3 211.05-1.16 1.62c-.08.12-.17.24-.17.39 0 .4.58.46.97.41 1.26-.17 2.54-.11 3.78.19 2.08.5 4.06 1.66 6.19 1.52.32-.02.65-.07.97-.02.35.05.66.22 1 .31.78.23 1.65.1 2.33-.34-.57-.55-1.47-.51-2.27-.57-.8-.06-1.74-.42-1.84-1.22-.03-.21.02-.44-.04-.65-.12-.45-.63-.67-1.09-.7-.46-.03-.93.08-1.38-.01-.76-.15-1.35-.85-2.1-.96-.77-.11-1.1.48-1.72.51-1.28.06-2.28-2.14-3.48-.47l.01-.01Z" fill="url(#h)"/><path d="M450.36 215.57c.67.01 1.33.54 1.95.31.16-.06.3-.16.47-.18.21-.02.4.11.59.19 1.84.85 3.95-1.57 5.84-.84-.44 1.79-2.81 2.36-3.74 3.95 1.6-.23 3.12-1.05 4.19-2.27.29-.33.56-.69.93-.93.21-.14.45-.22.67-.36.5-.32.8-.93.76-1.52-.55-.01-1.1.12-1.58.39-.36.2-.68.47-1.08.56-.66.15-1.31-.23-1.98-.32-1.41-.2-2.78 1.27-4.06 1.03-.51-.1-.77-.67-1.41-.83-.52-.13-1.35.09-1.94 0-.66-.09-2.02-.76-2.52-.06-1.47 2.07 2.55.87 2.91.88Z" fill="url(#i)"/><path d="M450 217.54c.28-.32.83-.12 1.11.2.28.32.46.74.82.97.36.22.87.18 1.19-.11.19-.17.3-.45.21-.68-.1-.24-.36-.35-.6-.43-.23-.08-.47-.16-.7-.25-.41-.14-.84-.29-1.27-.23-.43.06-.86.39-.86.83" fill="url(#j)"/><path d="M438.52 205.12c-.77.08-1.79.15-2.09-.57-.18-.42.02-.9.03-1.36.02-.75-.46-1.41-.81-2.07-.61-1.17-.82-2.53-.61-3.83.05-.33.14-.67.37-.91.15-.15.34-.25.52-.35.72-.38 1.44-.76 2.16-1.13.94-.49 1.89-.99 2.77-1.58 2.21-1.48 4.02-3.55 5.18-5.94.4-.43 1.15-.03 1.42.5s.34 1.16.75 1.58c.64.64 2.03.78 1.92 1.68-.04.35-.34.61-.59.87-.86.91-1.22 2.27-.91 3.48.31 1.21 1.26 2.24 2.45 2.63-1.09.1-2.49.53-2.49 1.62 0 .69.61 1.41.23 1.99-.39.6-1.44.32-1.91.86-.37.44-.14 1.1-.06 1.67.2 1.43-.91 2.9-2.33 3.12-.6.09-1.3-.07-1.6-.6-.16-.28-.18-.61-.31-.9-.52-1.17-1.31-.47-2.08-.48-.54 0-1.29-.36-2.01-.28Z" fill="url(#k)"/><path d="M459.74 196.74c.13-.04.25-.09.38-.13-.27-.18-.64-.12-.91.07s-.45.46-.67.71c-.75.84-1.91 1.3-3.03 1.2-.71-.06-1.41-.33-2.11-.2-.85.16-1.5.93-1.75 1.76-.13.42 0 1.06.43 1.02.24-.75.92-1.3 1.67-1.54.75-.24 1.56-.2 2.34-.06.61.11 1.22.28 1.83.2.61-.08 1.24-.5 1.31-1.11.05-.44-.18-.92 0-1.33.17-.35.63-.66.45-1.01-.2.04.25.38.05.42h.01Z" fill="url(#l)"/><path d="M450.34 206.62c.28 1.27.87 2.59.41 3.8.51.23 1.12-.2 1.29-.73.17-.53.04-1.11-.09-1.65-.13-.54-.26-1.12-.07-1.65.04-.12.12-.25.24-.28.06-.01.13 0 .19.02.69.2 1.16.85 1.38 1.54.22.68.23 1.41.33 2.12.06.44.18.93.56 1.17.61.41 1.48-.14 1.71-.84.23-.7.04-1.46-.05-2.19-.14-1.01-.21-2.23-1.11-2.73-.37-.2-.88-.29-1-.7-.14-.48.43-.86.91-1 .44-.13.89-.22 1.35-.28.54-.07 1.25-.22 1.3-.76.06-.57-.66-.85-1.22-.94-.67-.11-1.36-.23-2.04-.14-.68.09-1.36.41-1.72.99-.08.12-.15.27-.28.32-.19.08-.4-.06-.51-.23-.11-.17-.17-.37-.29-.53-1.46-1.81-1.39 4.19-1.28 4.69h-.01Z" fill="url(#m)"/><path d="M462.54 205.36c-.75-.18-1.54-.16-2.27.05-.13.04-.29.11-.3.25 0 .15.16.24.3.27.71.19 1.49.11 2.14-.22a.557.557 0 0 0-.75-.3" fill="url(#n)"/><path d="M465.74 204.96c-.37-.19-.86-.14-1.18.13-.32.27-.46.74-.33 1.14.75.19 1.5-.69 2.21-.4.47.19.7.83 1.21.86.43.02.73-.58.46-.91-.23-.28-.67-.28-.95-.51-.51-.42-.19-1.24.15-1.8-.57-.12-.99.54-1.07 1.12-.03.25-.04.52-.15.75-.12.23-.4.4-.63.29" fill="url(#o)"/><path d="M462.57 201.46c0 .21-.01.42.08.61.09.18.32.32.51.23.14-.06.22-.22.27-.36.19-.46.39-1 .17-1.45-.1-.2-.27-.37-.35-.58-.22-.64.55-.98 1.04-.93-.12-.81-.8-.24-.8-1.11 0-.13 1.51-.71.25-.92-1.64-.28-1.15 3.46-1.19 4.52l.02-.01Z" fill="url(#p)"/><path d="M469.37 200.46c-.76.06-1.59.04-2.18-.44-.56.47-.19 1.44.43 1.83.62.39 1.39.46 2.03.81.64.35 1.12 1.24.66 1.8l1.54.4c.12.48-.43.83-.84 1.1-.41.27-.75.95-.32 1.2.2.43.84.36 1.26.13.42-.23.86-.55 1.31-.41.29.09.49.35.71.57.91.93 2.29 1.15 3.46 1.72 1.16.57 2.22 1.95 1.59 3.09-.24.43-.67.71-.99 1.08-.32.37-.54.94-.26 1.34 1.02.07 2.07-.26 2.87-.9.82.88 1.8 1.71 2.98 1.96s2.59-.23 3.05-1.35c.09-.22.15-.47.34-.62.26-.21.64-.14.97-.05.99.28 1.96.64 2.9 1.08.18.08.37.18.45.36.12.26-.03.55-.07.84-.15 1.05 1.15 1.65 2.19 1.84 1.41.25 2.84.38 4.28.39.05-.72-.73-1.21-1.43-1.37-.7-.16-1.49-.18-2.03-.66-.63-.57-.69-1.6-1.35-2.13-.5-.4-1.37-.66-1.24-1.28.14-.67 1.31-.58 1.54-1.22.14-.4-.21-.82-.6-.97-.39-.15-.83-.12-1.25-.2-1.04-.2-1.89-1.12-1.99-2.17-.04-.4.01-.82-.15-1.18-.24-.55-.88-.79-1.46-.98-3.06-.99-6.12-1.97-9.17-2.96-.44-.14-.92-.28-1.35-.13-1.17.41-1.09 2.52-2.32 2.74-.63.12-1.2-.39-1.64-.86-.44-.46-1.07-1.11-1.12-1.78-.04-.46.43-.86.39-1.27-.17-1.56-1.96-1.42-3.17-1.33l-.02-.02Z" fill="url(#q)"/><path d="M493.15 210.1c.09.13.25.19.41.24 1.27.35 2.68.21 3.85-.4.38-.19.75-.44 1.17-.48.28-.03.56.03.84 0 .28-.03.58-.19.63-.46.05-.27-.15-.58.01-.8.17-.23.57-.14.76-.36.21-.24-.04-.6-.27-.82-.94-.89-1.86-1.85-2.87-2.66-.09 1.27.84 2.74-.16 3.83-.58.63-4.67 1.45-4.37 1.92v-.01Z" fill="url(#r)"/><path d="M505.68 214.08c.46.15.95.22 1.41.41.45.18.89.51 1.02.98v-.06c-.16-1.25-1.43-2.03-2.56-2.62-.15-.08-.3-.16-.38-.31-.05-.09-1.56.93.52 1.61l-.01-.01Z" fill="url(#s)"/><path d="M518.95 238.3c-.11-.52-.3-1.04-.64-1.44-.34-.41-.88-.68-1.4-.61-.45.99.33 2.12 1.23 2.74.63.43 1.35.71 2.07.96-.9.15-1.11-.96-1.26-1.64v-.01Z" fill="url(#t)"/><path d="M521.91 229.25c.42 1.02.72 2.08.9 3.16.5-.29.64-1.05.28-1.5.36.32.36.87.45 1.34.22 1.24 1.2 2.32 2.42 2.64.19-.37.03-.82-.23-1.14-.26-.32-.62-.54-.92-.82-.56-.53-.9-1.29-.93-2.06-.03-.7.1-1.58-.51-1.92l-.32.9c-.18-.02-.29-.19-.36-.35-.42-1.01 0-2.46-.95-3.19-.15.45-.43.91-.93.97 0 .73.82 1.28 1.1 1.97Z" fill="url(#u)"/><path d="M509.68 214.4c.7.3 1.6.19 2.13.73.52.54.41 1.45.85 2.05.21.28.52.47.75.74.23.27.35.7.12.96-.29.34-.88.13-1.1-.25-.22-.38-.2-.85-.25-1.29-.05-.44-.24-.92-.66-1.06-.4-.14-.93.08-1.22-.24-.09-.11-.13-.25-.18-.38-.41-1.08-1.78-1.61-2.02-2.7.55.42.88 1.14 1.58 1.43v.01Z" fill="url(#v)"/><path d="M468.74 212.6c-.7.6-1.34 1.27-1.89 2.01.42.21.97.1 1.29-.25.32-.35.35-.91.1-1.31" fill="url(#w)"/><path d="M473.39 209.67c.41.31.79.75.8 1.27.01.52-.5 1.05-.99.88.1-.74.19-1.48.29-2.22" fill="url(#x)"/><path d="M468.94 220.92c-.36-.76-1.44-1.08-2.16-.64.63.52.69 1.59.12 2.18-.29.3-.69.47-1.02.73-1.09.84-1.14 2.72-.09 3.62-.51.26-1.01.53-1.52.79a4.509 4.509 0 0 0-2.66-2.97 8.262 8.262 0 0 0-3.57 4.89c-.2.04-.41.07-.61.11l-.28 1.78c-.45-.6-.63-1.4-.49-2.13-1.06.21-1.65 1.33-1.94 2.37-.29 1.04-.46 2.19-1.23 2.95-.56.56-1.35.81-2.1 1.04-1.16.36-2.32.71-3.48 1.07-.96.29-2 .65-2.51 1.51-.42.69-.69 1.8-1.49 1.71-.34-.04-.6-.32-.94-.4-.68-.17-1.29.58-1.32 1.28-.03.7.3 1.37.49 2.05.19.68.17 1.52-.39 1.96.64.04 1.31.29 1.69.81.38.52.38 1.34-.11 1.75-.49.42-1.42.18-1.53-.46 1.41 3.84 2.41 7.84 2.97 11.89.23 1.66.36 3.44-.44 4.91 1.4 1.05 3.43 1.16 4.94.27.84-.5 1.51-1.28 2.39-1.71 1.53-.75 3.39-.32 5.03-.81 1.5-.45 2.71-1.66 4.26-1.93 1.16-.2 2.46.13 3.47-.46.48-.28.83-.74 1.3-1.05.52-.35 1.15-.49 1.77-.52 2.47-.14 5 1.56 5.56 3.97.14.6.16 1.24.4 1.81.24.57.78 1.09 1.39 1.03.15-1.89 1.95-3.49 3.84-3.43.09.61-.35 1.17-.81 1.57-.46.4-1 .77-1.24 1.34-.24.57.03 1.4.64 1.44.31-.59.74-1.11 1.25-1.53.96.86.51 2.75-.74 3.07 1.2-.35 2.89-.47 3.3.71.11.33.08.7.11 1.05.18 1.83 2.09 2.9 3.76 3.65.34.15.71.31 1.07.25.63-.11.97-.78 1.34-1.3.37-.52 1.12-.99 1.61-.56.42.37.24 1.09.58 1.53.45.6 1.45.28 1.94-.29.49-.57.78-1.33 1.42-1.74 1.18-.75 3.33-.16 3.68-1.52.19-.74-.43-1.42-.63-2.15-.32-1.15.43-2.32 1.28-3.15.85-.83 1.88-1.55 2.38-2.63.84-1.8-.04-3.94.3-5.9.34-1.97 1.9-3.92 1.08-5.74-.32-.71-.97-1.25-1.24-1.99-.26-.71-.15-1.57-.64-2.15-.31-.37-.79-.54-1.17-.82-1.29-.93-1.33-2.79-1.82-4.3-.9-2.75-3.48-4.55-5.27-6.83-.33-.42-.64-.87-.78-1.39-.16-.6-.09-1.24-.14-1.86-.12-1.51-1.03-2.94-2.35-3.68-.29-.16-.6-.3-.81-.56-.29-.37-.27-.88-.29-1.35a7.66 7.66 0 0 0-1.94-4.82c-.78 3.88-1.57 7.76-2.35 11.64-.45.35-1.01.56-1.58.61-.23-.99-.45-1.98-.68-2.97-1.12.06-2.29.1-3.3-.39-1-.49-1.74-1.73-1.29-2.75.25-.56.8-1.18.44-1.67 1 .38 1.87-1.25 1.14-2.03-1.15-1.23-2.42.55-3.61.49-1.47-.08-2.79-2.15-4.38-1.21v-.04Z" fill="url(#y)"/><path d="M490.19 281.4c0 .29-.02.64.23.78.1.06.22.07.33.08.84.06 1.91-.05 2.19-.85.23-.64-.21-1.38.03-2.01.08-.21.22-.39.35-.57.31-.47.49-1.05.34-1.59-.15-.54-.7-.98-1.25-.87-.3.06-.55.26-.85.34-.95.25-3.67-1.78-3.44.5.07.71 1.06 1.27 1.42 1.86.44.7.67 1.52.64 2.35l.01-.02Z" fill="url(#z)"/><path d="M521.61 285.39c-.63.21-1.33.3-1.85.7-.53.4-.77 1.3-.25 1.71.4.32.99.19 1.48.35 1.09.35 1.19 1.83 1.08 2.97.76.33 1.6-.34 2.02-1.06.42-.72.71-1.58 1.42-2.01.46-.29 1.07-.36 1.41-.78.48-.59.16-1.48.34-2.22.45-1.86 3.13-2.02 3.84-3.84.5-1.26 1.41-3.73-.09-3.99-3.73-.65-6.16 7.1-9.39 8.17h-.01Z" fill="url(#A)"/><path d="M533.33 278.51c0 .1 0 .2.05.29.13.21.46.12.65-.03 1.09-.9.43-2.81 1.27-3.95.28-.38.69-.62 1.06-.91 1.17-.93 1.9-2.41 1.91-3.91-.54.29-1.1.59-1.71.68-.61.09-1.29-.09-1.66-.58-.45-.61-.3-1.51-.72-2.13-.49-.72-1.55-.82-2.13-1.47-.54-.59-.55-1.47-.67-2.26-.12-.79-.53-1.69-1.32-1.8-1.57 1.8 1.51 4.05 1.91 5.59.38 1.47-.38 1.88-.96 3.12-.61 1.29-1.02 2.3.2 3.3.78.64 1.43-.34 2.11.85.39.68.03 2.46.02 3.22l-.01-.01Z" fill="url(#B)"/><path d="M451.35 170.85c-.09.25-.17.51-.17.77.02.91 1.07 1.53 1.14 2.44.03.36-.1.72-.1 1.08 0 .36.22.78.59.78.31 0 .53-.29.75-.51.22-.22.64-.36.81-.1.08.11.07.27.06.4-.1.97-.36 1.92-.78 2.81.52.21 1.13-.13 1.42-.61.29-.48.34-1.07.38-1.63.02-.28.04-.57-.07-.83-.17-.39-.59-.59-.86-.91-.51-.6-.46-1.5-.17-2.23.29-.73.77-1.37 1.06-2.1.08-.19.14-.39.11-.6-.03-.21-.16-.39-.25-.58-.23-.47-.25-1.01-.35-1.53-.88-4.51-3.29 2.56-3.56 3.35h-.01Z" fill="url(#C)"/><path d="M459.96 177.86c.1.84-.25 1.71-.9 2.25-.15.12-.31.23-.4.4-.31.57.41 1.11.93 1.5 1.62 1.23 1.82 3.93.39 5.38-.13.14-.28.27-.37.44-.08.17-.09.36-.1.55-.01.85.14 1.71.45 2.5-.84.42-1.9-.27-2.22-1.16-.32-.89-.14-1.87.02-2.8.06-.35.1-.73-.09-1.02-.32-.47-1.09-.37-1.49.03-.4.41-.53.99-.69 1.54-.16.55-.39 1.12-.89 1.4-.38-1.9 1.18-3.94 3.1-4.09.42-.03.87.01 1.25-.18s.6-.75.29-1.04c-.37.01-.51-.48-.48-.84.03-.36.09-.81-.2-1.03-.3-.22-.75 0-.95.33-.2.33-.26.71-.46 1.03-.3.48-.9.75-1.46.65-.03-.84.47-1.68 1.22-2.05-.67-.24-1.36-.62-1.62-1.28s.2-1.59.9-1.53c.25.65.5 1.3.76 1.95.55.34 1.32 0 1.64-.56.32-.56.29-1.25.2-1.89.72.37 1.53-.64 1.24-1.39-.17-.43-.56-.73-.96-.78.45.46.82 1.08.9 1.72l-.01-.03Z" fill="url(#D)"/><path d="M352.75 53.79c.49-.35.12-1.19-.45-1.38-.57-.19-1.18 0-1.78.01-.6.01-1.32-.27-1.38-.86-.02-.18.03-.35.09-.52.42-.99 1.59-1.39 2.36-2.14 1.2-1.17 1.3-3.1 2.35-4.4 1.45-1.8 4.2-1.88 6.06-3.26.58-.43 1.07-.99 1.68-1.39 1.57-1.04 3.61-.87 5.5-.92 2.47-.07 4.93-.59 7.21-1.53-.48 2.29-3.22 3.15-5.49 3.72-1.53.39-3.04.83-4.53 1.33-1.9.64-3.8 1.4-5.35 2.66-1.55 1.26-2.73 3.12-2.76 5.12-.01 1.05 1.24 3.32.55 4.14-.82.96-3.16-.19-4.05-.59l-.01.01Z" fill="url(#E)"/><path d="M410.51 27.06c-.57.18-1.14.37-1.72.55.53.81 1.62 1.21 2.54.92.97-.3 1.91-1.25 2.82-.8.24.44-.3.87-.74 1.11-.44.24-.9.8-.54 1.15.09.08.2.13.32.16 2 .64 4.27.1 6.18.96.6.27 1.18.69 1.84.66.66-.03 1.28-.86.82-1.34-.3-.31-.9-.32-1.02-.73-.22-.76 1.57-1.07 1.22-1.77l-3.88.12c-.44.01-.98-.03-1.17-.43-.11-.22-.07-.51-.22-.71-.18-.24-.54-.24-.85-.21l-2.05.21c1.5-.15 3.46-.95 4.96-1.31-1.99-2.25-7.75-1.98-8.53 1.45l.02.01Z" fill="url(#F)"/><path d="M428.58 30.35c-.03-.84-1.19-1.21-1.95-.85s-1.22 1.13-1.73 1.8c-.62.8-1.37 1.48-2.11 2.16 1.96-.25 3.92-.51 5.88-.76.76-.1 1.67-.32 1.89-1.04-.76-.52-1.65-.85-2.56-.95" fill="url(#G)"/><path d="M479.97 42.23c.25-.15.48-.35.76-.43 1.12-.32 2.07 1.32 3.2 1.06.48-.11.82-.55 1.27-.72 1.07-.41 2.27.71 3.29.02 1.33-.9.76-1.68-.29-2.09-.96-.37-2.45.02-3.53-.29-.8-.23-1.49-.67-2.25-1-1.78-.76-4.61-2.04-5.82.26-1.09 2.07 1.33 4.4 3.36 3.18l.01.01Z" fill="url(#H)"/><path d="M495.8 41.67a7.867 7.867 0 0 0-2.69-1.44c-.14-.04-.28-.08-.43-.08-.52.02-.85.67-.68 1.17.17.49.68.8 1.19.9.51.1 1.04.03 1.56 0 1.09-.07 2.2.01 3.27.26.2-.69-.47-1.37-1.18-1.47-.71-.1-1.4.22-2.05.52" fill="url(#I)"/><path d="M485.73 45.65c-.61-.29-1.26-.49-1.92-.6-.35-.06-.87.09-.79.44.04.15.18.24.32.31.91.5 1.88.88 2.88 1.16.46.13 1.1.14 1.26-.32.11-.32-.12-.65-.38-.86-.63-.52-1.53-.7-2.31-.47" fill="url(#J)"/><path d="M290.95 31.3c.85.5 1.89.6 2.77 1.05 1.03.53 1.79 1.55 1.99 2.69.12.7.06 1.47.45 2.06.56.86 1.91.92 2.73.3.82-.62 1.16-1.71 1.16-2.74 0-.81-.15-1.75.43-2.31.25-.24.59-.36.92-.47.64-.22 1.32-.42 1.99-.31.67.11 1.31.66 1.3 1.34-.02.82-.93 1.58-.57 2.31 1.29-.02 2.59-.04 3.88-.05.45-.45.13-1.27-.4-1.62-.53-.35-1.19-.43-1.77-.69-.58-.26-1.13-.85-.97-1.46.24-.93 1.56-.81 2.52-.78 2.56.09 4.92-2.32 4.77-4.87-2.27-.35-3.39 2.14-5.28 2.79-1.56.54-2.41-.37-3.84-.24-1.52.14-1.88 1.11-3.05 1.39-1.82.44-3.14-.47-5.03-.72-1.47-.2-7.87.07-4.01 2.34l.01-.01Z" fill="url(#K)"/><path d="M268.05 20.46c-1.44 2.5-3.89 4.41-6.67 5.19-1.31.37-2.77.54-3.76 1.48-.61.58-.96 1.38-1.29 2.16-.65 1.53-1.31 3.1-1.34 4.76-.04 1.66.7 3.45 2.19 4.17-2.08 1.03-2.29 4.47-.34 5.74-.79 1.98-4.12.87-5.69 2.32-1.22 1.12-.75 3.14-.01 4.63.74 1.49 1.67 3.15 1.07 4.7-2.23-.87-4.46-1.74-6.7-2.61-.84 1.82 1.58 4.08 3.34 3.11-1.69 3.04-6.19 2.44-9.36 3.88-3.38 1.53-5.2 5.48-8.61 6.93-1.68.71-3.59.75-5.27 1.47-1.68.73-3.12 2.66-2.33 4.31.16.33.4.65.35 1.01-.04.38-.38.64-.67.88-2.74 2.34-2.77 6.49-2.58 10.09-.98.73-2.36-.26-2.9-1.36s-.82-2.44-1.85-3.09c-1.03-.65-2.41-.34-3.53-.8-1.03-.42-1.68-1.42-2.28-2.35-1.11-1.76-2.23-3.52-3.34-5.28-.94-1.48-1.9-3.02-2.16-4.75-.26-1.73.36-3.73 1.92-4.53 1.1-.57 2.88-1.43 2.09-2.38-.18-.21-.45-.31-.71-.41-2.02-.72-4.03-1.43-6.05-2.15.78-2.43 3.6-4 6.08-3.39.91-1.46-1.2-3.06-2.92-3.03-1.72.03-3.64.65-5.04-.35 1.3-1.81 1.23-4.38.18-6.35-1.05-1.97-2.93-3.39-4.97-4.29-.91-.4-1.88-.71-2.87-.73-1.57-.02-3.08.7-4.65.71-2.22.01-4.25-1.43-5.53-3.25-1.28-1.82-1.93-4-2.56-6.13 1.79.99 4.15 1.05 5.82-.14s2.35-3.69 1.26-5.43c2.26-.51 4.53-1.01 6.79-1.52.57-.13 1.16-.26 1.65-.58.63-.4 1.06-1.06 1.63-1.54 1.1-.92 2.62-1.12 4.05-1.28 3.82-.42 7.64-.85 11.46-1.27.73-.08 1.49-.16 2.2.03 1.88.5 3.58 2.78 5.27 1.81.07-.74-.15-1.5-.61-2.09 2.15-.99 4.63-.69 7-.65 4.77.07 9.48-1.03 14.25-1.1 4.68-.07 9.36.87 13.65 2.74-1.43.99-3.07 1.69-4.78 2.03 1.12-.07 2.25.12 3.28.56-.82-.35-4.53 2.58-5.12 3.11 2.02 1.57 6.46-1.68 8.55-2.67 3.95-1.88 7.99-2.96 12.4-2.31l.01-.01Z" fill="url(#L)"/><path d="M260.89 71.4c-1.07.44-2.07 1.04-2.95 1.79-.82.69-1.73 1.57-2.78 1.35-1.07-.21-1.57-1.4-2.04-2.38s-1.42-2.04-2.45-1.69c.56-.67 1.12-1.35 1.68-2.02-1.33-.19-2.67-.39-4-.58-.33-.05-.68-.11-.89-.36-.5-.58.25-1.45.98-1.67 1.66-.49 3.49.26 4.73 1.45.52.5 1.18 1.14 1.85.86.44-.19.63-.7.92-1.07.71-.9 2.03-1.02 3.17-.89 1.93.22 5.77-1.19 6.52 1.12.84 2.58-3.2 3.46-4.75 4.09h.01Z" fill="url(#M)"/><path d="M94.94 53.66c-5.04 2.1-10.27 4.19-15.72 4.12-2.37-.03-4.71-.47-7.03-.9-5.06-.95-10.17-1.91-14.87-3.99-1.26-.56-2.52-1.2-3.89-1.28-1.53-.09-3.01.53-4.39 1.21a41.75 41.75 0 0 0-11.25 8.17c3.39.53 6.54 2.45 8.57 5.22-1.6.78-3.76.06-4.58-1.52-2.15-.62-4.66 1.08-4.87 3.3-.21 2.23 1.92 4.37 4.15 4.17a5.001 5.001 0 0 1 3.32-1.93c.61 1.03 1.23 2.07 1.84 3.1-1.07 1.29-2.95 1.43-4.59 1.8-1.64.37-3.48 1.52-3.29 3.19.31 2.78 5.65 3.01 5.42 5.8.08-.95 11.11-1.68 5.77 4.65-.84.99-2.09 1.71-3.38 1.6.36 1.02.28 2.28-.52 3-.8.72-2.37.46-2.62-.59-.86 1.83-3.21 2.26-5.22 2.46-.24.81-.48 1.61-.71 2.42-.16-1.01-1.49-1.6-2.36-1.07-.87.53-.95 1.97-.16 2.61.73.6 1.81.45 2.74.28.35-.07.75-.17.9-.49.09-.2.06-.43.07-.64.03-1.06.96-1.9 1.95-2.28.99-.38 2.08-.42 3.11-.66 1.71-.4 3.25-1.33 4.61-2.43 1.49-1.2 2.82-2.61 4.51-3.51.65-.34 1.34-.6 1.96-.99 4.57-2.84 1.66-7.75 8.42-8.59.1.94-.55 1.9-1.45 2.17 2.17 1.6 4.54-3.44 7.08-2.54.72.25 1.18.94 1.79 1.38 1.14.82 2.67.77 4.07.89 5.59.48 10.68 4.62 12.29 9.99 2.44-.72 4.48 1.89 5.69 4.13 2.01 3.7 4.02 7.39 6.02 11.09 1.27 2.35 2.56 4.72 3.22 7.31.95 3.7.57 7.63 1.45 11.35.88 3.72 3.75 7.49 7.56 7.39.62 5.82 2.32 11.53 5 16.73-1.3 1.32.79 3.29 2.58 3.81s4.14 1.84 3.36 3.53c2.11-2.34-.58-5.88-3.14-7.71s-5.57-4.86-3.97-7.58c.87-.88 2.41.15 2.82 1.32.41 1.17.37 2.56 1.2 3.49.72.81 1.9 1.02 2.83 1.57 3.39 2.01 2.68 7.74 5.96 9.92 1.2.8 2.78.98 3.81 1.98.75.72 1.09 1.74 1.58 2.65 1.72 3.22 5.19 5.05 8.46 6.68l2.86 1.43c5.46 2.73 10.92 5.47 16.38 8.2.52.26 1.13.53 1.68.31 2.24-.89-2.34-4.88-.43-6.36-2.68-1.29-5.36-2.59-8.04-3.88 1.67-1.49 1.89-4.34.47-6.08.99-.23 1.81-1.07 2.02-2.06-1.18-1.23-3.34-.21-4.26 1.22-.92 1.44-1.29 3.24-2.52 4.41-2.8 2.65-7.75-.16-8.83-3.86-1.08-3.7.16-7.62.57-11.46.17-1.55.3-3.31 1.52-4.27 2.8-2.2 6.93 2.43 10.19.99 1.25-.55 1.98-1.88 3.15-2.57 2.02-1.2 4.77-.09 6.18 1.8 1.4 1.89 1.79 4.31 2.15 6.64.66 1.09 2.5-.11 2.4-1.38-.1-1.27-1.15-2.22-1.84-3.29-1.76-2.73-.96-6.79 1.7-8.65 2.37-1.65 6.26-2.3 6.42-5.18.1-1.86-1.67-3.39-1.74-5.25-.06-1.64 1.18-3.01 2.34-4.17l9.83-9.87c.77-.77 1.7-1.6 2.78-1.48 1.08.12 1.69 1.91.66 2.27 3.86.15 9.04-.78 9.35-4.64-1.56 1.37-3.41 2.4-5.39 3.01-.21-1.83.33-3.74 1.47-5.2-1.44-2.48-4.88-3.16-7.62-2.31-2.74.85-4.93 2.87-7.02 4.83 3.15-3.71 7.35-6.82 12.19-7.38 1.82-.21 3.77-.09 5.35-1.01 2.2-1.28 4.15-4.52 6.37-3.26-1.62 2.84-3.24 5.69-4.86 8.53l5.24-.39c.71 1.21 1.06 2.63.98 4.04 2.14-.15 5.08-1.56 4.13-3.48-.49-.98-1.75-1.22-2.59-1.91-2.31-1.9-.51-5.79-1.67-8.55-.58-1.38-1.85-2.32-3-3.27a37.423 37.423 0 0 1-11.08-15.27c-.56 1.41-1.18 2.89-2.4 3.79-1.22.9-3.22.92-4.02-.37-.44-.71-.41-1.6-.64-2.39-.52-1.81-2.25-2.96-3.85-3.94-1.95-1.2-4.24-2.44-6.4-1.69s-2.66 4.63-.4 4.99c-2.1.08-2.03 3.34-.83 5.07 1.2 1.73 2.88 3.88 1.73 5.64-1.02 1.56-3.6 1.41-4.63 2.97-.99 1.5.09 3.44.84 5.07.75 1.63.73 4.2-1.03 4.55-1.51.3-2.6-1.45-2.88-2.96-.44-2.38-.13-4.95-1.24-7.1-1.11-2.15-4.67-3.16-5.79-1.02-.61-2.18-2.38-4.01-4.55-4.68-1.76-.55-3.72-.38-5.39-1.16-2.5-1.17-3.62-4.04-4.51-6.65 3.26-1.87 6.74-3.97 8.2-7.43.39-.93.65-1.98 1.39-2.67.67-.62 1.61-.84 2.35-1.37.74-.53 1.21-1.7.55-2.32.96-.59 2.13-.81 3.24-.63 1.9 2.57-3.92 6.95-1.18 8.6 1.47.89 3.07-.94 3.83-2.48 1.19.48 2.38.96 3.58 1.44 1.54-1.25-.27-3.64-2.03-4.54-1.76-.9-3.99-2.54-3.11-4.31l4.73-.09c.1-1.51-.9-3.02-2.32-3.51l2.43-3.75c-.74-.81-1.93-1.18-3-.91 3.19-.47 6.31-1.45 9.2-2.88 2.36 2.7 4.59 5.52 6.66 8.45.33.47.68.99.66 1.56-.03 1.26-1.55 1.79-2.64 2.41-1.1.61-1.76 2.56-.54 2.87-.17.93-1.56.92-2.35.4s-1.51-1.35-2.45-1.29c-1.78.1-1.49 3.25.22 3.78 1.71.53 3.45-.57 4.9-1.62 3.33 3.01 7.31 5.3 11.58 6.68-1.72-.36-2.98-2.23-2.66-3.96 2 .58 3.91 1.48 5.62 2.67 1.45-1.77-.41-4.34-2.31-5.6-1.9-1.27-4.29-2.84-3.99-5.11 2.5-.06 4.98 1.36 6.18 3.55l2.84-4.04c-1.07-3.54-7.9-2.46-8.62-6.09-.14-.7 0-1.5-.44-2.07-.68-.88-2.05-.45-3.16-.48-3.88-.12-6.24-6.63-9.82-5.13 1.5-2.81-2.76-6.36-5.25-4.38 1.37.51 2.86 1.22 3.36 2.59.5 1.37-.96 3.25-2.23 2.53-1.29-.72-.67-2.76-1.38-4.06-.86-1.58-3.47-1.26-4.51.2-1.05 1.46-.92 3.45-.5 5.2l-2.59-.06c-.19-2.45.29-4.94 1.36-7.15-1.01-1.51-3.32-.06-4.43 1.38-1.17 1.51-2.38 3.1-2.75 4.98-.37 1.88.4 4.13 2.19 4.8 1.15.43 2.47.16 3.62.61 2.61 1.03 1.58 5.9-1.22 5.79-.87-1.42-1.37-3.07-1.46-4.73a9.59 9.59 0 0 0-3.66 2.04 35.082 35.082 0 0 0-5.63-9.35l1.68-3.24c2.25.98 5.13-1.43 4.57-3.81-1.87-.52-3.84-1.05-5.73-.62-1.89.43-3.65 2.16-3.38 4.08.16 1.15.98 2.11 1.28 3.24.3 1.13-.37 2.7-1.52 2.51-.6 2.73 5.19 2.8 5.45 5.59.18 1.96-2.47 2.72-4.43 2.7a8.85 8.85 0 0 1-.25 5.79c-1.47-2.76-.67-6.54 1.81-8.46-1.48-2.28-4.92-3-7.19-1.51a6.4 6.4 0 0 0 3.7 2.66c-.79.92-1.59 1.84-2.38 2.76-1.72-1.24-4.08-.27-6.19-.14-2.11.13-4.69-2.21-3.19-3.72-1.27-.77-3-1.03-4.21-.17-1.21.87-1.31 3.07.04 3.69-2.81.72-7.47-4.45-9.5-.49-1.27-4.03-3.32-5.23-7.35-5.44-2.68-.14-10.61-2.12-11.98.13-.12-.29-1.24-3.13-1.19-3.15l-.1-.02Z" fill="url(#N)"/><path d="M102.38 43.09c-1.52.16-2.37 1.87-2.57 3.39-.19 1.52-.05 3.15-.8 4.49-.18.33-.42.64-.48 1.02-.17 1.07 1.22 1.75 2.28 1.58 3.11-.5 5.07-4.75 8.17-4.22l.09 2.5c2.05.02 4.09-.28 6.05-.88.6.39.26 1.4-.37 1.71-.63.31-1.39.21-2.1.27-.71.07-1.51.45-1.59 1.15 1.37-.4 2.79-.8 4.19-.53 1.4.27 2.73 1.43 2.69 2.85-1.98-.09-3.97-.02-5.94.22 1.08 1.29 3.05 1.14 4.72 1.32 1.67.18 3.66 1.52 3.07 3.1 2.27-2.39 6.05-3.19 9.09-1.93.76.32 1.48.75 2.29.91.81.16 1.76-.02 2.21-.71.45-.69 0-1.86-.82-1.83 1.07-.15 2-1 2.25-2.04-1.83.6-4.04-.42-4.78-2.2-.67-1.61-.27-3.69-1.48-4.96 1.05.32 2.09-.93 1.84-2-.25-1.07-1.4-1.73-2.5-1.76-.72-.02-1.49.22-1.92.8-.43.58-.35 1.54.28 1.9-.84-.41-1.69-.82-2.53-1.23-.34 2.07 3.73 3.3 2.77 5.17-.61 1.19-2.68.44-2.92-.87-.16-.86.04-2.01-.75-2.4-1.51-.73-2.61 2.97-4.05 2.12l.27-2.49c-1.86-.15-3.77.52-5.13 1.8l.51-2.41c-2.02-1.12-4.02 2.85-6.19 2.09 2.1.72 6.79-3.37 3.1-5.1-.88-.42-2.73.23-3.71.16-1.73-.12-3.52-1.18-5.25-.99h.01Z" fill="url(#O)"/><path d="M111.54 34.51c-1.43-.72-3.17.06-4.39 1.1-1.22 1.04-2.22 2.38-3.67 3.05-.69.32-1.5.52-1.92 1.14 2.41-.03 4.81-.2 7.2-.49-.13.81-.54 1.58-1.14 2.14 1.12.41 2.05-1 2.21-2.18.05-.37.09-.78.38-1.01.24-.18.56-.18.85-.23 1.01-.16 1.91-1.12 1.78-2.14-.12-1.02-1.46-1.74-2.29-1.13" fill="url(#P)"/><path d="M119.06 41.21c.3-.16.46-.53.37-.85-1.5.05-2.92-1.19-3.08-2.68-.85-.54-2.15-.12-2.52.82-.37.94.3 2.14 1.29 2.32l-4.35 1.86c2.77 1.49 6.06-1.76 9.13-1.11v1.12a4.75 4.75 0 0 0-3.5 1.64c2.29.2 4.65-.37 6.59-1.6.55-.35 1.09-.76 1.74-.85.57-.08 1.13.1 1.7.18 1.34.19 3.04-.57 2.99-1.92-.9-.3-1.87-.42-2.82-.34-.29-1.76-2.48-2.89-4.09-2.12.03 1.21.59 2.4 1.51 3.18-.91.8-2.33.94-3.38.34-.5-.28-.96-.73-1.53-.73-.62 0-1.42.44-1.73-.09" fill="url(#Q)"/><path d="M120.79 32.45c-2.26-.27-4.59.12-6.64 1.1 1.11.5 2.21 1 3.32 1.5.25.11.51.23.79.23.24 0 .48-.1.7-.2 1.07-.46 2.13-.92 3.2-1.38-.18-.27-.37-.54-.55-.81.48.32 1.19-.15 1.23-.72.03-.57-.45-1.08-1-1.25-.55-.17-1.14-.08-1.7.06-.65.15-1.29.36-1.91.62.32.68.97 1.2 1.7 1.38.01.27.02.54.04.81" fill="url(#R)"/><path d="M136.57 32.79c-.49.02-.78-.56-.81-1.05-.03-.49.08-1.02-.16-1.45-.6-1.05-2.21-.27-3.4-.47-.71-.11-1.29-.61-1.97-.86-.68-.25-1.63-.11-1.82.58-.22.77.73 1.4 1.53 1.41.8.02 1.63-.27 2.4-.02.14.05.28.12.38.24.57.76-1.47 1.31-1.28 2.24.09.46.66.6 1.13.65.69.07 1.37.15 2.06.22.71.08 1.51.13 2.08-.3.57-.43.59-1.55-.11-1.72" fill="url(#S)"/><path d="M140.21 40.04c.4-.47.16-1.25-.35-1.61-.5-.36-1.16-.4-1.77-.41-1.8-.01-3.6.22-5.34.69-.54.14-1.1.31-1.64.2-.54-.12-1.05-.64-.93-1.18-.74.84.15 2.23 1.23 2.52 1.08.29 2.23-.04 3.35.02s2.4.83 2.28 1.94c-.03.27-.13.55-.02.79.13.29.5.38.82.36 1.49-.07 2.63-1.82 2.09-3.21a.853.853 0 0 1-.89-.48 2.23 2.23 0 0 0 1.32-1.53 4.505 4.505 0 0 0-3.76.29" fill="url(#T)"/><path d="M139.58 46.2c.62-.45.21-1.56-.52-1.77-.73-.22-1.51.17-2.11.64l-.12 1.89c-.73-.15-1.51 0-2.13.41 1.07.29 1.95 1.2 2.2 2.28-1.02.7-2.64.21-3.1-.94-.21-.53-.29-1.25-.84-1.43-.77-.25-1.23.98-.87 1.71.94 1.93 3.82 1.81 5.43 3.24.58.51 1.45 1.25 1.94.65.39-.48-.12-1.15-.59-1.55.57.07 1.17.12 1.69-.13s.87-.91.59-1.41c-.15-.26-.42-.42-.65-.6-.85-.69-1.16-1.97-.72-2.96-.31-.13-.61-.26-.92-.39" fill="url(#U)"/><path d="M167.76 41.07a8.756 8.756 0 0 0-6.56-.98c-1.59.4-3.08 1.25-4.71 1.36-2.39.17-4.68-1.33-5.98-3.34 1.81-1.24 4.46 1.19 6.37.11.55-.31.93-.88 1.51-1.14.59-.26 1.27-.15 1.91-.04 3.06.55 6.11 1.09 9.17 1.64.36-1.31-.76-2.8-2.11-2.83 1.6-.64 3.2-1.29 4.8-1.93.81-.33 1.67-.7 2.11-1.45.44-.75.13-1.97-.74-2.08 3.69-1.28 7.26-2.9 10.66-4.81-.34-.59-.68-1.18-1.03-1.78 2.37.24 4.82-.48 6.67-1.97-2.65-.22-5.35.03-7.92.74 4.42.56 8.99-.19 13-2.11-1.44-1.26-4.07.38-5.49-.9-.43-.38-.64-.96-1.07-1.34-.53-.46-1.29-.53-2-.56-7.21-.39-14.45-.18-21.62.61-1.18.13-2.68.59-2.74 1.78l-5.15-.21c-1.24 1.66-3.67 2.31-5.57 1.48l-1.29 2.04c1.2.83 2.7 1.21 4.15 1.05.89 1.82 3.76 2.22 5.11.71.6 2.07 3.69 1.68 5.53.55 1.84-1.13 4.19-2.57 5.91-1.27a12.283 12.283 0 0 1-8.09 2.53l2.16 2.61c-1.77.11-3.34-1.02-4.89-1.88-1.55-.86-3.58-1.47-5.01-.42 1.29 1.06 2.59 2.11 3.88 3.17-3.56-1.88-7.13-3.76-10.69-5.63-1.04-.55-2.25-1.11-3.36-.7-1.11.41-1.44 2.35-.3 2.66-.88.16-1.64.87-1.87 1.73 2.11.17 4.19.76 6.08 1.72-.89.29-1.78.57-2.67.86l6.09 1.98c.41.13.89.27 1.27.05.38-.21.52-.68.73-1.06.64-1.14 2.28-1.58 3.4-.91-.26.61-.52 1.23-.77 1.84l2.88.02c.02.53.03 1.05.05 1.58 1.39.22 2.82.18 4.2-.12-.5 1.86-3.21 2.03-4.9 1.09-1.69-.94-3.02-2.55-4.88-3.07a8.984 8.984 0 0 0 2.73 3.55c-2.48-.4-5.06-.15-7.42.71-.23-.5-.46-.99-.69-1.49-1.94.81-1.65 3.61-1.02 5.62.19.59.38 1.19.77 1.67.88 1.08 2.46 1.21 3.86 1.25l6.31.18c2.93.08 9.33 1.46 9.22-2.83l.01-.04Z" fill="url(#V)"/><path d="M144.69 38.81c.58-.4 1.62-.06 1.89-.71.2-.49-.32-.95-.78-1.21s-1.01-.66-.88-1.17c-.41.06-.84-.03-1.19-.25l2.64-.69c.34-.09.76-.39.56-.67-.07-.1-.19-.14-.31-.17-.54-.14-1.14-.16-1.62-.45-.48-.29-.75-1.04-.33-1.42-.3-.03-.6-.05-.9-.08-.01-.24-.03-.48-.04-.72-1.56-.04-3.11-.17-4.66-.38-.23 1.04.78 2.15 1.84 2.03.17-.02.36-.06.5.04.13.09.16.25.23.39.2.41.75.61 1.17.42-.12.3-.33.57-.59.76.5.27 1.06.44 1.62.51-.45.35-.97.6-1.53.72.23.19.46.37.69.56l-1.76.03c-.18.55.36 1.08.9 1.3.6.24 3.51 2.09 1.76 2.92-.99.47-1.41-1.17-1.06-1.79.55 1.28.38 3.07 1.36 4.19.71.82 1.79.97 2.47-.11 1.19-1.86-1.69-2.42-1.98-4.05Z" fill="url(#W)"/><path d="M162.11 183.07c-.69 1.85 1.54 4.01 3.37 3.27.53-.22.99-.61 1.55-.71 1.57-.28 2.48 1.7 2.81 3.27.38 1.79.75 3.7.09 5.4-.8 2.04-2.98 3.46-3.24 5.64-.21 1.78.96 3.61.36 5.3-.27.76-.88 1.37-1.17 2.13-.51 1.36.1 2.86.7 4.19 2 4.4 4.01 8.8 6.01 13.2.45.99.93 2.02 1.8 2.68.69.52 1.55.76 2.28 1.23 1.19.76 1.92 2.05 2.6 3.29 1.26 2.29 2.53 4.62 3.07 7.18.73 3.49.04 7.1-.65 10.6l-3.03 15.34-3.33 16.88a5.365 5.365 0 0 0 2.4-3.28c.57 3.66-.15 7.5-2.01 10.71l-.48-4.14a22.147 22.147 0 0 0-2.04 9.41c0 .58.05 1.22.46 1.64.38.4.98.49 1.47.74 1.06.56 1.52 2.04.95 3.1l1.69.39c.87.69-1.19 1.66-1.18 2.77 0 .45.37.81.71 1.11l4.78 4.21c1.11.33 2.26.66 3.4.48 1.14-.18 2.27-1.02 2.37-2.17.15-1.58-1.5-2.64-2.56-3.82-1.65-1.83-2.05-4.52-1.64-6.95.41-2.43 1.55-4.67 2.66-6.86-.72-.27-1.44-.54-2.17-.82.05-1.62 1.71-2.63 2.75-3.87 1.9-2.26 1.69-5.99-.45-8.02.79-.56 1.58-1.12 2.38-1.67l1.95 3.12c1.62-1.3 2.23-3.73 1.42-5.65 3.68.94 7.84-2.07 8.09-5.87-.91-.03-1.63-1.08-1.33-1.94.3-.86 1.51-1.24 2.25-.71-.41 1.05.8 2.2 1.92 2.06 1.12-.14 1.96-1.14 2.34-2.21.38-1.06.41-2.21.62-3.32.34-1.78 1.14-3.47 2.31-4.85.97-1.15 2.22-2.13 2.79-3.52.42-1.02.42-2.15.6-3.24.58-3.55 3.19-6.69 6.58-7.91.14 1.59 2.65 1.26 3.82.18 1.76-1.61 2.94-3.83 3.3-6.18.31-2.06.04-4.29 1.01-6.14.41-.78 1.04-1.46 1.28-2.31.2-.73.1-1.5.14-2.26.21-4.06 4.56-7.27 4.06-11.3-.33-2.62-2.61-4.5-4.71-6.09-3.22-2.43-6.64-4.95-10.64-5.45-2.54-.32-5.28.18-7.56-.97 1.02-.06 1.74-1.12 1.79-2.14.05-1.02-.39-1.99-.82-2.91-.29-.62-.58-1.25-.87-1.87-1.18-2.53-3.11-5.5-5.88-5.1-.82.12-1.72.53-2.42.08-.64-.41-.71-1.3-1.06-1.98-1.36-2.65-6.53-1.57-7.31-4.45-.2-.75-.03-1.66-.57-2.22-.44-.45-1.15-.46-1.78-.44-2.86.11-5.71.21-8.57.32-.1 1.12-.83 2.17-1.85 2.64.15.66.3 1.32.45 1.97-.23 1.17-2.2 1.03-2.71-.05-.51-1.08-.02-2.35.59-3.38.6-1.03 1.34-2.07 1.33-3.27-1.3-.62-2.61.73-3.55 1.82s-2.77 2.04-3.63.88l.33 3.56c-1.84 1.61-5.16.9-6.19-1.31-.71.88-1.5 1.81-2.59 2.11-1.09.3-2.52-.38-2.51-1.51.56 2.45 2.98 4.33 5.49 4.27" fill="url(#X)"/><path d="M159.51 159.62c.87.88 2.22-.44 3.45-.6 1.19-.15 2.16.85 3.05 1.65.89.8 2.28 1.47 3.21.71.44 1.85 3.02 2.77 4.54 1.63-.14.65.72 1.1 1.38.98.66-.12 1.24-.53 1.91-.58.96-.07 1.89.78 1.9 1.75.02.35-.47.48-.82.39-.34-.09-.72-.27-1.02-.08-.21.13-.29.39-.44.59-.54.73-1.66.45-2.52.16-.86-.3-2.07-.38-2.4.46 2.69.53 5.49.49 8.16-.12-.22.21-.06.62.22.74s.6.05.89-.02c1.14-.27 2.28-.55 3.42-.82.69.42 1.6.42 2.29 0-.05.31-.09.63-.14.94 1.34.58 3.07.02 3.82-1.23-1.9-.31-3.79-.63-5.69-.94-1.36-.23-2.76-.46-3.95-1.16-1.17-.69-2.1-1.81-3.4-2.23-1.81-.59-3.88.33-5.64-.39-1.7-.7-2.77-2.82-4.61-2.85-.6-.01-1.23.21-1.77-.04-1.38-.63-1.2-1.94-2.98-1.26-.33.13-2.57 2.59-2.87 2.29l.01.03Z" fill="url(#Y)"/><path d="M311.89 123.65c-.87 1.78-1.26 3.77-.92 5.72.59 3.36 3.19 6.46 2.46 9.8-1.14-.3-2.27-.59-3.41-.88M324.11 78.69c-.07.21-.16.41-.24.61Z" fill="#D4DEEF"/><path d="m122 114 94 105.5 73-32 82-86L236.5 47l-111 54.5H440L311 200 241.5 54.5 216 208" stroke="url(#Z)" stroke-linecap="round" stroke-linejoin="round"/><path d="M324.33 77.36c-.02-.8-.36-1.56-.88-2.19Z" fill="#D4DEEF"/><g filter="url(#aa)"><circle cx="214" cy="217" r="15" fill="#fff"/></g><path d="M218.949 223.857H208.4v-13.714h10.549c1.054 0 1.918.881 1.918 1.959v9.796c0 1.078-.864 1.959-1.918 1.959ZM206.133 220.429h2.267M206.133 213.571h2.267" stroke="#E55DF5" stroke-width="1.5" stroke-linecap="round" stroke-linejoin="round"/><path d="M217.467 220.429v-1.143c0-1.257-.921-1.715-1.7-1.715H213.5c-.779 0-1.7.458-1.7 1.715v1.143" stroke="#E55DF5" stroke-width="1.5" stroke-linecap="round" stroke-linejoin="round"/><ellipse cx="214.633" cy="214.143" rx="1.7" ry="1.714" fill="#E55DF5"/><g filter="url(#ab)"><path d="M111.5 133c17.397 0 31.5-14.103 31.5-31.5S128.897 70 111.5 70 80 84.103 80 101.5 94.103 133 111.5 133Z" fill="#D8D3F5"/></g><path d="M115.5 130c17.397 0 31.5-14.103 31.5-31.5S132.897 67 115.5 67 84 81.103 84 98.5 98.103 130 115.5 130Z" fill="url(#ac)"/><path d="M115.5 130c17.397 0 31.5-14.103 31.5-31.5S132.897 67 115.5 67 84 81.103 84 98.5 98.103 130 115.5 130Z" fill="url(#ad)"/><path d="M117 127.5c17.397 0 30-11.603 30-29S132.897 67 115.5 67s-29 14.103-29 31.5 13.103 29 30.5 29Z" fill="url(#ae)"/><path d="M96.546 108.33c-.683.955.552 2.102 1.453 1.351l7.919-6.599a1 1 0 0 1 1.577.417l.493 1.317a1 1 0 0 0 1.601.396l11.744-10.439a1 1 0 0 1 1.332.003l2.196 1.97a1 1 0 0 0 1.664-.658l.879-10a1 1 0 0 0-.996-1.088h-10.283c-.858 0-1.318 1.009-.755 1.656l2.032 2.336a1 1 0 0 1-.032 1.347l-7.598 7.946a1 1 0 0 1-1.463-.02l-1.716-1.888a1 1 0 0 0-1.554.09l-8.493 11.863Z" fill="#7150CD"/><path d="M96.426 105.65c-.683.955.552 2.102 1.453 1.351l7.919-6.599a1 1 0 0 1 1.576.417l.485 1.293a1 1 0 0 0 1.613.386l11.808-10.837a1 1 0 0 1 1.397.043l2.028 2.11c.595.62 1.642.25 1.718-.605l.861-9.801a1 1 0 0 0-.996-1.088h-10.283c-.858 0-1.318 1.009-.755 1.656l2.031 2.336a1 1 0 0 1-.031 1.347l-7.599 7.946a1 1 0 0 1-1.463-.02l-1.716-1.888a1 1 0 0 0-1.553.09l-8.493 11.863Z" fill="#fff"/><path d="M112.027 115.33v1.19c0 .99 2.4 1.79 5.37 1.79s5.37-.8 5.37-1.79v-1.19c-1.15.81-3.26 1.19-5.37 1.19-2.11 0-4.21-.38-5.37-1.19Zm8.94-7.75c2.96 0 5.37-.8 5.37-1.79s-2.4-1.79-5.37-1.79-5.37.8-5.37 1.79 2.4 1.79 5.37 1.79Zm-8.917 3.35-.023 2.91c0 .99-.47 3.16 2.5 3.16 1.865 0 6.17-.618 7.974-1.5.266-.349.266-1.292.266-1.66v-3.12c-1.15.95-3.14 1.78-5.24 1.78s-4.317-.62-5.477-1.57Zm11.607 1.78c1.6-.31 2.68-.89 2.68-1.55v-1.19c-.65.46-1.6.77-2.68.96v1.78Zm-6.26-4.23c-2.96 0-5.37 1-5.37 2.24 0 1.24 2.4 2.24 5.37 2.24s5.37-1 5.37-2.24c0-1.24-2.4-2.24-5.37-2.24Zm6.13 1.57c1.68-.3 2.81-.89 2.81-1.57v-1.19c-.99.7-2.7 1.08-4.49 1.17.82.4 1.43.94 1.68 1.6v-.01Z" fill="#7150CD"/><path d="M114.34 113.81V115c0 .99 2.4 1.79 5.37 1.79s5.37-.8 5.37-1.79v-1.19c-1.15.81-3.26 1.19-5.37 1.19-2.11 0-4.21-.38-5.37-1.19Zm8.94-7.75c2.96 0 5.37-.8 5.37-1.79s-2.4-1.79-5.37-1.79-5.37.8-5.37 1.79 2.4 1.79 5.37 1.79Zm-8.94 4.82v1.44c0 .99 2.4 1.79 5.37 1.79s5.37-.8 5.37-1.79v-1.44c-1.15.95-3.27 1.44-5.37 1.44s-4.21-.49-5.37-1.44Zm11.63.31c1.6-.31 2.68-.89 2.68-1.55v-1.19c-.65.46-1.6.77-2.68.96v1.78Zm-6.26-4.23c-2.96 0-5.37 1-5.37 2.24 0 1.24 2.4 2.24 5.37 2.24s5.37-1 5.37-2.24c0-1.24-2.4-2.24-5.37-2.24Zm6.13 1.57c1.68-.3 2.81-.89 2.81-1.57v-1.19c-.99.7-2.7 1.08-4.49 1.17.82.4 1.43.94 1.68 1.6v-.01Z" fill="#fff"/><path opacity=".3" d="M114.903 70c-13.794 0-19.62 8.047-20.81 12.07-.99 3.52 6.184 4.627 9.513-1.005C107.768 74.022 132.146 70 114.903 70Z" fill="#BEA9FF"/><g filter="url(#af)"><path d="M291.9 222c17.065 0 30.9-13.834 30.9-30.9 0-17.065-13.835-30.9-30.9-30.9-17.066 0-30.9 13.835-30.9 30.9 0 17.066 13.834 30.9 30.9 30.9Z" fill="#E7CC86"/></g><path d="M293.496 217.8c17.066 0 30.9-13.835 30.9-30.9 0-17.066-13.834-30.9-30.9-30.9-17.065 0-30.9 13.834-30.9 30.9 0 17.065 13.835 30.9 30.9 30.9Z" fill="url(#ag)"/><path d="M293.496 213.403c17.065 0 30.9-9.438 30.9-26.503 0-17.066-13.835-30.9-30.9-30.9-17.066 0-28.282 8.836-28.282 25.902 0 17.065 11.216 31.501 28.282 31.501Z" fill="url(#ah)"/><path opacity=".3" d="M288.339 160.2c-11.444 0-16.279 6.76-17.265 10.14-.822 2.957 5.13 3.887 7.893-.845 3.453-5.915 23.678-9.295 9.372-9.295Z" fill="#FFCFA8"/><path d="M301.5 177.717 296 171v1.033L293 202h21v-16.533l-4-3.617h-8.5v-4.133Z" fill="#C17442"/><path d="M277 173a3 3 0 0 1 3-3h14.211a3 3 0 0 1 3 3v29H277v-29Z" fill="#fff"/><path d="M282.053 173.368h3.368c.476 0 .842.367.842.842v3.369a.828.828 0 0 1-.842.842h-3.368a.83.83 0 0 1-.843-.842v-3.369a.83.83 0 0 1 .843-.842ZM288.789 173.368h3.369c.476 0 .842.367.842.842v3.369a.828.828 0 0 1-.842.842h-3.369a.828.828 0 0 1-.842-.842v-3.369c0-.475.366-.842.842-.842ZM282.053 180.947h3.368c.476 0 .842.367.842.842v3.369a.828.828 0 0 1-.842.842h-3.368a.83.83 0 0 1-.843-.842v-3.369a.83.83 0 0 1 .843-.842ZM288.789 180.947h3.369c.476 0 .842.367.842.842v3.369a.828.828 0 0 1-.842.842h-3.369a.828.828 0 0 1-.842-.842v-3.369c0-.475.366-.842.842-.842ZM282.053 188.526h3.368c.476 0 .842.366.842.842v3.369a.828.828 0 0 1-.842.842h-3.368a.83.83 0 0 1-.843-.842v-3.369a.83.83 0 0 1 .843-.842ZM288.789 188.526h3.369c.476 0 .842.366.842.842v3.369a.828.828 0 0 1-.842.842h-3.369a.828.828 0 0 1-.842-.842v-3.369c0-.476.366-.842.842-.842Z" fill="#FFDEAD"/><path d="M298 181h10.263a3 3 0 0 1 3 3v18H298v-21Z" fill="#fff"/><path d="M302.842 186h3.369c.476 0 .842.366.842.842v3.369a.829.829 0 0 1-.842.842h-3.369a.829.829 0 0 1-.842-.842v-3.369c0-.476.366-.842.842-.842ZM302.842 193.579h3.369c.476 0 .842.366.842.842v3.368a.83.83 0 0 1-.842.843h-3.369a.83.83 0 0 1-.842-.843v-3.368c0-.476.366-.842.842-.842Z" fill="#FFDEAD"/><g filter="url(#ai)"><path d="M450.9 139c17.065 0 30.9-13.834 30.9-30.9 0-17.065-13.835-30.9-30.9-30.9-17.066 0-30.9 13.835-30.9 30.9 0 17.066 13.834 30.9 30.9 30.9Z" fill="#FFC8F3"/></g><path d="M456.5 134.8c17.066 0 30.9-13.835 30.9-30.9 0-17.066-13.834-30.9-30.9-30.9-17.065 0-30.9 13.834-30.9 30.9 0 17.065 13.835 30.9 30.9 30.9Z" fill="url(#aj)"/><path d="M456.5 130.403c17.066 0 30.9-9.438 30.9-26.503 0-17.066-13.834-30.9-30.9-30.9-17.065 0-28.281 8.836-28.281 25.902 0 17.065 11.216 31.501 28.281 31.501Z" fill="url(#ak)"/><path d="m461 99.5 2-3 1.5 23-16-1-10 3V110l8-5.5.5 5 3.5-4.5h5l-2 10h7.5V99.5Z" fill="#B75BC0"/><path opacity=".3" d="M452.744 75.8c-11.445 0-16.279 6.76-17.266 10.14-.822 2.957 5.131 3.887 7.893-.845 3.453-5.915 23.679-9.295 9.373-9.295Z" fill="#EEA8FF"/><path d="M467 96v25h-27v-8.917a1.048 1.048 0 0 1 .353-.77l6.231-6.709a1.03 1.03 0 0 1 1.118-.164 1.036 1.036 0 0 1 .606.956v6.25l6.563-7.021a1.04 1.04 0 0 1 1.125-.19 1.04 1.04 0 0 1 .619.961v11.437h6.231V96H467Z" fill="#fff"/><path d="M456.602 87.5c-2.481 3.721 3.334 6.667 6 7-1.166-.833-3.6-2.1-4-4.5-.4-2.4 2.5-3.667 4-3.5-1-1-4-2-6 1ZM466.602 91c1.667-1.333 2.5-4 1.5-7.5 4.5 2.5 2 6.5-1.5 7.5ZM465.102 86.5c-1.333-.833-3.8-3.3-3-6.5 1 2.5.456 3 3 6.5Z" fill="#FBCDFF"/><g filter="url(#al)"><circle cx="374" cy="97" r="15" fill="#fff"/><path d="M379.626 104.263h-11.252c-.929 0-1.651-.842-1.548-1.895v-6.79c0-1.052.722-1.894 1.548-1.894h11.252c.929 0 1.651.842 1.651 1.895v6.684c-.103 1.158-.825 2-1.651 2Z" stroke="#9469F5" stroke-width="1.5" stroke-linecap="round" stroke-linejoin="round"/><path d="m368.461 93.692 9.869-3.595c.403-.248.906 0 1.108.496.1.124.1.248.1.496v2.231M376 99.5a1.5 1.5 0 0 1 1.5-1.5h3.5v3h-3.5a1.5 1.5 0 0 1-1.5-1.5v0Z" stroke="#9469F5" stroke-width="1.5" stroke-linecap="round" stroke-linejoin="round"/></g><g filter="url(#am)"><circle cx="239" cy="43" r="15" fill="#fff"/><path d="M241 50h-9V37.929c0-.558.4-.929 1-.929h7c.6 0 1 .371 1 .929V50ZM247 50h-6v-9h4.8c.72 0 1.2.45 1.2 1.125V50Z" stroke="#FD9351" stroke-width="1.5" stroke-linecap="round" stroke-linejoin="round"/><rect x="234" y="40" width="2" height="2" rx=".5" fill="#FD9351"/><rect x="237" y="40" width="2" height="2" rx=".5" fill="#FD9351"/><rect x="234" y="43" width="2" height="2" rx=".5" fill="#FD9351"/><rect x="243" y="43" width="2" height="2" rx=".5" fill="#FD9351"/><rect x="243" y="46" width="2" height="2" rx=".5" fill="#FD9351"/><rect x="237" y="43" width="2" height="2" rx=".5" fill="#FD9351"/><path d="M238 47h-3v3h3v-3Z" fill="#FD9351"/></g><defs><linearGradient id="a" x1="298.642" y1="129.844" x2="298.642" y2="264.677" gradientUnits="userSpaceOnUse"><stop stop-color="#D5F7FF"/><stop offset="1" stop-color="#3BD8FF"/></linearGradient><linearGradient id="b" x1="342.846" y1="223.143" x2="342.846" y2="247.667" gradientUnits="userSpaceOnUse"><stop stop-color="#D5F7FF"/><stop offset="1" stop-color="#3BD8FF"/></linearGradient><linearGradient id="c" x1="425.289" y1="33.851" x2="425.289" y2="197.302" gradientUnits="userSpaceOnUse"><stop stop-color="#D5F7FF"/><stop offset="1" stop-color="#3BD8FF"/></linearGradient><linearGradient id="d" x1="296.612" y1="54.242" x2="296.612" y2="134.805" gradientUnits="userSpaceOnUse"><stop stop-color="#D5F7FF"/><stop offset="1" stop-color="#3BD8FF"/></linearGradient><linearGradient id="e" x1="266.549" y1="79.879" x2="266.549" y2="105.43" gradientUnits="userSpaceOnUse"><stop stop-color="#D5F7FF"/><stop offset="1" stop-color="#3BD8FF"/></linearGradient><linearGradient id="f" x1="481.354" y1="111.98" x2="481.354" y2="142.553" gradientUnits="userSpaceOnUse"><stop stop-color="#D5F7FF"/><stop offset="1" stop-color="#3BD8FF"/></linearGradient><linearGradient id="g" x1="423.659" y1="189.395" x2="423.659" y2="211.005" gradientUnits="userSpaceOnUse"><stop stop-color="#D5F7FF"/><stop offset="1" stop-color="#3BD8FF"/></linearGradient><linearGradient id="h" x1="438.59" y1="210.433" x2="438.59" y2="215.582" gradientUnits="userSpaceOnUse"><stop stop-color="#D5F7FF"/><stop offset="1" stop-color="#3BD8FF"/></linearGradient><linearGradient id="i" x1="454.576" y1="213.919" x2="454.576" y2="219" gradientUnits="userSpaceOnUse"><stop stop-color="#D5F7FF"/><stop offset="1" stop-color="#3BD8FF"/></linearGradient><linearGradient id="j" x1="451.631" y1="216.996" x2="451.631" y2="218.85" gradientUnits="userSpaceOnUse"><stop stop-color="#D5F7FF"/><stop offset="1" stop-color="#3BD8FF"/></linearGradient><linearGradient id="k" x1="443.02" y1="187.198" x2="443.02" y2="207.404" gradientUnits="userSpaceOnUse"><stop stop-color="#D5F7FF"/><stop offset="1" stop-color="#3BD8FF"/></linearGradient><linearGradient id="l" x1="455.861" y1="196.32" x2="455.861" y2="201.172" gradientUnits="userSpaceOnUse"><stop stop-color="#D5F7FF"/><stop offset="1" stop-color="#3BD8FF"/></linearGradient><linearGradient id="m" x1="453.996" y1="201.348" x2="453.996" y2="211.101" gradientUnits="userSpaceOnUse"><stop stop-color="#D5F7FF"/><stop offset="1" stop-color="#3BD8FF"/></linearGradient><linearGradient id="n" x1="461.255" y1="205.238" x2="461.255" y2="206.031" gradientUnits="userSpaceOnUse"><stop stop-color="#D5F7FF"/><stop offset="1" stop-color="#3BD8FF"/></linearGradient><linearGradient id="o" x1="466.197" y1="203.456" x2="466.197" y2="206.691" gradientUnits="userSpaceOnUse"><stop stop-color="#D5F7FF"/><stop offset="1" stop-color="#3BD8FF"/></linearGradient><linearGradient id="p" x1="463.401" y1="196.935" x2="463.401" y2="202.328" gradientUnits="userSpaceOnUse"><stop stop-color="#D5F7FF"/><stop offset="1" stop-color="#3BD8FF"/></linearGradient><linearGradient id="q" x1="482.323" y1="200.02" x2="482.323" y2="218.23" gradientUnits="userSpaceOnUse"><stop stop-color="#D5F7FF"/><stop offset="1" stop-color="#3BD8FF"/></linearGradient><linearGradient id="r" x1="497.017" y1="204.36" x2="497.017" y2="210.528" gradientUnits="userSpaceOnUse"><stop stop-color="#D5F7FF"/><stop offset="1" stop-color="#3BD8FF"/></linearGradient><linearGradient id="s" x1="506.352" y1="212.474" x2="506.352" y2="215.47" gradientUnits="userSpaceOnUse"><stop stop-color="#D5F7FF"/><stop offset="1" stop-color="#3BD8FF"/></linearGradient><linearGradient id="t" x1="518.494" y1="236.239" x2="518.494" y2="239.964" gradientUnits="userSpaceOnUse"><stop stop-color="#D5F7FF"/><stop offset="1" stop-color="#3BD8FF"/></linearGradient><linearGradient id="u" x1="523.427" y1="226.31" x2="523.427" y2="234.89" gradientUnits="userSpaceOnUse"><stop stop-color="#D5F7FF"/><stop offset="1" stop-color="#3BD8FF"/></linearGradient><linearGradient id="v" x1="510.877" y1="212.96" x2="510.877" y2="219.051" gradientUnits="userSpaceOnUse"><stop stop-color="#D5F7FF"/><stop offset="1" stop-color="#3BD8FF"/></linearGradient><linearGradient id="w" x1="467.795" y1="212.6" x2="467.795" y2="214.716" gradientUnits="userSpaceOnUse"><stop stop-color="#D5F7FF"/><stop offset="1" stop-color="#3BD8FF"/></linearGradient><linearGradient id="x" x1="473.695" y1="209.6" x2="473.695" y2="211.852" gradientUnits="userSpaceOnUse"><stop stop-color="#D5F7FF"/><stop offset="1" stop-color="#3BD8FF"/></linearGradient><linearGradient id="y" x1="471.442" y1="219.24" x2="471.442" y2="272.453" gradientUnits="userSpaceOnUse"><stop stop-color="#D5F7FF"/><stop offset="1" stop-color="#3BD8FF"/></linearGradient><linearGradient id="z" x1="490.91" y1="276.115" x2="490.91" y2="282.274" gradientUnits="userSpaceOnUse"><stop stop-color="#D5F7FF"/><stop offset="1" stop-color="#3BD8FF"/></linearGradient><linearGradient id="A" x1="525.527" y1="277.181" x2="525.527" y2="291.207" gradientUnits="userSpaceOnUse"><stop stop-color="#D5F7FF"/><stop offset="1" stop-color="#3BD8FF"/></linearGradient><linearGradient id="B" x1="533.944" y1="262.44" x2="533.944" y2="278.924" gradientUnits="userSpaceOnUse"><stop stop-color="#D5F7FF"/><stop offset="1" stop-color="#3BD8FF"/></linearGradient><linearGradient id="C" x1="453.354" y1="166.007" x2="453.354" y2="178.583" gradientUnits="userSpaceOnUse"><stop stop-color="#D5F7FF"/><stop offset="1" stop-color="#3BD8FF"/></linearGradient><linearGradient id="D" x1="457.741" y1="176.17" x2="457.741" y2="191.006" gradientUnits="userSpaceOnUse"><stop stop-color="#D5F7FF"/><stop offset="1" stop-color="#3BD8FF"/></linearGradient><linearGradient id="E" x1="361.763" y1="37.4" x2="361.763" y2="54.743" gradientUnits="userSpaceOnUse"><stop stop-color="#D5F7FF"/><stop offset="1" stop-color="#3BD8FF"/></linearGradient><linearGradient id="F" x1="415.533" y1="24.146" x2="415.533" y2="31.771" gradientUnits="userSpaceOnUse"><stop stop-color="#D5F7FF"/><stop offset="1" stop-color="#3BD8FF"/></linearGradient><linearGradient id="G" x1="426.675" y1="29.363" x2="426.675" y2="33.46" gradientUnits="userSpaceOnUse"><stop stop-color="#D5F7FF"/><stop offset="1" stop-color="#3BD8FF"/></linearGradient><linearGradient id="H" x1="482.797" y1="37.733" x2="482.797" y2="42.888" gradientUnits="userSpaceOnUse"><stop stop-color="#D5F7FF"/><stop offset="1" stop-color="#3BD8FF"/></linearGradient><linearGradient id="I" x1="495.006" y1="40.15" x2="495.006" y2="42.48" gradientUnits="userSpaceOnUse"><stop stop-color="#D5F7FF"/><stop offset="1" stop-color="#3BD8FF"/></linearGradient><linearGradient id="J" x1="485.26" y1="45.037" x2="485.26" y2="47.037" gradientUnits="userSpaceOnUse"><stop stop-color="#D5F7FF"/><stop offset="1" stop-color="#3BD8FF"/></linearGradient><linearGradient id="K" x1="300.938" y1="25.716" x2="300.938" y2="37.813" gradientUnits="userSpaceOnUse"><stop stop-color="#D5F7FF"/><stop offset="1" stop-color="#3BD8FF"/></linearGradient><linearGradient id="L" x1="223.67" y1="17.006" x2="223.67" y2="84.931" gradientUnits="userSpaceOnUse"><stop stop-color="#D5F7FF"/><stop offset="1" stop-color="#3BD8FF"/></linearGradient><linearGradient id="M" x1="256.521" y1="65.688" x2="256.521" y2="74.574" gradientUnits="userSpaceOnUse"><stop stop-color="#D5F7FF"/><stop offset="1" stop-color="#3BD8FF"/></linearGradient><linearGradient id="N" x1="120.534" y1="43.452" x2="120.534" y2="179.461" gradientUnits="userSpaceOnUse"><stop stop-color="#D5F7FF"/><stop offset="1" stop-color="#3BD8FF"/></linearGradient><linearGradient id="O" x1="116.663" y1="43.067" x2="116.663" y2="61.06" gradientUnits="userSpaceOnUse"><stop stop-color="#D5F7FF"/><stop offset="1" stop-color="#3BD8FF"/></linearGradient><linearGradient id="P" x1="107.206" y1="34.23" x2="107.206" y2="41.523" gradientUnits="userSpaceOnUse"><stop stop-color="#D5F7FF"/><stop offset="1" stop-color="#3BD8FF"/></linearGradient><linearGradient id="Q" x1="120.096" y1="37.434" x2="120.096" y2="44.369" gradientUnits="userSpaceOnUse"><stop stop-color="#D5F7FF"/><stop offset="1" stop-color="#3BD8FF"/></linearGradient><linearGradient id="R" x1="118.496" y1="30.827" x2="118.496" y2="35.28" gradientUnits="userSpaceOnUse"><stop stop-color="#D5F7FF"/><stop offset="1" stop-color="#3BD8FF"/></linearGradient><linearGradient id="S" x1="132.755" y1="28.845" x2="132.755" y2="34.334" gradientUnits="userSpaceOnUse"><stop stop-color="#D5F7FF"/><stop offset="1" stop-color="#3BD8FF"/></linearGradient><linearGradient id="T" x1="135.159" y1="37.73" x2="135.159" y2="43.363" gradientUnits="userSpaceOnUse"><stop stop-color="#D5F7FF"/><stop offset="1" stop-color="#3BD8FF"/></linearGradient><linearGradient id="U" x1="136.607" y1="44.367" x2="136.607" y2="53.104" gradientUnits="userSpaceOnUse"><stop stop-color="#D5F7FF"/><stop offset="1" stop-color="#3BD8FF"/></linearGradient><linearGradient id="V" x1="168.71" y1="17.469" x2="168.71" y2="44.214" gradientUnits="userSpaceOnUse"><stop stop-color="#D5F7FF"/><stop offset="1" stop-color="#3BD8FF"/></linearGradient><linearGradient id="W" x1="143.01" y1="30.89" x2="143.01" y2="43.628" gradientUnits="userSpaceOnUse"><stop stop-color="#D5F7FF"/><stop offset="1" stop-color="#3BD8FF"/></linearGradient><linearGradient id="X" x1="196.625" y1="177.404" x2="196.625" y2="309.151" gradientUnits="userSpaceOnUse"><stop stop-color="#D5F7FF"/><stop offset="1" stop-color="#3BD8FF"/></linearGradient><linearGradient id="Y" x1="174.955" y1="157.109" x2="174.955" y2="167.629" gradientUnits="userSpaceOnUse"><stop stop-color="#D5F7FF"/><stop offset="1" stop-color="#3BD8FF"/></linearGradient><linearGradient id="Z" x1="281" y1="47" x2="281" y2="219.5" gradientUnits="userSpaceOnUse"><stop stop-color="#98ABDC"/><stop offset="1" stop-color="#80DAEE"/></linearGradient><linearGradient id="ac" x1="103" y1="70" x2="123.5" y2="126.5" gradientUnits="userSpaceOnUse"><stop stop-color="#8560F8"/><stop offset="1" stop-color="#4E37F0"/></linearGradient><linearGradient id="ad" x1="103" y1="70" x2="123.5" y2="126.5" gradientUnits="userSpaceOnUse"><stop stop-color="#8560F8"/><stop offset="1" stop-color="#4E37F0"/></linearGradient><linearGradient id="ae" x1="102.633" y1="70.05" x2="130.725" y2="122.221" gradientUnits="userSpaceOnUse"><stop stop-color="#F8F5FF" stop-opacity=".17"/><stop offset="1" stop-color="#7D37F0"/></linearGradient><linearGradient id="ag" x1="293.496" y1="156" x2="293.496" y2="217.8" gradientUnits="userSpaceOnUse"><stop stop-color="#FDBC60"/><stop offset="1" stop-color="#F87C56"/></linearGradient><linearGradient id="ah" x1="296.905" y1="156" x2="296.905" y2="210.603" gradientUnits="userSpaceOnUse"><stop stop-color="#FF0707" stop-opacity=".08"/><stop offset="1" stop-color="#FFC369" stop-opacity=".55"/></linearGradient><linearGradient id="aj" x1="462.521" y1="73" x2="440.819" y2="130.403" gradientUnits="userSpaceOnUse"><stop stop-color="#EA61E4"/><stop offset="1" stop-color="#C05CC2"/></linearGradient><linearGradient id="ak" x1="459.909" y1="73" x2="459.909" y2="127.603" gradientUnits="userSpaceOnUse"><stop stop-color="#D21DEF"/><stop offset="1" stop-color="#FBCDFF" stop-opacity=".37"/></linearGradient><filter id="aa" x="193" y="200" width="38" height="38" filterUnits="userSpaceOnUse" color-interpolation-filters="sRGB"><feFlood flood-opacity="0" result="BackgroundImageFix"/><feColorMatrix in="SourceAlpha" values="0 0 0 0 0 0 0 0 0 0 0 0 0 0 0 0 0 0 127 0" result="hardAlpha"/><feOffset dx="-2" dy="2"/><feGaussianBlur stdDeviation="2"/><feComposite in2="hardAlpha" operator="out"/><feColorMatrix values="0 0 0 0 0.988235 0 0 0 0 0.635294 0 0 0 0 0.917647 0 0 0 1 0"/><feBlend in2="BackgroundImageFix" result="effect1_dropShadow_363_443"/><feBlend in="SourceGraphic" in2="effect1_dropShadow_363_443" result="shape"/></filter><filter id="ab" x="73" y="63" width="77" height="77" filterUnits="userSpaceOnUse" color-interpolation-filters="sRGB"><feFlood flood-opacity="0" result="BackgroundImageFix"/><feBlend in="SourceGraphic" in2="BackgroundImageFix" result="shape"/><feGaussianBlur stdDeviation="3.5" result="effect1_foregroundBlur_363_443"/></filter><filter id="af" x="254" y="153.2" width="75.8" height="75.8" filterUnits="userSpaceOnUse" color-interpolation-filters="sRGB"><feFlood flood-opacity="0" result="BackgroundImageFix"/><feBlend in="SourceGraphic" in2="BackgroundImageFix" result="shape"/><feGaussianBlur stdDeviation="3.5" result="effect1_foregroundBlur_363_443"/></filter><filter id="ai" x="413" y="70.2" width="75.8" height="75.8" filterUnits="userSpaceOnUse" color-interpolation-filters="sRGB"><feFlood flood-opacity="0" result="BackgroundImageFix"/><feBlend in="SourceGraphic" in2="BackgroundImageFix" result="shape"/><feGaussianBlur stdDeviation="3.5" result="effect1_foregroundBlur_363_443"/></filter><filter id="al" x="353" y="80" width="38" height="38" filterUnits="userSpaceOnUse" color-interpolation-filters="sRGB"><feFlood flood-opacity="0" result="BackgroundImageFix"/><feColorMatrix in="SourceAlpha" values="0 0 0 0 0 0 0 0 0 0 0 0 0 0 0 0 0 0 127 0" result="hardAlpha"/><feOffset dx="-2" dy="2"/><feGaussianBlur stdDeviation="2"/><feComposite in2="hardAlpha" operator="out"/><feColorMatrix values="0 0 0 0 0.741176 0 0 0 0 0.694118 0 0 0 0 1 0 0 0 1 0"/><feBlend in2="BackgroundImageFix" result="effect1_dropShadow_363_443"/><feBlend in="SourceGraphic" in2="effect1_dropShadow_363_443" result="shape"/></filter><filter id="am" x="218" y="26" width="38" height="38" filterUnits="userSpaceOnUse" color-interpolation-filters="sRGB"><feFlood flood-opacity="0" result="BackgroundImageFix"/><feColorMatrix in="SourceAlpha" values="0 0 0 0 0 0 0 0 0 0 0 0 0 0 0 0 0 0 127 0" result="hardAlpha"/><feOffset dx="-2" dy="2"/><feGaussianBlur stdDeviation="2"/><feComposite in2="hardAlpha" operator="out"/><feColorMatrix values="0 0 0 0 0.992157 0 0 0 0 0.812706 0 0 0 0 0.647059 0 0 0 1 0"/><feBlend in2="BackgroundImageFix" result="effect1_dropShadow_363_443"/><feBlend in="SourceGraphic" in2="effect1_dropShadow_363_443" result="shape"/></filter></defs></svg>